<svg width="36" height="37" viewBox="0 0 36 37" fill="none" xmlns="http://www.w3.org/2000/svg">
<g clip-path="url(#clip0_242_2703)">
<path d="M25.5529 8.30348L18.1926 0.943172C18.1078 0.858375 17.926 0.782227 17.8042 0.782227H4.08309C2.49909 0.782227 1.21033 2.07337 1.21033 3.66033V33.0636C1.21033 34.6476 2.49909 35.9364 4.08309 35.9364H21.4735C21.7768 35.9364 22.0228 35.6904 22.0228 35.3871C22.0228 35.0838 21.7768 34.8378 21.4735 34.8378H4.08309C3.10469 34.8378 2.30889 34.042 2.30889 33.0636V3.66033C2.30889 2.67898 3.10469 1.88079 4.08309 1.88079H17.2546V6.36841C17.2546 7.95347 18.5441 9.243 20.1292 9.243H24.6152V20.6717C24.6152 20.9751 24.8611 21.221 25.1645 21.221C25.4678 21.221 25.7137 20.9751 25.7137 20.6717V8.69182C25.7138 8.49579 25.592 8.36557 25.5529 8.30348ZM20.1292 8.14444C19.15 8.14444 18.3532 7.34759 18.3532 6.36841V2.65859L23.8391 8.14444H20.1292Z" fill="#006400"/>
<path d="M10.3755 12.1619C10.1609 11.9473 9.81336 11.9473 9.59877 12.1619L6.93631 14.8244L5.92304 13.8111C5.70845 13.5965 5.36089 13.5965 5.1463 13.8111C4.9317 14.0257 4.9317 14.3733 5.1463 14.5878L6.54791 15.9895C6.76243 16.204 7.11005 16.204 7.32465 15.9895L10.3755 12.9386C10.59 12.7241 10.59 12.3764 10.3755 12.1619Z" fill="#006400"/>
<path d="M13.3662 13.246H21.389C21.6924 13.246 21.9383 13.0001 21.9383 12.6967C21.9383 12.3934 21.6924 12.1475 21.389 12.1475H13.3662C13.0629 12.1475 12.817 12.3934 12.817 12.6967C12.817 13.0001 13.0629 13.246 13.3662 13.246Z" fill="#006400"/>
<path d="M13.3662 16.0048H17.3778C17.6811 16.0048 17.9271 15.7589 17.9271 15.4555C17.9271 15.1522 17.6811 14.9062 17.3778 14.9062H13.3662C13.0629 14.9062 12.817 15.1522 12.817 15.4555C12.817 15.7589 13.0629 16.0048 13.3662 16.0048Z" fill="#006400"/>
<path d="M10.3755 19.6414C10.1609 19.4268 9.81336 19.4268 9.59877 19.6414L6.93631 22.3039L5.92304 21.2903C5.70845 21.0757 5.36089 21.0757 5.1463 21.2903C4.9317 21.5046 4.9317 21.8525 5.1463 22.0671L6.54791 23.4689C6.76201 23.683 7.10977 23.6838 7.32465 23.4689L10.3755 20.4181C10.59 20.2036 10.59 19.8559 10.3755 19.6414Z" fill="#006400"/>
<path d="M21.9383 20.1762C21.9383 19.8729 21.6924 19.627 21.389 19.627H13.3662C13.0629 19.627 12.817 19.8729 12.817 20.1762C12.817 20.4796 13.0629 20.7255 13.3662 20.7255H21.389C21.6924 20.7255 21.9383 20.4796 21.9383 20.1762Z" fill="#006400"/>
<path d="M13.3662 23.4843H17.3778C17.6811 23.4843 17.9271 23.2384 17.9271 22.935C17.9271 22.6317 17.6811 22.3857 17.3778 22.3857H13.3662C13.0629 22.3857 12.817 22.6317 12.817 22.935C12.817 23.2384 13.0629 23.4843 13.3662 23.4843Z" fill="#006400"/>
<path d="M9.59877 27.1209L6.93631 29.7834L5.92304 28.7701C5.70845 28.5555 5.36089 28.5555 5.1463 28.7701C4.9317 28.9847 4.9317 29.3323 5.1463 29.5469L6.54791 30.9485C6.76243 31.1631 7.11005 31.1631 7.32465 30.9485L10.3755 27.8976C10.5901 27.683 10.5901 27.3355 10.3755 27.1209C10.1609 26.9063 9.81336 26.9063 9.59877 27.1209Z" fill="#006400"/>
<path d="M19.7267 27.6528C19.7267 27.3495 19.4807 27.1035 19.1774 27.1035H13.3659C13.0626 27.1035 12.8167 27.3495 12.8167 27.6528C12.8167 27.9561 13.0626 28.2021 13.3659 28.2021H19.1774C19.4807 28.2021 19.7267 27.9561 19.7267 27.6528Z" fill="#006400"/>
<path d="M13.3662 29.8643C13.0629 29.8643 12.817 30.1102 12.817 30.4135C12.817 30.7169 13.0629 30.9628 13.3662 30.9628H17.3778C17.6811 30.9628 17.9271 30.7169 17.9271 30.4135C17.9271 30.1102 17.6811 29.8643 17.3778 29.8643H13.3662Z" fill="#006400"/>
<path d="M31.5494 22.9263C30.9323 22.5492 30.2628 22.2705 29.5598 22.098C29.2421 22.0199 28.9245 22.2364 28.884 22.5639C28.8196 23.0819 28.3805 23.4724 27.8627 23.4724C27.3445 23.4724 26.9055 23.0819 26.8411 22.5639C26.8006 22.2373 26.4842 22.02 26.1653 22.098C25.4623 22.2705 24.7928 22.5492 24.1757 22.9263C23.8947 23.0984 23.8282 23.4755 24.029 23.7327C24.3488 24.1431 24.3131 24.7291 23.9461 25.0963C23.5803 25.4611 22.9959 25.496 22.5855 25.176C22.3291 24.9764 21.9513 25.041 21.779 25.3232C21.4001 25.9439 21.1222 26.6141 20.9535 27.3149C20.8768 27.6318 21.0936 27.9478 21.4197 27.9883C21.936 28.0527 22.3252 28.4918 22.3252 29.0096C22.3252 29.5278 21.9349 29.9669 21.4173 30.0307C21.092 30.071 20.8728 30.3866 20.9511 30.7068C21.1244 31.4128 21.4028 32.0833 21.779 32.6993C21.9491 32.9776 22.3257 33.0496 22.5869 32.8455C22.9959 32.5242 23.5816 32.5591 23.948 32.9252C24.313 33.2924 24.3465 33.8786 24.026 34.2895C23.8234 34.5496 23.8942 34.9274 24.1746 35.0974C24.7931 35.4718 25.4628 35.7488 26.1652 35.9213C26.4794 36.0001 26.8002 35.7849 26.841 35.4557C26.9057 34.9377 27.3448 34.547 27.8626 34.547C28.3803 34.547 28.8193 34.9378 28.8839 35.4557C28.9252 35.788 29.2476 35.9988 29.5598 35.9213C30.2625 35.7488 30.9322 35.4715 31.5507 35.0974C31.8318 34.927 31.9015 34.5481 31.6989 34.2895C31.3776 33.8776 31.4106 33.2915 31.7759 32.9262C32.1418 32.5604 32.728 32.5258 33.1395 32.8463C33.4014 33.0507 33.7771 32.976 33.946 32.6993C34.3223 32.0833 34.6007 31.4128 34.7739 30.7068C34.8522 30.3871 34.6336 30.0711 34.308 30.0307C33.7901 29.9669 33.3999 29.5278 33.3999 29.0096C33.3999 28.4936 33.7901 28.0546 34.3075 27.9881C34.6322 27.9464 34.8477 27.6316 34.7715 27.3149C34.6028 26.6141 34.3249 25.9438 33.9459 25.3232C33.7758 25.0446 33.3985 24.9731 33.1394 25.1763C32.7291 25.4962 32.1439 25.4611 31.7788 25.0963C31.4119 24.7291 31.3762 24.1431 31.6959 23.7327C31.8972 23.4751 31.8299 23.0981 31.5494 22.9263ZM33.2614 26.3542C33.3767 26.587 33.4759 26.8262 33.5588 27.0708C32.8121 27.4087 32.3014 28.1584 32.3014 29.0097C32.3014 29.8636 32.8124 30.6133 33.5596 30.9496C33.4759 31.1958 33.3762 31.4359 33.2614 31.6681C32.4951 31.3766 31.603 31.5459 30.9993 32.1496C30.3961 32.7528 30.2282 33.6437 30.5201 34.4103C30.2876 34.5245 30.0481 34.6237 29.8024 34.7072C29.4661 33.9594 28.7161 33.4485 27.8628 33.4485C27.0091 33.4485 26.2594 33.9595 25.9228 34.7072C25.6772 34.6238 25.4377 34.5245 25.2051 34.41C25.4953 33.6451 25.3276 32.7544 24.7258 32.1496C24.1208 31.5443 23.2292 31.3754 22.4633 31.6674C22.3487 31.4352 22.2492 31.1956 22.1655 30.9497C22.9128 30.6136 23.4237 29.8637 23.4237 29.0098C23.4237 28.1561 22.9133 27.4061 22.1669 27.0698C22.2495 26.8255 22.3487 26.5865 22.4638 26.3543C23.2282 26.6447 24.1197 26.4765 24.7229 25.8731C25.3274 25.2686 25.4972 24.3768 25.207 23.6108C25.4387 23.496 25.6777 23.3965 25.9228 23.3128C26.2591 24.06 27.0091 24.571 27.8628 24.571C28.7164 24.571 29.4661 24.06 29.8024 23.3128C30.0475 23.3965 30.2865 23.496 30.5183 23.6108C30.2281 24.3768 30.3978 25.2686 31.0024 25.8731C31.606 26.4765 32.4967 26.6447 33.2614 26.3542Z" fill="#006400"/>
<path d="M27.8627 26.082C26.2481 26.082 24.9347 27.3954 24.9347 29.0098C24.9347 30.6241 26.2481 31.9375 27.8627 31.9375C29.477 31.9375 30.7905 30.6241 30.7905 29.0098C30.7905 27.3954 29.477 26.082 27.8627 26.082ZM27.8627 30.839C26.854 30.839 26.0333 30.0185 26.0333 29.0098C26.0333 28.0011 26.854 27.1806 27.8627 27.1806C28.8714 27.1806 29.6919 28.001 29.6919 29.0098C29.6918 30.0185 28.8714 30.839 27.8627 30.839Z" fill="#006400"/>
</g>
<defs>
<clipPath id="clip0_242_2703">
<rect width="36" height="36" fill="white" transform="translate(0.000183105 0.360352)"/>
</clipPath>
</defs>
</svg>
