<svg width="37" height="37" viewBox="0 0 37 37" fill="none" xmlns="http://www.w3.org/2000/svg">
<g clip-path="url(#clip0_242_2723)">
<path d="M35.6357 7.42861C35.6333 7.42861 35.631 7.42861 35.6287 7.42861H33.2631V6.61915C33.2759 6.29877 33.0686 6.01084 32.7607 5.92134C31.1184 5.49097 29.4273 5.27517 27.7295 5.27936C24.9383 5.27936 21.1352 5.90739 18.323 8.7684C15.5318 5.87947 11.7008 5.27936 8.91655 5.27936C7.21878 5.27517 5.52764 5.49097 3.88535 5.92134C3.57744 6.01084 3.37019 6.29877 3.38292 6.61915V7.42163H1.03131C0.64594 7.42163 0.333496 7.73408 0.333496 8.11944V30.4075C0.333496 30.7928 0.64594 31.1053 1.03131 31.1053C1.15115 31.1049 1.26891 31.0737 1.37323 31.0146C1.44301 30.9797 8.42111 27.1627 18.1625 29.619H18.2672H18.33C18.3857 29.6257 18.4418 29.6257 18.4975 29.619C28.2668 27.1417 35.2449 30.9518 35.2868 31.0146C35.5027 31.1392 35.7687 31.1392 35.9846 31.0146C36.1992 30.8907 36.332 30.6623 36.3335 30.4145V8.12642C36.3335 7.74105 36.0211 7.42861 35.6357 7.42861ZM1.72912 29.298V8.82423H3.39688V26.3253C3.39252 26.7107 3.70139 27.0266 4.08675 27.031C4.12443 27.0314 4.16212 27.0288 4.19936 27.0231C5.64296 26.8027 7.10042 26.6861 8.56067 26.6742C10.5834 26.6391 12.5978 26.9434 14.52 27.5744C10.1792 27.0494 5.77615 27.6428 1.72912 29.298ZM8.56067 25.2856C7.29144 25.2884 6.0237 25.37 4.76459 25.5298V7.17042C6.12322 6.86775 7.51064 6.71327 8.9026 6.70987C11.5124 6.70987 15.1131 7.30998 17.6113 10.1291L17.6322 27.5116C16.1808 26.5625 13.3476 25.2856 8.56067 25.2856ZM19.0278 10.1291C21.526 7.3379 25.1267 6.70987 27.7365 6.70987C29.1283 6.71397 30.5158 6.86836 31.8745 7.17042V25.5298C30.6224 25.3685 29.3617 25.2846 28.0993 25.2786C23.3403 25.2786 20.5002 26.5556 19.0278 27.5046V10.1291ZM34.9309 29.298C30.8752 27.6382 26.4621 27.0448 22.1121 27.5744C24.0434 26.9411 26.0673 26.6368 28.0993 26.6742C29.5688 26.6824 31.0356 26.7967 32.4886 27.0161C32.8696 27.074 33.2254 26.8119 33.2832 26.4309C33.2889 26.3937 33.2915 26.356 33.291 26.3183V8.82423H34.9588L34.9309 29.298Z" fill="#006400"/>
</g>
<defs>
<clipPath id="clip0_242_2723">
<rect width="36" height="36" fill="white" transform="translate(0.333496 0.193359)"/>
</clipPath>
</defs>
</svg>
