<svg width="36" height="37" viewBox="0 0 36 37" fill="none" xmlns="http://www.w3.org/2000/svg">
<g clip-path="url(#clip0_242_2732)">
<path d="M33.7898 34.6649H33.7746V13.8406C33.7746 13.8106 33.7746 13.7807 33.7697 13.7511C33.7697 13.7461 33.7697 13.7408 33.7697 13.7359C33.7648 13.7162 33.7648 13.6911 33.7598 13.6714C33.7598 13.6615 33.7549 13.6464 33.75 13.6365C33.745 13.6217 33.745 13.6069 33.7401 13.5917C33.7352 13.5769 33.7299 13.5622 33.7249 13.547C33.72 13.5371 33.72 13.5273 33.7151 13.5174C33.7101 13.5022 33.7003 13.4874 33.6954 13.4726C33.6904 13.4624 33.6851 13.4525 33.6802 13.4427C33.6703 13.4279 33.6654 13.4127 33.6555 13.4028C33.6506 13.393 33.6457 13.3831 33.6403 13.3732C33.6305 13.363 33.6255 13.3482 33.6157 13.3383C33.6058 13.3285 33.6009 13.3182 33.5906 13.3084C33.5808 13.2985 33.5759 13.2886 33.566 13.2788C33.5561 13.2685 33.5459 13.2537 33.536 13.2439C33.5311 13.234 33.5212 13.2287 33.5114 13.2238C33.5011 13.2139 33.4863 13.1991 33.4765 13.1892C33.4715 13.1839 33.4617 13.179 33.4514 13.1691C33.4366 13.1593 33.4218 13.1494 33.412 13.1395C33.4017 13.1342 33.3919 13.1293 33.3869 13.1244C33.3721 13.1145 33.357 13.1046 33.3471 13.0997C33.3323 13.0948 33.3224 13.0845 33.3073 13.0796C33.2974 13.0747 33.2826 13.0697 33.2727 13.0648C33.2526 13.0549 33.2329 13.05 33.2128 13.0447C33.2079 13.0447 33.2029 13.0398 33.1931 13.0398C33.168 13.0299 33.1384 13.025 33.1134 13.02H33.1085L28.9564 12.1498V3.59745C28.9564 3.56748 28.9564 3.53789 28.9514 3.50792C28.9514 3.50299 28.9514 3.49806 28.9465 3.48781C28.9416 3.46809 28.9416 3.44305 28.9366 3.42332C28.9317 3.40853 28.9317 3.39828 28.9268 3.38842C28.9218 3.37363 28.9218 3.35883 28.9169 3.34859C28.912 3.33379 28.9067 3.319 28.9017 3.30382C28.8968 3.29396 28.8968 3.2841 28.8919 3.27423C28.8869 3.25906 28.8771 3.24426 28.8721 3.22454C28.8672 3.21467 28.8619 3.20443 28.857 3.1995C28.8471 3.1847 28.8422 3.16991 28.8323 3.15473C28.8274 3.14487 28.8224 3.13501 28.8171 3.13007C28.8073 3.11983 28.8023 3.10504 28.7925 3.09517C28.7826 3.08531 28.7777 3.07545 28.7674 3.0652C28.7576 3.05534 28.7526 3.04548 28.7428 3.03561C28.7329 3.02537 28.7227 3.01551 28.7128 3.00071C28.7029 2.99085 28.698 2.98592 28.6882 2.98061C28.6779 2.97074 28.6631 2.95595 28.6533 2.94608C28.6434 2.94115 28.6385 2.93622 28.6282 2.92598C28.6134 2.91611 28.6036 2.90625 28.5888 2.89639C28.5785 2.89146 28.5687 2.88614 28.5588 2.88121C28.544 2.87135 28.5338 2.86642 28.519 2.85655C28.5042 2.85162 28.4943 2.84138 28.4791 2.83645C28.4693 2.83152 28.4594 2.82658 28.4442 2.82165C28.4245 2.81179 28.3995 2.80686 28.3797 2.79699C28.3748 2.79699 28.3699 2.79168 28.3649 2.79168C28.335 2.78182 28.305 2.77689 28.2754 2.76702L16.8141 0.370215C16.7891 0.365283 16.7644 0.360352 16.7443 0.360352C16.7394 0.360352 16.7345 0.360352 16.7295 0.360352C16.7147 0.360352 16.6995 0.360352 16.6848 0.360352C16.67 0.360352 16.6548 0.360352 16.6449 0.360352C16.6449 0.360352 16.6449 0.360352 16.64 0.360352C16.6252 0.360352 16.615 0.360352 16.6002 0.360352C16.5854 0.360352 16.5702 0.360352 16.5603 0.360352C16.5406 0.360352 16.5254 0.365283 16.5057 0.370215C16.4958 0.370215 16.486 0.370215 16.481 0.375147H16.4757H16.4708L7.03833 2.21998C7.0133 2.22492 6.99357 2.22985 6.96853 2.23478C6.9636 2.23478 6.95867 2.23478 6.95374 2.24009C6.93401 2.24502 6.9139 2.25489 6.89418 2.25982C6.88924 2.25982 6.88431 2.26475 6.87407 2.26475C6.85927 2.26968 6.84448 2.27954 6.83462 2.28448C6.72498 2.33948 6.63052 2.40891 6.55616 2.49844C6.55616 2.50337 6.55085 2.50337 6.55085 2.5083C6.54592 2.51854 6.54099 2.52347 6.53113 2.53334C6.4765 2.60769 6.43173 2.69229 6.40176 2.78182C6.40176 2.78675 6.39683 2.79168 6.39683 2.79168C6.3919 2.80193 6.3919 2.81179 6.38697 2.82165C6.38204 2.83645 6.37711 2.85655 6.37217 2.87135V2.88614C6.36686 2.91118 6.36193 2.93091 6.36193 2.95595V2.96581C6.36193 2.99085 6.357 3.01551 6.357 3.04055V9.624L3.07021 10.2704C3.04555 10.2754 3.02051 10.2803 2.99585 10.2902C2.99092 10.2902 2.99092 10.2902 2.98599 10.2951C2.96095 10.3 2.94122 10.3103 2.91618 10.3201C2.91125 10.3201 2.90632 10.3251 2.90139 10.3251C2.88622 10.33 2.87142 10.3399 2.85662 10.3448C2.75723 10.3945 2.6677 10.4643 2.59297 10.5439C2.58804 10.5489 2.5831 10.5587 2.57324 10.5637C2.56831 10.5686 2.563 10.5785 2.55807 10.5887C2.49358 10.6729 2.44388 10.7723 2.41391 10.877C2.40898 10.8968 2.40405 10.9116 2.39911 10.9317V10.9415C2.39418 10.9666 2.38925 10.9912 2.38925 11.0163V11.0212C2.38432 11.0458 2.38432 11.0758 2.38432 11.1009V34.6699H2.36914C1.90177 34.6699 1.52393 35.0477 1.52393 35.5151C1.52393 35.9825 1.90177 36.3603 2.36914 36.3603H33.7947C34.2621 36.3603 34.64 35.9825 34.64 35.5151C34.635 35.0428 34.2572 34.6649 33.7898 34.6649ZM16.3566 11.215C16.4211 11.2401 16.4958 11.2549 16.5653 11.2598L32.0842 14.5166V17.341L12.6821 13.2685V10.4442L16.3566 11.215ZM32.0842 21.7367L12.6821 17.6642V14.6908L32.0842 18.7632V21.7367ZM32.0842 23.1589V26.1023L12.6821 22.0599V19.0864L32.0842 23.1589ZM12.6821 23.4817L32.0842 27.5295V30.503L12.6821 26.4605V23.4817ZM32.0842 31.9252V34.6649H12.6821V27.8774L32.0842 31.9252ZM17.4803 9.72339V2.23478L27.261 4.2784V11.7769L17.4803 9.72339ZM8.03757 3.73667L15.7898 2.21998V9.3702L12.0106 8.57961C12.0008 8.57961 11.986 8.57468 11.9757 8.57468C11.9659 8.57468 11.9511 8.56975 11.9412 8.56975C11.9211 8.56482 11.9014 8.56482 11.8813 8.56482C11.8714 8.56482 11.8615 8.56482 11.8517 8.56482C11.8266 8.56482 11.802 8.56482 11.7769 8.56482C11.772 8.56482 11.7671 8.56482 11.7622 8.56482C11.7322 8.56975 11.6973 8.56975 11.6677 8.57961L8.03757 9.29092V3.73667ZM4.06983 11.7917L7.23219 11.1703C7.31679 11.1653 7.40138 11.1505 7.47574 11.1206L10.9913 10.4294V13.2636L5.29782 14.4423C4.91998 14.5216 4.68136 14.8895 4.75609 15.2625C4.82551 15.5906 5.11383 15.8194 5.43705 15.8194C5.48181 15.8194 5.53151 15.8144 5.57627 15.8046L10.9864 14.6858V17.6593L5.29289 18.8376C4.91504 18.9172 4.67643 19.2852 4.75116 19.6581C4.82058 19.9863 5.1089 20.215 5.43211 20.215C5.47688 20.215 5.52658 20.2101 5.57134 20.2002L10.9814 19.0815V22.0599L5.28796 23.2382C4.91011 23.3178 4.67149 23.6858 4.74623 24.0587C4.81565 24.3869 5.10397 24.6156 5.42718 24.6156C5.47195 24.6156 5.52164 24.6107 5.56641 24.6008L10.9765 23.4817V26.4555L5.28303 27.6338C4.90518 27.7135 4.66656 28.0815 4.74092 28.4544C4.81072 28.7825 5.09903 29.0113 5.42225 29.0113C5.46702 29.0113 5.51671 29.0064 5.56148 28.9961L10.9913 27.8774V34.6649H4.06983V11.7917Z" fill="#006400"/>
<path d="M25.5056 6.93866L19.5387 5.71029C19.1608 5.631 18.7928 5.87455 18.7185 6.25239C18.6388 6.63024 18.8824 6.99822 19.2602 7.07296L25.2272 8.30095C25.2769 8.31081 25.3216 8.31612 25.3664 8.31612C25.6896 8.31612 25.9779 8.08737 26.0477 7.75922C26.127 7.38593 25.8835 7.01833 25.5056 6.93866Z" fill="#006400"/>
</g>
<defs>
<clipPath id="clip0_242_2732">
<rect width="36" height="36" fill="white" transform="translate(0.000366211 0.360352)"/>
</clipPath>
</defs>
</svg>
