<svg width="36" height="37" viewBox="0 0 36 37" fill="none" xmlns="http://www.w3.org/2000/svg">
<g clip-path="url(#clip0_242_2740)">
<path d="M6.64258 32.8242C6.79098 32.9449 6.96959 33.0038 7.14705 33.0038C7.37933 33.0038 7.60975 32.9031 7.76775 32.7089C8.04659 32.3664 7.99497 31.8626 7.65249 31.5838C5.28976 29.6603 3.54612 27.1689 2.55238 24.3845C5.56061 24.9933 8.65316 25.4204 11.7996 25.6624C11.9461 27.1066 12.1399 28.4949 12.3786 29.8012C12.458 30.2356 12.8745 30.5232 13.3091 30.4442C13.7436 30.3648 14.0314 29.9482 13.9521 29.5137C13.7357 28.3297 13.5573 27.0749 13.4188 25.7703C14.7204 25.8438 16.0309 25.8859 17.3473 25.8963C17.3494 25.8963 17.3516 25.8963 17.3538 25.8963C17.7926 25.8963 18.1499 25.5423 18.1533 25.1028C18.1568 24.6611 17.8016 24.3002 17.36 24.2968C15.9887 24.2859 14.6244 24.2401 13.27 24.1595C13.1346 22.4466 13.065 20.6659 13.065 18.8604C13.065 17.3665 13.112 15.9002 13.2023 14.4837C14.7781 14.5893 16.3775 14.6421 17.9977 14.6421C19.61 14.6421 21.2104 14.5885 22.7916 14.4818C22.8662 15.6387 22.9116 16.8274 22.9257 18.035C22.9309 18.4735 23.2878 18.8254 23.7252 18.8254C23.7283 18.8254 23.7315 18.8254 23.7347 18.8254C24.1764 18.8202 24.5302 18.458 24.5251 18.0164C24.5106 16.7738 24.4633 15.5495 24.3854 14.3558C26.1642 14.1942 27.9151 13.9646 29.6278 13.6677C30.063 13.5922 30.3547 13.1783 30.2793 12.7431C30.2038 12.3079 29.7898 12.0159 29.3547 12.0916C27.691 12.38 25.99 12.6034 24.2614 12.7609C23.9205 8.9886 23.2675 5.60395 22.376 3.05052C25.7205 3.96997 28.7058 5.93949 30.9117 8.75418C31.1843 9.10189 31.6869 9.16276 32.0346 8.8904C32.3822 8.61795 32.4432 8.11526 32.1707 7.76764C28.7318 3.37984 23.566 0.863281 17.9975 0.863281C16.9103 0.863281 15.8445 0.960318 14.8099 1.14595C14.786 1.14924 14.7622 1.1535 14.7388 1.15892C8.82467 2.24517 3.91205 6.23185 1.53696 11.5849C1.51226 11.6291 1.49137 11.6763 1.47511 11.726C0.526604 13.9145 0.000366211 16.3274 0.000366211 18.8604C0.000366211 24.2982 2.4214 29.3878 6.64258 32.8242ZM15.4783 2.65597C16.2998 2.52881 17.1409 2.46279 17.9975 2.46279C18.849 2.46279 19.6905 2.52739 20.5156 2.65384C21.545 5.14249 22.2967 8.76182 22.6684 12.8869C21.1281 12.9906 19.5688 13.0425 17.9976 13.0425C16.4184 13.0425 14.8592 12.9911 13.3242 12.8887C13.6929 8.76582 14.4411 5.16115 15.4783 2.65597ZM13.6159 3.05718C12.7201 5.61852 12.0702 8.99224 11.7317 12.7634C8.84999 12.5017 6.05867 12.0568 3.38128 11.4314C5.449 7.38011 9.15319 4.29609 13.6159 3.05718ZM1.59987 18.8604C1.59987 16.7656 1.99495 14.7607 2.7142 12.9173C5.56274 13.5989 8.53675 14.0804 11.6088 14.3583C11.5143 15.818 11.4654 17.3262 11.4654 18.8604C11.4654 20.6234 11.5302 22.365 11.6569 24.0467C8.37671 23.7831 5.15886 23.314 2.03823 22.6432C1.74925 21.4177 1.59987 20.1499 1.59987 18.8604ZM29.5977 2.68894C30.9154 2.39161 32.6881 2.23975 33.6533 3.20478C34.7813 4.33279 34.6119 6.87005 33.1886 10.1661C31.7301 13.5433 29.0859 17.4602 25.7055 21.2613C25.0985 20.8157 24.3498 20.5523 23.5409 20.5523C21.5195 20.5523 19.8749 22.1969 19.8749 24.2183C19.8749 26.2397 21.5195 27.8843 23.5409 27.8843C25.5623 27.8843 27.2069 26.2397 27.2069 24.2183C27.2069 23.588 27.047 22.9942 26.7655 22.4756C30.3212 18.5027 33.1134 14.3747 34.657 10.8002C36.404 6.75489 36.448 3.73724 34.7844 2.07366C33.9676 1.25676 32.3435 0.429726 29.2459 1.12862C28.815 1.22584 28.5445 1.65397 28.6418 2.08477C28.739 2.51557 29.167 2.78633 29.5977 2.68894ZM23.5408 26.2848C22.4014 26.2848 21.4744 25.3578 21.4744 24.2183C21.4744 23.0788 22.4014 22.1518 23.5408 22.1518C24.6803 22.1518 25.6073 23.0788 25.6073 24.2183C25.6073 25.3578 24.6803 26.2848 23.5408 26.2848ZM19.7982 29.1908C16.0312 32.3093 12.184 34.6968 8.96498 35.9138C7.29909 36.5436 5.8247 36.8579 4.57229 36.8579C3.15219 36.8579 2.01743 36.4539 1.21075 35.6472C0.397666 34.8341 -0.427591 33.2189 0.258331 30.1416C0.354479 29.7106 0.781992 29.4389 1.21297 29.5351C1.64413 29.6311 1.91569 30.0585 1.81963 30.4896C1.52825 31.7968 1.38234 33.5566 2.34187 34.5162C3.36724 35.5416 5.51857 35.5066 8.39937 34.4175C11.4577 33.2615 15.1436 30.9676 18.7781 27.9587C19.1183 27.677 19.6225 27.7245 19.9042 28.0647C20.1859 28.4049 20.1384 28.9091 19.7982 29.1908ZM35.6348 15.263C35.8736 16.4408 35.9949 17.6512 35.9949 18.8604C35.9949 20.4588 35.7853 22.0096 35.3924 23.4861C35.3867 23.513 35.3795 23.5395 35.3711 23.5655C33.5752 30.1892 28.0825 35.3089 21.2551 36.5623C21.2324 36.5675 21.2095 36.5716 21.1864 36.5748C20.1512 36.7606 19.0855 36.8577 17.9977 36.8577C16.6874 36.8577 15.3792 36.716 14.1094 36.4364C13.6781 36.3414 13.4054 35.9147 13.5004 35.4833C13.5953 35.0519 14.0223 34.7792 14.4534 34.8743C15.6105 35.1291 16.8029 35.2582 17.9977 35.2582C18.8543 35.2582 19.6952 35.1922 20.5165 35.0651C21.0572 33.7541 21.5391 32.073 21.9184 30.1693C22.0048 29.7362 22.4259 29.4551 22.859 29.5414C23.2922 29.6276 23.5734 30.0488 23.487 30.482C23.1736 32.0548 22.8028 33.4547 22.3797 34.6639C27.5186 33.2372 31.6506 29.3653 33.4378 24.3855C32.1992 24.6359 30.9408 24.8568 29.6812 25.0446C29.244 25.1096 28.8374 24.8084 28.7722 24.3715C28.7071 23.9346 29.0084 23.5277 29.4452 23.4625C30.9619 23.2364 32.4766 22.9613 33.955 22.6438C34.243 21.4288 34.3954 20.1624 34.3954 18.8606C34.3954 17.7578 34.2851 16.6545 34.0674 15.5811C33.9796 15.1483 34.2593 14.7262 34.6922 14.6384C35.1246 14.5505 35.547 14.8301 35.6348 15.263Z" fill="#006400"/>
</g>
<defs>
<clipPath id="clip0_242_2740">
<rect width="36" height="36" fill="white" transform="translate(0.000366211 0.860352)"/>
</clipPath>
</defs>
</svg>
