<svg width="37" height="37" viewBox="0 0 37 37" fill="none" xmlns="http://www.w3.org/2000/svg">
<path d="M33.6283 26.4045V17.0614L33.8949 16.9061C34.4608 16.5776 34.7983 15.9915 34.7983 15.3379C34.7983 14.6842 34.4608 14.097 33.8949 13.7685L20.2183 5.82374C19.0674 5.15324 17.6353 5.15437 16.4844 5.82374L2.80667 13.7696C2.24192 14.0981 1.90442 14.6842 1.90442 15.3379C1.90442 15.9915 2.24192 16.5776 2.80667 16.9072L6.95342 19.317V24.9184C6.95342 26.2189 7.65317 27.4282 8.77817 28.0774L14.4864 31.368C15.6778 32.0542 17.0143 32.3985 18.3508 32.3985C19.6873 32.3985 21.0227 32.0554 22.2152 31.368L27.9223 28.0774C29.0484 27.4294 29.7482 26.2189 29.7482 24.9184V19.3159L31.6033 18.2381V26.4045C31.1274 26.7285 30.8147 27.2741 30.8147 27.894C30.8147 28.8885 31.6213 29.6951 32.6158 29.6951C33.6103 29.6951 34.4169 28.8885 34.4169 27.894C34.4169 27.2752 34.1042 26.7296 33.6283 26.4045ZM27.7243 24.9172H27.7232C27.7232 25.4955 27.4138 26.0332 26.912 26.3212L21.2049 29.6119C19.4454 30.6255 17.2573 30.6255 15.4989 29.6119L9.79067 26.3212C9.29004 26.0332 8.97954 25.4955 8.97954 24.9172V20.4926L16.4844 24.8531C17.0604 25.1872 17.7062 25.3549 18.3519 25.3549C18.9977 25.3549 19.6434 25.1884 20.2194 24.8531L27.7243 20.4926V24.9172ZM19.2013 23.1026C18.677 23.4075 18.0257 23.4075 17.5014 23.1026L4.13754 15.3379L17.5003 7.57312C18.0245 7.26824 18.6759 7.26824 19.2002 7.57312L32.564 15.3367L19.2013 23.1026Z" fill="#006400"/>
</svg>
