<svg width="61" height="61" viewBox="0 0 61 61" fill="none" xmlns="http://www.w3.org/2000/svg">
<path d="M52.881 48.5673H52.5278C52.9322 48.1931 53.2978 47.7486 53.6147 47.2342C54.437 45.8996 54.9279 44.0985 54.9279 42.4162C54.9279 39.161 52.2796 36.5127 49.0243 36.5127C45.7691 36.5127 43.1241 39.161 43.1241 42.4162C43.1241 44.7193 43.9469 47.1125 45.5151 48.5674H45.1677C42.9227 48.5674 40.9509 49.6835 39.8462 51.3553C38.7415 49.6836 36.7697 48.5674 34.5247 48.5674H34.1692C34.5734 48.1931 34.9389 47.7486 35.2557 47.2341C36.0777 45.8994 36.5684 44.0984 36.5684 42.4162C36.5684 39.161 33.9216 36.5127 30.6681 36.5127C27.4146 36.5127 24.7645 39.161 24.7645 42.4162C24.7645 44.7193 25.5879 47.1125 27.157 48.5674H26.8116C24.5653 48.5674 22.5923 49.6836 21.487 51.3555C20.3823 49.6836 18.4105 48.5674 16.1653 48.5674H15.8177C17.3859 47.1125 18.2088 44.7193 18.2088 42.4162C18.2088 39.161 15.562 36.5127 12.3085 36.5127C9.05507 36.5127 6.40511 39.161 6.40511 42.4162C6.40511 44.0986 6.89589 45.8996 7.7182 47.2342C8.03519 47.7486 8.40081 48.1931 8.80523 48.5673H8.45202C4.99898 48.5673 2.18976 51.2037 2.18976 54.4443V58.0351C2.18976 58.5529 2.60952 58.9726 3.12726 58.9726C3.64499 58.9726 4.06476 58.5529 4.06476 58.0351V54.4443C4.06476 52.2375 6.0328 50.4423 8.45202 50.4423H16.1652C18.5825 50.4423 20.5491 52.2376 20.5491 54.4443V58.0351C20.5491 58.5529 20.9688 58.9726 21.4866 58.9726C22.0043 58.9726 22.4241 58.5529 22.4241 58.0351V54.4443C22.4241 52.2375 24.3922 50.4423 26.8113 50.4423H34.5244C36.9417 50.4423 38.9084 52.2376 38.9084 54.4443V58.0351C38.9084 58.5529 39.3281 58.9726 39.8459 58.9726C40.3636 58.9726 40.7834 58.5529 40.7834 58.0351V54.4443C40.7834 52.2375 42.75 50.4423 45.1673 50.4423H52.8804C55.2996 50.4423 57.2676 52.2376 57.2676 54.4443V58.0351C57.2676 58.5529 57.6874 58.9726 58.2051 58.9726C58.7229 58.9726 59.1426 58.5529 59.1426 58.0351V54.4443C59.1426 51.2037 56.3333 48.5673 52.8804 48.5673H52.881ZM44.9992 42.4161C44.9992 40.1948 46.8049 38.3876 49.0244 38.3876C51.244 38.3876 53.053 40.1947 53.053 42.4161C53.053 44.6043 51.9593 48.0757 49.0244 48.0757C46.248 48.0757 44.9992 44.7662 44.9992 42.4161ZM26.6398 42.4161C26.6398 40.1948 28.447 38.3876 30.6683 38.3876C32.8896 38.3876 34.6936 40.1947 34.6936 42.4161C34.6936 44.6043 33.6008 48.0757 30.6683 48.0757C27.8896 48.0757 26.6398 44.7662 26.6398 42.4161ZM8.28046 42.4161C8.28046 40.1948 10.0876 38.3876 12.3089 38.3876C14.5302 38.3876 16.3342 40.1947 16.3342 42.4161C16.3342 44.7661 15.0854 48.0757 12.3089 48.0757C9.37417 48.0757 8.28046 44.6043 8.28046 42.4161Z" fill="#006400"/>
<path d="M13.4911 30.8059C14.2588 31.5778 15.1999 31.9692 16.2885 31.9692C17.366 31.9692 18.334 31.5663 19.086 30.8057L21.6358 28.2396V35.5792C21.6358 36.0969 22.0555 36.5167 22.5733 36.5167C23.091 36.5167 23.5108 36.0969 23.5108 35.5792V25.9661C23.5108 25.5864 23.2817 25.2441 22.9307 25.0993C22.5796 24.9546 22.1759 25.0359 21.9082 25.3052L17.7543 29.4857C17.3495 29.8951 16.87 30.0942 16.2885 30.0942C15.707 30.0942 15.2291 29.8945 14.8213 29.4845L8.06838 22.6785C7.68389 22.2906 7.47319 21.7729 7.47518 21.2208C7.47741 20.6688 7.69186 20.1532 8.07928 19.7691C8.46717 19.3845 8.98327 19.173 9.53346 19.173H9.54038C10.0923 19.1748 10.6078 19.3893 10.9921 19.7767L15.626 24.4504C15.8019 24.6279 16.0416 24.7277 16.2915 24.7277H16.2918C16.5416 24.7277 16.7812 24.628 16.9572 24.4507L21.0067 20.3713C22.4134 18.9529 24.1396 18.2337 26.1375 18.2337H27.5769C27.5133 18.7763 27.5846 19.3509 27.7689 19.7019C27.7708 19.7054 27.7726 19.7089 27.7745 19.7125C27.9264 19.9927 28.1307 20.2457 28.3728 20.4573L26.9499 30.4645C26.9104 30.7421 26.9972 31.0229 27.1867 31.2298L29.8275 34.113C30.0051 34.3069 30.2557 34.4173 30.5185 34.4174H30.5188C30.7814 34.4174 31.0322 34.3071 31.2098 34.1135L33.8539 31.2302C34.0435 31.0234 34.1305 30.7425 34.0909 30.4647L32.668 20.4574C32.9117 20.2443 33.1158 19.9897 33.2652 19.7086C33.4539 19.356 33.5274 18.7782 33.4637 18.2339H34.9034C36.9013 18.2339 38.6275 18.9531 40.0343 20.3715L44.0801 24.4506C44.2561 24.6281 44.4958 24.728 44.7458 24.7279C44.9958 24.7279 45.2355 24.6279 45.4115 24.4505L50.0445 19.7777C50.4304 19.3896 50.9471 19.1749 51.4995 19.1732H51.5065C52.0561 19.1732 52.5712 19.3843 52.9582 19.7692C53.3466 20.1543 53.5615 20.6706 53.5636 21.223C53.5656 21.7743 53.3548 22.2908 52.9695 22.6784L46.2151 29.4858C45.8101 29.8954 45.3306 30.0943 44.7491 30.0943C44.1676 30.0943 43.6899 29.8946 43.2818 29.4844L39.1329 25.3056C38.8654 25.0362 38.4615 24.9547 38.1105 25.0993C37.7592 25.2441 37.5301 25.5864 37.5301 25.9661V35.5792C37.5301 36.0969 37.9499 36.5167 38.4676 36.5167C38.9854 36.5167 39.4051 36.0969 39.4051 35.5792V28.2409L41.9517 30.8058C42.7193 31.5778 43.6605 31.9692 44.749 31.9692C45.8376 31.9692 46.7836 31.5772 47.5471 30.8051L54.2996 23.9995C55.0377 23.2571 55.4421 22.2687 55.4385 21.2161C55.4347 20.1623 55.0226 19.1756 54.2792 18.4385C53.5392 17.7027 52.555 17.2979 51.5066 17.2979C51.5022 17.2979 51.4977 17.2979 51.4934 17.2979C50.4405 17.3013 49.4537 17.7124 48.7139 18.4564L44.7456 22.4589L41.3656 19.0511C39.5938 17.2645 37.4195 16.3588 34.9033 16.3588H34.168C34.7421 15.8888 35.2556 15.2952 35.6973 14.5786C36.6338 13.0594 37.1929 11.0068 37.1929 9.08824C37.1929 5.40809 34.1989 2.41406 30.5187 2.41406C26.8385 2.41406 23.8445 5.40809 23.8445 9.08824C23.8445 11.8607 24.8906 14.7473 26.8774 16.3588H26.1373C23.621 16.3588 21.4469 17.2645 19.6753 19.0507L16.2919 22.4591L12.3233 18.4564C11.586 17.7128 10.5999 17.3013 9.54647 17.2979C8.4919 17.2915 7.50354 17.6992 6.75905 18.4375C6.01573 19.1745 5.60417 20.1604 5.60006 21.2135C5.5962 22.2661 5.99979 23.2552 6.73702 23.9987L13.4909 30.8058L13.4911 30.8059ZM31.5795 18.308C31.6172 18.4429 31.6269 18.7259 31.5965 18.8522C31.5188 18.9844 31.3924 19.0998 31.2457 19.1716C30.8812 19.3504 30.6729 19.7434 30.7302 20.1455L32.1726 30.2897L30.5195 32.0924L28.8687 30.29L30.3112 20.1455C30.3683 19.7434 30.1602 19.3502 29.7955 19.1716C29.651 19.1009 29.5245 18.9864 29.4433 18.8539C29.4135 18.7247 29.4233 18.4425 29.4608 18.306C29.5303 18.2473 29.631 18.2339 29.7086 18.2339H31.3295C31.3821 18.2339 31.5019 18.2414 31.5797 18.3081L31.5795 18.308ZM25.7196 9.08824C25.7196 6.44191 27.8725 4.28906 30.5188 4.28906C33.1651 4.28906 35.318 6.44191 35.318 9.08824C35.318 11.6719 34.0151 15.7709 30.5188 15.7709C27.0225 15.7709 25.7196 11.6719 25.7196 9.08824Z" fill="#006400"/>
<path d="M42.4141 14.3938H43.0444V16.7415C43.0444 17.1023 43.2515 17.4312 43.5768 17.587C43.7058 17.6488 43.8441 17.6791 43.9818 17.679C44.1916 17.679 44.3996 17.6086 44.5694 17.4722L48.3979 14.3938H53.1302C54.5648 14.3938 55.7318 13.2267 55.7318 11.7921V5.01574C55.7318 3.58113 54.5648 2.41406 53.1302 2.41406H42.4142C40.9796 2.41406 39.8125 3.58113 39.8125 5.01574V11.7921C39.8125 13.2267 40.9796 14.3938 42.4142 14.3938H42.4141ZM41.6874 5.01574C41.6874 4.61508 42.0134 4.28906 42.4141 4.28906H53.13C53.5307 4.28906 53.8567 4.61508 53.8567 5.01574V11.7921C53.8567 12.1928 53.5307 12.5188 53.13 12.5188H48.0677C47.854 12.5188 47.6467 12.5918 47.4802 12.7256L44.9193 14.7847V13.4563C44.9193 12.9386 44.4995 12.5188 43.9818 12.5188H42.4139C42.0133 12.5188 41.6873 12.1928 41.6873 11.7921V5.01574H41.6874Z" fill="#006400"/>
<path d="M44.2576 10.8701H51.2864C51.8041 10.8701 52.2239 10.4504 52.2239 9.93262C52.2239 9.41488 51.8041 8.99512 51.2864 8.99512H44.2576C43.7398 8.99512 43.3201 9.41488 43.3201 9.93262C43.3201 10.4504 43.7398 10.8701 44.2576 10.8701Z" fill="#006400"/>
<path d="M46.6493 7.81348H51.2864C51.8041 7.81348 52.2239 7.39371 52.2239 6.87598C52.2239 6.35824 51.8041 5.93848 51.2864 5.93848H46.6493C46.1316 5.93848 45.7118 6.35824 45.7118 6.87598C45.7118 7.39371 46.1316 7.81348 46.6493 7.81348Z" fill="#006400"/>
<path d="M44.2586 7.81348C44.7765 7.81348 45.1961 7.39371 45.1961 6.87598C45.1961 6.35824 44.7765 5.93848 44.2586 5.93848H44.2575C43.7397 5.93848 43.3206 6.35824 43.3206 6.87598C43.3206 7.39371 43.7409 7.81348 44.2586 7.81348Z" fill="#006400"/>
</svg>
