<svg width="60" height="61" viewBox="0 0 60 61" fill="none" xmlns="http://www.w3.org/2000/svg">
<path d="M55.7868 26.8529C55.5572 20.3082 52.9068 14.1882 48.2531 9.53441C43.3753 4.65566 36.8925 1.96973 30 1.96973C16.079 1.96973 4.70435 13.05 4.21403 26.8529C2.08966 27.7969 0.602783 29.9232 0.602783 32.3944V39.2025C0.602783 42.5457 3.32247 45.2663 6.66653 45.2663C8.83028 45.2663 10.59 43.5066 10.59 41.3429V30.2532C10.59 28.2216 9.03185 26.565 7.05091 26.3682C7.78216 14.3429 17.7928 4.78223 30 4.78223C36.1425 4.78223 41.9184 7.1766 46.2656 11.5238C50.2575 15.5157 52.5937 20.7188 52.9453 26.3691C50.9662 26.5679 49.4109 28.2235 49.4109 30.2532V41.3419C49.4109 43.3904 50.9934 45.0572 52.9978 45.2307V48.0329C52.9978 51.1885 50.43 53.7554 47.2743 53.7554H43.0359C42.8278 53.161 42.5015 52.6116 42.044 52.156C41.2425 51.3507 40.1737 50.9072 39.0356 50.9072H34.6668C34.0397 50.9072 33.4378 51.0404 32.8865 51.2972C31.3828 51.9882 30.4115 53.505 30.4115 55.1616C30.4115 56.2997 30.855 57.3685 31.6584 58.1682C32.4618 58.9735 33.5306 59.4169 34.6668 59.4169H39.0356C40.8468 59.4169 42.4434 58.246 43.0387 56.5679H47.2743C51.9815 56.5679 55.8103 52.7391 55.8103 48.0329V44.73C57.9215 43.7803 59.3972 41.6616 59.3972 39.2007V32.3925C59.3972 29.9232 57.9103 27.7969 55.7868 26.8529ZM7.77653 30.2532V41.3419C7.77653 41.9541 7.27872 42.4529 6.6656 42.4529C4.8731 42.4529 3.41435 40.9941 3.41435 39.2016V32.3935C3.41435 30.6 4.8731 29.1422 6.6656 29.1422C7.27872 29.1422 7.77653 29.641 7.77653 30.2532ZM40.4465 55.4635C40.3068 56.1254 39.7125 56.6063 39.0347 56.6063H34.6659C34.2815 56.6063 33.9206 56.4563 33.645 56.1807C33.3731 55.9097 33.2231 55.5479 33.2231 55.1635C33.2231 54.6019 33.5522 54.0891 34.0678 53.8519C34.2515 53.7657 34.4531 53.7216 34.6659 53.7216H39.0347C39.419 53.7216 39.78 53.8707 40.0547 54.1463C40.3265 54.4172 40.4765 54.7791 40.4765 55.1635C40.4775 55.2666 40.4662 55.3697 40.4465 55.4635ZM56.5847 39.2016C56.5847 40.9941 55.1259 42.4529 53.3334 42.4529C52.7212 42.4529 52.2225 41.955 52.2225 41.3419V30.2532C52.2225 29.641 52.7203 29.1422 53.3334 29.1422C55.1259 29.1422 56.5847 30.601 56.5847 32.3935V39.2016Z" fill="#006400"/>
<path d="M39.1059 39.686C42.3919 39.686 45.0647 37.0123 45.0647 33.7273V21.5857C45.0647 19.9976 44.4441 18.5013 43.3172 17.3745C42.1903 16.2476 40.695 15.627 39.1059 15.627H20.8941C17.6081 15.627 14.9353 18.2998 14.9353 21.5857V33.7273C14.9353 37.0132 17.6081 39.686 20.8941 39.686H21.0056V42.8323C21.0056 44.0323 21.7209 45.0973 22.8272 45.5463C23.1844 45.6898 23.5556 45.761 23.9231 45.761C24.6891 45.761 25.4353 45.4573 25.9819 44.892L31.2159 39.686H39.1059ZM29.6456 37.2823L23.9812 42.9157C23.9559 42.942 23.9372 42.9616 23.8837 42.9382C23.8191 42.912 23.8191 42.8698 23.8191 42.8323V38.2798C23.8191 37.5035 23.19 36.8735 22.4128 36.8735H20.895C19.1597 36.8735 17.7487 35.4616 17.7487 33.7273V21.5857C17.7487 19.8504 19.1597 18.4395 20.895 18.4395H39.1069C39.945 18.4395 40.7334 18.7676 41.3297 19.3629C41.9259 19.9591 42.2531 20.7485 42.2531 21.5857V33.7273C42.2531 35.4626 40.8412 36.8735 39.1069 36.8735H30.6375C30.2653 36.8735 29.9091 37.0207 29.6456 37.2823Z" fill="#006400"/>
<path d="M23.1684 25.8066C22.0247 25.8066 21.0938 26.7385 21.0938 27.8813C21.0938 29.0241 22.0256 29.956 23.1684 29.956C24.3131 29.956 25.245 29.0241 25.245 27.8813C25.245 26.7385 24.3141 25.8066 23.1684 25.8066Z" fill="#006400"/>
<path d="M29.999 25.8066C28.8553 25.8066 27.9243 26.7385 27.9243 27.8813C27.9243 29.0241 28.8562 29.956 29.999 29.956C31.1446 29.956 32.0756 29.0241 32.0756 27.8813C32.0756 26.7385 31.1446 25.8066 29.999 25.8066Z" fill="#006400"/>
<path d="M36.8297 25.8066C35.6859 25.8066 34.755 26.7385 34.755 27.8813C34.755 29.0241 35.6869 29.956 36.8297 29.956C37.9744 29.956 38.9063 29.0241 38.9063 27.8813C38.9063 26.7385 37.9744 25.8066 36.8297 25.8066Z" fill="#006400"/>
</svg>
