<svg width="61" height="61" viewBox="0 0 61 61" fill="none" xmlns="http://www.w3.org/2000/svg">
<g clip-path="url(#clip0_242_2628)">
<path d="M10.9908 30.8486C10.7422 30.8486 10.5037 30.9474 10.3279 31.1232C10.1521 31.299 10.0533 31.5375 10.0533 31.7861V45.2036C10.0533 45.4523 10.1521 45.6907 10.3279 45.8665C10.5037 46.0424 10.7422 46.1411 10.9908 46.1411H32.8546C33.1032 46.1411 33.3417 46.0424 33.5175 45.8665C33.6933 45.6907 33.7921 45.4523 33.7921 45.2036V31.7861C33.7921 31.5375 33.6933 31.299 33.5175 31.1232C33.3417 30.9474 33.1032 30.8486 32.8546 30.8486H10.9908ZM31.9171 44.2661H11.9283V32.7236H31.9171V44.2661Z" fill="#006400"/>
<path d="M6.32463 25.6221C7.55926 25.7474 8.80422 25.5222 9.91674 24.9724C11.0293 24.4225 11.9643 23.5703 12.6146 22.5134C13.1708 23.5902 14.007 24.4971 15.0352 25.1387C16.0634 25.7802 17.2456 26.1327 18.4572 26.1589C19.6689 26.1852 20.8652 25.8842 21.9202 25.2877C22.9752 24.6913 23.8499 23.8214 24.4521 22.7696C24.7175 23.2266 25.0342 23.6518 25.3959 24.0371C26.0314 24.708 26.797 25.2423 27.6459 25.6075C28.4948 25.9726 29.4093 26.161 30.3334 26.161C31.2575 26.161 32.1719 25.9726 33.0208 25.6075C33.8697 25.2423 34.6353 24.708 35.2709 24.0371C35.6326 23.6518 35.9492 23.2266 36.2146 22.7696C36.8191 23.8185 37.6946 24.6855 38.7494 25.2798C39.8041 25.8741 40.9993 26.1738 42.2096 26.1475C43.42 26.1211 44.601 25.7698 45.6289 25.1302C46.6568 24.4906 47.4938 23.5863 48.0521 22.5121C48.8934 23.8677 50.1946 24.8752 51.7177 25.35C53.2409 25.8249 54.8841 25.7355 56.3467 25.0981C57.8093 24.4607 58.9935 23.318 59.6827 21.8791C60.3718 20.4402 60.5198 18.8012 60.0996 17.2621L56.9584 5.67461V1.63086C56.9584 1.38222 56.8596 1.14376 56.6838 0.967947C56.508 0.792131 56.2695 0.693359 56.0209 0.693359H4.64212C4.39413 0.694351 4.15664 0.793561 3.98163 0.969269C3.80663 1.14498 3.70837 1.38287 3.70837 1.63086V5.68336L0.567124 17.2659C0.31433 18.198 0.267644 19.174 0.430316 20.126C0.592988 21.078 0.961112 21.9831 1.50908 22.7784C2.05705 23.5737 2.7717 24.2401 3.60333 24.7312C4.43495 25.2223 5.36359 25.5263 6.32463 25.6221ZM18.6184 24.2859C17.9093 24.286 17.2086 24.132 16.5649 23.8346C15.9212 23.5371 15.3499 23.1033 14.8905 22.5631C14.4311 22.023 14.0946 21.3895 13.9043 20.7064C13.714 20.0233 13.6744 19.307 13.7884 18.6071L15.7171 6.73836H24.2084L23.5446 18.9884L23.5084 19.6521C23.4412 20.9036 22.8967 22.0816 21.987 22.9437C21.0773 23.8057 19.8716 24.2861 18.6184 24.2859ZM33.9096 22.7484C33.2164 23.4823 32.3145 23.9855 31.3259 24.1899C30.3373 24.3943 29.3097 24.2901 28.3823 23.8913C27.4549 23.4925 26.6724 22.8184 26.1407 21.9603C25.609 21.1021 25.3538 20.1013 25.4096 19.0934L25.4484 18.3721L26.0734 6.73836H34.5734L35.1984 18.3721L35.2371 19.0934C35.2781 19.761 35.1814 20.43 34.953 21.0588C34.7247 21.6875 34.3695 22.2626 33.9096 22.7484ZM45.7759 22.5634C45.1413 23.3087 44.2978 23.8467 43.3544 24.1078C42.4109 24.369 41.4109 24.3412 40.4834 24.0282C39.5559 23.7152 38.7435 23.1312 38.1512 22.3518C37.559 21.5724 37.214 20.6333 37.1609 19.6559L37.1246 18.9921L36.4609 6.74211H44.9496L46.8784 18.6109C46.993 19.311 46.9538 20.0277 46.7634 20.7111C46.573 21.3946 46.236 22.0283 45.7759 22.5684V22.5634ZM57.6121 21.7146C57.0714 22.4993 56.3083 23.1042 55.4209 23.4515C54.5336 23.7989 53.5626 23.8728 52.6329 23.6638C51.7031 23.4547 50.8572 22.9723 50.204 22.2786C49.5507 21.5848 49.1199 20.7114 48.9671 19.7709L46.8484 6.73836H55.3059L58.2896 17.7559C58.4716 18.4253 58.5052 19.1263 58.3882 19.8101C58.2712 20.4938 58.0063 21.1438 57.6121 21.7146ZM5.58337 2.56836H55.0834V4.86336H5.58337V2.56836ZM2.37712 17.7559L5.36087 6.73836H13.8184L12.5121 14.7734L11.9371 18.3059L11.6996 19.7696C11.5954 20.4088 11.3623 21.0201 11.0144 21.5663C10.6665 22.1126 10.2112 22.5823 9.67601 22.9471C9.14087 23.3118 8.53712 23.5638 7.9015 23.6879C7.26587 23.8119 6.61166 23.8054 5.97865 23.6687C5.34563 23.5319 4.74705 23.2679 4.2193 22.8925C3.69155 22.5172 3.24567 22.0384 2.90878 21.4853C2.57189 20.9322 2.35103 20.3164 2.25963 19.6752C2.16823 19.0341 2.20821 18.3811 2.37712 17.7559Z" fill="#006400"/>
<path d="M59.3959 54.6063H56.9584V27.7051C56.9584 27.4564 56.8596 27.218 56.6838 27.0422C56.508 26.8664 56.2695 26.7676 56.0209 26.7676C55.7722 26.7676 55.5338 26.8664 55.358 27.0422C55.1821 27.218 55.0834 27.4564 55.0834 27.7051V54.6063H51.9396V31.7863C51.9396 31.5377 51.8409 31.2992 51.665 31.1234C51.4892 30.9476 51.2508 30.8488 51.0021 30.8488H38.8509C38.6022 30.8488 38.3638 30.9476 38.188 31.1234C38.0121 31.2992 37.9134 31.5377 37.9134 31.7863V54.6063H5.58337V27.7151C5.58337 27.4664 5.4846 27.228 5.30879 27.0522C5.13297 26.8764 4.89451 26.7776 4.64587 26.7776C4.39723 26.7776 4.15878 26.8764 3.98296 27.0522C3.80715 27.228 3.70837 27.4664 3.70837 27.7151V54.6063H1.27087C1.02223 54.6063 0.783777 54.7051 0.607961 54.8809C0.432146 55.0567 0.333374 55.2952 0.333374 55.5438L0.333374 59.7563C0.333374 60.005 0.432146 60.2434 0.607961 60.4192C0.783777 60.5951 1.02223 60.6938 1.27087 60.6938H59.3959C59.6445 60.6938 59.883 60.5951 60.0588 60.4192C60.2346 60.2434 60.3334 60.005 60.3334 59.7563V55.5438C60.3334 55.2952 60.2346 55.0567 60.0588 54.8809C59.883 54.7051 59.6445 54.6063 59.3959 54.6063ZM39.7884 32.7238H50.0646V54.6063H39.7884V32.7238ZM58.4584 58.8188H2.20837V56.4813H58.4584V58.8188Z" fill="#006400"/>
</g>
<defs>
<clipPath id="clip0_242_2628">
<rect width="60" height="60" fill="white" transform="translate(0.333374 0.693359)"/>
</clipPath>
</defs>
</svg>
