<svg width="61" height="61" viewBox="0 0 61 61" fill="none" xmlns="http://www.w3.org/2000/svg">
<path d="M55.6023 43.2676V27.6957L56.0467 27.437C56.9898 26.8895 57.5523 25.9126 57.5523 24.8232C57.5523 23.7338 56.9898 22.7551 56.0467 22.2076L33.2523 8.96633C31.3342 7.84883 28.9473 7.8507 27.0292 8.96633L4.23294 22.2095C3.29169 22.757 2.72919 23.7338 2.72919 24.8232C2.72919 25.9126 3.29169 26.8895 4.23294 27.4388L11.1442 31.4551V40.7907C11.1442 42.9582 12.3104 44.9738 14.1854 46.0557L23.6992 51.5401C25.6848 52.6838 27.9123 53.2576 30.1398 53.2576C32.3673 53.2576 34.5929 52.6857 36.5804 51.5401L46.0923 46.0557C47.9692 44.9757 49.1354 42.9582 49.1354 40.7907V31.4532L52.2273 29.657V43.2676C51.4342 43.8076 50.9129 44.717 50.9129 45.7501C50.9129 47.4076 52.2573 48.752 53.9148 48.752C55.5723 48.752 56.9167 47.4076 56.9167 45.7501C56.9167 44.7188 56.3954 43.8095 55.6023 43.2676ZM45.7623 40.7888H45.7604C45.7604 41.7526 45.2448 42.6488 44.4086 43.1288L34.8967 48.6132C31.9642 50.3026 28.3173 50.3026 25.3867 48.6132L15.8729 43.1288C15.0386 42.6488 14.5211 41.7526 14.5211 40.7888V33.4145L27.0292 40.682C27.9892 41.2388 29.0654 41.5182 30.1417 41.5182C31.2179 41.5182 32.2942 41.2407 33.2542 40.682L45.7623 33.4145V40.7888ZM31.5573 37.7645C30.6836 38.2726 29.5979 38.2726 28.7242 37.7645L6.45106 24.8232L28.7223 11.882C29.5961 11.3738 30.6817 11.3738 31.5554 11.882L53.8286 24.8213L31.5573 37.7645Z" fill="#006400"/>
</svg>
