<svg width="60" height="61" viewBox="0 0 60 61" fill="none" xmlns="http://www.w3.org/2000/svg">
<path d="M22.899 29.7434C22.824 29.7434 22.774 29.7434 22.699 29.7434C22.574 29.7184 22.399 29.7184 22.249 29.7434C14.999 29.5184 9.52405 23.8184 9.52405 16.7934C9.52405 9.64336 15.349 3.81836 22.499 3.81836C29.649 3.81836 35.474 9.64336 35.474 16.7934C35.449 23.8184 29.949 29.5184 22.974 29.7434C22.949 29.7434 22.924 29.7434 22.899 29.7434ZM22.499 7.56836C17.424 7.56836 13.274 11.7184 13.274 16.7934C13.274 21.7934 17.174 25.8184 22.149 25.9934C22.299 25.9684 22.624 25.9684 22.949 25.9934C27.849 25.7684 31.699 21.7434 31.724 16.7934C31.724 11.7184 27.574 7.56836 22.499 7.56836Z" fill="#006400"/>
<path d="M41.3491 30.0684C41.2741 30.0684 41.1991 30.0684 41.1241 30.0434C40.0991 30.1434 39.0491 29.4184 38.9491 28.3934C38.8491 27.3684 39.4741 26.4434 40.4991 26.3184C40.7991 26.2934 41.1241 26.2934 41.3991 26.2934C45.0491 26.0934 47.8991 23.0934 47.8991 19.4184C47.8991 15.6184 44.8241 12.5434 41.0241 12.5434C39.9991 12.5684 39.1491 11.7184 39.1491 10.6934C39.1491 9.66836 39.9991 8.81836 41.0241 8.81836C46.8741 8.81836 51.6491 13.5934 51.6491 19.4434C51.6491 25.1934 47.1491 29.8434 41.4241 30.0684C41.3991 30.0684 41.3741 30.0684 41.3491 30.0684Z" fill="#006400"/>
<path d="M22.924 57.0684C18.024 57.0684 13.099 55.8184 9.37402 53.3184C5.89902 51.0184 3.99902 47.8684 3.99902 44.4434C3.99902 41.0184 5.89902 37.8434 9.37402 35.5184C16.874 30.5434 29.024 30.5434 36.474 35.5184C39.924 37.8184 41.849 40.9684 41.849 44.3934C41.849 47.8184 39.949 50.9934 36.474 53.3184C32.724 55.8184 27.824 57.0684 22.924 57.0684ZM11.449 38.6684C9.04902 40.2684 7.74902 42.3184 7.74902 44.4684C7.74902 46.5934 9.07402 48.6434 11.449 50.2184C17.674 54.3934 28.174 54.3934 34.399 50.2184C36.799 48.6184 38.099 46.5684 38.099 44.4184C38.099 42.2934 36.774 40.2434 34.399 38.6684C28.174 34.5184 17.674 34.5184 11.449 38.6684Z" fill="#006400"/>
<path d="M45.8491 52.5684C44.9741 52.5684 44.1991 51.9684 44.0241 51.0684C43.8241 50.0434 44.4741 49.0684 45.4741 48.8434C47.0491 48.5184 48.4991 47.8934 49.6241 47.0184C51.0491 45.9434 51.8241 44.5934 51.8241 43.1684C51.8241 41.7434 51.0491 40.3934 49.6491 39.3434C48.5491 38.4934 47.1741 37.8934 45.5491 37.5184C44.5491 37.2934 43.8991 36.2934 44.1241 35.2684C44.3491 34.2684 45.3491 33.6184 46.3741 33.8434C48.5241 34.3184 50.3991 35.1684 51.9241 36.3434C54.2491 38.0934 55.5741 40.5684 55.5741 43.1684C55.5741 45.7684 54.2241 48.2434 51.8991 50.0184C50.3491 51.2184 48.3991 52.0934 46.2491 52.5184C46.0991 52.5684 45.9741 52.5684 45.8491 52.5684Z" fill="#006400"/>
</svg>
