<svg width="61" height="61" viewBox="0 0 61 61" fill="none" xmlns="http://www.w3.org/2000/svg">
<g clip-path="url(#clip0_242_2600)">
<path d="M60.3334 18.8281C60.3334 15.9204 57.9677 13.5547 55.0599 13.5547H45.6849V9.77223C45.6849 6.72078 43.2024 4.23828 40.1511 4.23828H20.5158C17.4643 4.23828 14.9818 6.72078 14.9818 9.77223V13.5547H5.60681C2.69904 13.5547 0.333374 15.9204 0.333374 18.8281V27.1481C0.333374 28.6985 0.838218 30.632 2.67712 32.5285V51.875C2.67712 54.7828 5.04279 57.1484 7.95056 57.1484H52.7162C55.624 57.1484 57.9896 54.7828 57.9896 51.875V32.5285C59.8277 30.633 60.3334 28.7001 60.3334 27.1481V18.8281ZM18.4974 9.77223C18.4974 8.6593 19.4028 7.75391 20.5158 7.75391H40.1512C41.264 7.75391 42.1694 8.6593 42.1694 9.77223V13.5547H18.4974V9.77223ZM3.849 18.8281C3.849 17.8589 4.63755 17.0703 5.60681 17.0703H55.0599C56.0292 17.0703 56.8177 17.8589 56.8177 18.8281V27.1481C56.8177 31.4732 48.5199 35.0028 36.4271 35.9275V34.2969C36.4271 33.3261 35.6401 32.5391 34.6693 32.5391H25.9974C25.0267 32.5391 24.2396 33.3261 24.2396 34.2969V35.927C12.1577 35.0011 3.849 31.4622 3.849 27.1481V18.8281ZM32.9115 36.0547V38.3398C32.9115 39.5998 31.8863 40.625 30.6263 40.625H30.0404C28.7804 40.625 27.7552 39.5998 27.7552 38.3398V36.0547H32.9115ZM52.7162 53.6328H7.95056C6.9813 53.6328 6.19275 52.8443 6.19275 51.875V35.1084C11.4268 37.7905 16.9274 38.8246 24.3493 39.4605C24.873 42.1244 27.2253 44.1406 30.0404 44.1406H30.6263C33.4417 44.1406 35.7941 42.1242 36.3176 39.46C42.4485 39.016 47.9831 37.8907 52.0243 36.2554C52.9331 35.8877 53.746 35.5036 54.474 35.108V51.875C54.474 52.8443 53.6854 53.6328 52.7162 53.6328Z" fill="#006400"/>
</g>
<defs>
<clipPath id="clip0_242_2600">
<rect width="60" height="60" fill="white" transform="translate(0.333374 0.693359)"/>
</clipPath>
</defs>
</svg>
