<svg width="37" height="37" viewBox="0 0 37 37" fill="none" xmlns="http://www.w3.org/2000/svg">
<g clip-path="url(#clip0_242_1312)">
<path d="M22.1301 14.0527C21.742 14.0527 21.427 14.3677 21.427 14.7559C21.427 15.144 21.742 15.459 22.1301 15.459C22.5183 15.459 22.8333 15.144 22.8333 14.7559C22.8333 14.3677 22.5183 14.0527 22.1301 14.0527Z" fill="#006400"/>
<path d="M35.5093 31.8924L26.1239 22.507C27.6529 20.204 28.4583 17.5371 28.4583 14.7559C28.4583 7.0018 22.1498 0.693359 14.3958 0.693359C6.64169 0.693359 0.333252 7.0018 0.333252 14.7559C0.333252 22.5099 6.64169 28.8184 14.3958 28.8184C17.177 28.8184 19.844 28.0129 22.1469 26.4841L24.7411 29.0783C24.7415 29.0787 24.7418 29.079 24.7422 29.0794L31.5322 35.8694C32.0636 36.4007 32.7697 36.6934 33.5208 36.6934C34.2718 36.6934 34.9779 36.4007 35.509 35.8696C36.0405 35.3385 36.3333 34.6323 36.3333 33.8809C36.3333 33.1294 36.0405 32.4232 35.5093 31.8924ZM21.8163 25.0023L21.8161 25.0024C19.6458 26.5788 17.0799 27.4121 14.3958 27.4121C7.4171 27.4121 1.7395 21.7345 1.7395 14.7559C1.7395 7.7772 7.4171 2.09961 14.3958 2.09961C21.3744 2.09961 27.052 7.7772 27.052 14.7559C27.052 17.44 26.2187 20.0059 24.6423 22.1763C23.8536 23.2628 22.9028 24.2137 21.8163 25.0023ZM23.2914 25.6397C24.0191 25.0444 24.6844 24.3792 25.2796 23.6515L27.2745 25.6464C26.6678 26.3623 26.0022 27.028 25.2862 27.6346L23.2914 25.6397ZM34.5149 34.875C34.2491 35.1408 33.8961 35.2871 33.5208 35.2871C33.1454 35.2871 32.7924 35.1408 32.5266 34.875L26.2832 28.6316C26.9953 28.0205 27.6604 27.3554 28.2714 26.6434L34.515 32.887C34.7807 33.1524 34.927 33.5052 34.927 33.8809C34.927 34.2565 34.7807 34.6094 34.5149 34.875Z" fill="#006400"/>
<path d="M14.3958 3.50586C8.19243 3.50586 3.14575 8.55254 3.14575 14.7559C3.14575 20.9592 8.19243 26.0059 14.3958 26.0059C20.5991 26.0059 25.6458 20.9592 25.6458 14.7559C25.6458 8.55254 20.5991 3.50586 14.3958 3.50586ZM14.3958 24.5996C8.96791 24.5996 4.552 20.1837 4.552 14.7559C4.552 9.32802 8.96791 4.91211 14.3958 4.91211C19.8236 4.91211 24.2395 9.32802 24.2395 14.7559C24.2395 20.1837 19.8236 24.5996 14.3958 24.5996Z" fill="#006400"/>
<path d="M22.2753 11.7376C21.6699 10.1617 20.6157 8.81438 19.2266 7.84133C17.8044 6.845 16.1339 6.31836 14.3958 6.31836C14.0075 6.31836 13.6926 6.63322 13.6926 7.02148C13.6926 7.40975 14.0075 7.72461 14.3958 7.72461C17.2855 7.72461 19.9245 9.53994 20.9627 12.242C21.0701 12.5215 21.3365 12.6931 21.6192 12.6931C21.703 12.6931 21.7883 12.678 21.8712 12.6461C22.2336 12.5068 22.4146 12.1001 22.2753 11.7376Z" fill="#006400"/>
</g>
<defs>
<clipPath id="clip0_242_1312">
<rect width="36" height="36" fill="white" transform="translate(0.333252 0.693359)"/>
</clipPath>
</defs>
</svg>
