<svg width="36" height="37" viewBox="0 0 36 37" fill="none" xmlns="http://www.w3.org/2000/svg">
<g clip-path="url(#clip0_242_1330)">
<path d="M15.7501 19.4434C15.7501 18.2029 14.7406 17.1934 13.5001 17.1934C12.2596 17.1934 11.2501 18.2029 11.2501 19.4434C11.2501 20.6839 12.2596 21.6934 13.5001 21.6934C14.7406 21.6934 15.7501 20.6839 15.7501 19.4434ZM13.5001 20.1934C13.0869 20.1934 12.7501 19.8574 12.7501 19.4434C12.7501 19.0294 13.0869 18.6934 13.5001 18.6934C13.9134 18.6934 14.2501 19.0301 14.2501 19.4434C14.2501 19.8566 13.9134 20.1934 13.5001 20.1934Z" fill="#006400"/>
<path d="M22.5001 17.1934C21.2596 17.1934 20.2501 18.2029 20.2501 19.4434C20.2501 20.6839 21.2596 21.6934 22.5001 21.6934C23.7406 21.6934 24.7501 20.6839 24.7501 19.4434C24.7501 18.2029 23.7406 17.1934 22.5001 17.1934ZM22.5001 20.1934C22.0869 20.1934 21.7501 19.8574 21.7501 19.4434C21.7501 19.0294 22.0869 18.6934 22.5001 18.6934C22.9134 18.6934 23.2501 19.0301 23.2501 19.4434C23.2501 19.8566 22.9134 20.1934 22.5001 20.1934Z" fill="#006400"/>
<path d="M21.4074 26.1258C19.2962 27.211 16.7042 27.211 14.5929 26.1258C14.2239 25.936 13.7724 26.0815 13.5827 26.4505C13.3929 26.8195 13.5384 27.271 13.9074 27.4608C15.1592 28.1035 16.5744 28.444 18.0002 28.444C19.4259 28.444 20.8412 28.1043 22.0929 27.4608C22.4612 27.271 22.6067 26.8195 22.4177 26.4505C22.2287 26.0815 21.7764 25.936 21.4074 26.1258Z" fill="#006400"/>
<path d="M33.7501 17.1934H31.5001V14.9434C31.5001 12.8756 29.8179 11.1934 27.7501 11.1934H18.7501V8.08686C20.0401 7.75161 21.0001 6.58686 21.0001 5.19336C21.0001 3.53886 19.6546 2.19336 18.0001 2.19336C16.3456 2.19336 15.0001 3.53886 15.0001 5.19336C15.0001 6.58686 15.9601 7.75161 17.2501 8.08686V11.1934H8.25012C6.18237 11.1934 4.50012 12.8756 4.50012 14.9434V17.1934H2.25012C1.00962 17.1934 0.00012207 18.2029 0.00012207 19.4434V26.1934C0.00012207 27.4339 1.00962 28.4434 2.25012 28.4434H4.50012V30.6934C4.50012 32.7611 6.18237 34.4434 8.25012 34.4434H27.7501C29.8179 34.4434 31.5001 32.7611 31.5001 30.6934V28.4434H33.7501C34.9906 28.4434 36.0001 27.4339 36.0001 26.1934V19.4434C36.0001 18.2029 34.9906 17.1934 33.7501 17.1934ZM16.5001 5.19336C16.5001 4.36611 17.1729 3.69336 18.0001 3.69336C18.8274 3.69336 19.5001 4.36611 19.5001 5.19336C19.5001 6.02061 18.8274 6.69336 18.0001 6.69336C17.1729 6.69336 16.5001 6.02061 16.5001 5.19336ZM2.25012 26.9434C1.83687 26.9434 1.50012 26.6074 1.50012 26.1934V19.4434C1.50012 19.0301 1.83687 18.6934 2.25012 18.6934H4.50012V26.9434H2.25012ZM30.0001 30.6934C30.0001 31.9339 28.9906 32.9434 27.7501 32.9434H8.25012C7.00962 32.9434 6.00012 31.9339 6.00012 30.6934V14.9434C6.00012 13.7029 7.00962 12.6934 8.25012 12.6934H27.7501C28.9906 12.6934 30.0001 13.7029 30.0001 14.9434V30.6934ZM34.5001 26.1934C34.5001 26.6074 34.1634 26.9434 33.7501 26.9434H31.5001V18.6934H33.7501C34.1634 18.6934 34.5001 19.0301 34.5001 19.4434V26.1934Z" fill="#006400"/>
</g>
<defs>
<clipPath id="clip0_242_1330">
<rect width="36" height="36" fill="white" transform="translate(0.00012207 0.693359)"/>
</clipPath>
</defs>
</svg>
