<svg width="36" height="37" viewBox="0 0 36 37" fill="none" xmlns="http://www.w3.org/2000/svg">
<g clip-path="url(#clip0_242_1358)">
<path d="M18.0275 7.95264C12.9322 7.95264 8.76941 12.1154 8.76941 17.2107C8.76941 19.8749 9.935 22.4392 11.8998 24.171C13.3652 25.6363 13.2319 28.7667 13.1986 28.8C13.1986 28.9665 13.2319 29.0997 13.3652 29.2329C13.4651 29.3328 13.6316 29.3994 13.7648 29.3994H22.2569C22.4234 29.3994 22.5566 29.3328 22.6565 29.2329C22.7565 29.133 22.8231 28.9665 22.8231 28.8C22.8231 28.7667 22.6566 25.6363 24.1219 24.171C24.1552 24.1377 24.1885 24.1043 24.2218 24.071C26.1533 22.306 27.2856 19.8083 27.2856 17.2107C27.2856 12.1154 23.1228 7.95264 18.0275 7.95264ZM23.3559 23.3051C23.3226 23.3384 23.256 23.405 23.256 23.4383C21.9572 24.837 21.7241 27.1349 21.6908 28.2339H14.3309C14.2976 27.1349 14.0645 24.7371 12.6658 23.3051C10.9008 21.7732 9.86839 19.5419 9.86839 17.1774C9.86839 12.6816 13.4984 9.05162 17.9942 9.05162C22.49 9.05162 26.12 12.6816 26.12 17.1774C26.12 19.5419 25.1209 21.7732 23.3559 23.3051Z" fill="#006400"/>
<path d="M17.9942 10.3174C17.6945 10.3174 17.4281 10.5838 17.4281 10.8835C17.4281 11.1832 17.6945 11.4497 17.9942 11.4497C21.3578 11.4497 24.0553 14.1805 24.0553 17.5107C24.0553 17.8104 24.3217 18.0769 24.6214 18.0769C24.9212 18.0769 25.1876 17.8104 25.1876 17.5107C25.2209 13.5477 21.9905 10.3174 17.9942 10.3174Z" fill="#006400"/>
<path d="M21.6908 30.0322H14.2976C13.5317 30.0322 12.8989 30.665 12.8989 31.4309C12.8989 32.1969 13.5317 32.8296 14.2976 32.8296H21.6575C22.4567 32.7963 23.0895 32.1969 23.0895 31.4309C23.0895 30.665 22.4567 30.0322 21.6908 30.0322ZM21.6908 31.664H14.2976C14.1644 31.664 14.0312 31.5641 14.0312 31.3976C14.0312 31.2311 14.1311 31.1312 14.2976 31.1312H21.6575C21.7907 31.1312 21.9239 31.2311 21.9239 31.3976C21.9239 31.5641 21.824 31.664 21.6908 31.664Z" fill="#006400"/>
<path d="M20.5918 33.396H15.3966C14.6307 33.396 13.9979 34.0287 13.9979 34.7947C13.9979 35.5607 14.6307 36.1934 15.3966 36.1934H20.5918C21.3578 36.1934 21.9905 35.5607 21.9905 34.7947C21.9905 33.9954 21.3578 33.396 20.5918 33.396ZM20.5918 35.0278H15.3966C15.2634 35.0278 15.1302 34.9279 15.1302 34.7614C15.1302 34.5949 15.2301 34.495 15.3966 34.495H20.5918C20.725 34.495 20.8582 34.5949 20.8582 34.7614C20.8582 34.9279 20.725 35.0278 20.5918 35.0278Z" fill="#006400"/>
<path d="M17.9942 5.18873C18.3273 5.18873 18.5604 4.92231 18.5604 4.62259V0.759502C18.5604 0.459779 18.294 0.193359 17.9942 0.193359C17.6945 0.193359 17.4281 0.459779 17.4281 0.759502V4.62259C17.4281 4.92231 17.6945 5.18873 17.9942 5.18873Z" fill="#006400"/>
<path d="M27.4189 3.05733C27.1525 2.85752 26.8194 2.95742 26.6529 3.19054L24.5216 6.38758C24.3218 6.654 24.3884 7.02033 24.6548 7.18684C24.7547 7.25345 24.8546 7.28675 24.9545 7.28675C25.1543 7.28675 25.3208 7.18684 25.4207 7.02033L27.5521 3.82329C27.7519 3.59017 27.6853 3.22384 27.4189 3.05733Z" fill="#006400"/>
<path d="M11.2338 7.15341C11.3337 7.15341 11.4336 7.1201 11.5335 7.0535C11.8 6.88699 11.8666 6.52066 11.7 6.25424L9.63529 3.0239C9.46878 2.75748 9.10245 2.69087 8.83603 2.85738C8.56961 3.0239 8.503 3.39022 8.66952 3.65664L10.7343 6.88699C10.8675 7.0868 11.034 7.15341 11.2338 7.15341Z" fill="#006400"/>
<path d="M7.20423 10.6838L3.84068 8.8522C3.57426 8.71899 3.20793 8.8189 3.07472 9.08532C2.90821 9.35174 3.00812 9.71807 3.30784 9.85128L6.67139 11.6829C6.7713 11.7162 6.8379 11.7495 6.93781 11.7495C7.13763 11.7495 7.33744 11.6496 7.43735 11.4498C7.57056 11.1834 7.47065 10.8171 7.20423 10.6838Z" fill="#006400"/>
<path d="M32.9471 9.08532C32.8139 8.8189 32.4476 8.71899 32.1812 8.8522L28.7843 10.6838C28.5179 10.8171 28.418 11.1834 28.5512 11.4498C28.6511 11.6496 28.8509 11.7495 29.0507 11.7495C29.1506 11.7495 29.2505 11.7162 29.3171 11.6829L32.714 9.85128C32.9804 9.71807 33.0803 9.35174 32.9471 9.08532Z" fill="#006400"/>
</g>
<defs>
<clipPath id="clip0_242_1358">
<rect width="36" height="36" fill="white" transform="translate(0.00012207 0.193359)"/>
</clipPath>
</defs>
</svg>
