<svg width="37" height="37" viewBox="0 0 37 37" fill="none" xmlns="http://www.w3.org/2000/svg">
<g clip-path="url(#clip0_242_1376)">
<mask id="path-1-outside-1_242_1376" maskUnits="userSpaceOnUse" x="1.68982" y="-0.524414" width="34" height="37" fill="black">
<rect fill="white" x="1.68982" y="-0.524414" width="34" height="37"/>
<path d="M29.9642 29.4908C27.2399 32.2157 23.7049 33.8348 19.9035 34.1238L21.3185 35.1481C21.5071 35.2845 21.5492 35.5481 21.4128 35.7367C21.3304 35.8506 21.2016 35.9111 21.071 35.9111C20.9853 35.9111 20.8989 35.885 20.8241 35.8309L18.4204 34.0909C18.417 34.0885 18.414 34.0857 18.4108 34.0832C18.405 34.0788 18.3993 34.0743 18.3937 34.0695C18.3886 34.0651 18.3838 34.0606 18.3789 34.056C18.3739 34.0513 18.3689 34.0465 18.3641 34.0415C18.3595 34.0366 18.355 34.0317 18.3505 34.0266C18.3459 34.0213 18.3414 34.016 18.3371 34.0106C18.3331 34.0055 18.3293 34.0003 18.3255 33.9951C18.3212 33.9891 18.3171 33.9831 18.313 33.9769C18.3098 33.9718 18.3067 33.9666 18.3036 33.9614C18.2997 33.9547 18.2959 33.9478 18.2923 33.9409C18.2898 33.9359 18.2873 33.9308 18.285 33.9257C18.2815 33.9182 18.2783 33.9107 18.2753 33.903C18.2733 33.898 18.2715 33.8929 18.2697 33.8878C18.2669 33.88 18.2644 33.872 18.2621 33.864C18.2606 33.8586 18.2593 33.8531 18.2579 33.8476C18.2561 33.8398 18.2543 33.832 18.2529 33.824C18.2524 33.8213 18.2517 33.8187 18.2512 33.816C18.2507 33.8124 18.2505 33.8088 18.25 33.8052C18.2491 33.7979 18.2482 33.7908 18.2477 33.7834C18.247 33.7761 18.2467 33.7687 18.2465 33.7614C18.2464 33.7574 18.2459 33.7535 18.2459 33.7495C18.2459 33.7469 18.2462 33.7444 18.2463 33.7418C18.2465 33.7342 18.247 33.7267 18.2474 33.7191C18.2479 33.7124 18.2484 33.7056 18.2492 33.699C18.25 33.6924 18.2511 33.6858 18.2522 33.6792C18.2535 33.6718 18.2547 33.6645 18.2564 33.6572C18.2576 33.6515 18.2593 33.6459 18.2607 33.6402C18.2628 33.6324 18.265 33.6246 18.2675 33.6169C18.2692 33.6118 18.2711 33.6068 18.2731 33.6017C18.2761 33.5939 18.2789 33.5861 18.2823 33.5786C18.2846 33.5736 18.2871 33.5686 18.2896 33.5637C18.2931 33.5564 18.2967 33.5492 18.3007 33.5422C18.3036 33.5371 18.3068 33.532 18.31 33.5269C18.314 33.5204 18.3181 33.514 18.3225 33.5078C18.3237 33.5059 18.3248 33.504 18.3261 33.5021L20.0681 31.0984C20.2047 30.91 20.4683 30.8679 20.6568 31.0045C20.8454 31.1411 20.8874 31.4046 20.7508 31.5932L19.5109 33.3041C27.4642 32.8649 33.8001 26.2554 33.8001 18.1933C33.8001 11.9245 29.861 6.23121 23.9981 4.02621C23.7802 3.9443 23.6699 3.70116 23.7519 3.48326C23.8338 3.26536 24.0771 3.15497 24.2949 3.2371C27.3039 4.36878 29.8772 6.362 31.7365 9.00139C33.6381 11.7007 34.6432 14.8792 34.6432 18.1933C34.6432 22.4606 32.9816 26.4728 29.9642 29.4908ZM13.337 32.3624C7.4729 30.1549 3.53287 24.4608 3.53287 18.1933C3.53287 10.1322 9.8695 3.52376 17.8237 3.08452L16.5844 4.79332C16.4477 4.98176 16.4897 5.24536 16.6781 5.38205C16.7529 5.43626 16.8395 5.46242 16.9253 5.46242C17.0557 5.46242 17.1844 5.40202 17.2669 5.28825L19.0089 2.88652C19.0101 2.8849 19.011 2.88307 19.0122 2.88139C19.0169 2.87471 19.0214 2.86775 19.0257 2.86078C19.0285 2.85614 19.0315 2.8515 19.0342 2.84679C19.0383 2.83948 19.0421 2.83196 19.0458 2.82429C19.0481 2.81965 19.0505 2.81501 19.0526 2.8103C19.056 2.8025 19.0591 2.79455 19.0621 2.78653C19.0639 2.78161 19.0658 2.77683 19.0674 2.77184C19.07 2.76403 19.0722 2.75609 19.0743 2.74814C19.0758 2.74259 19.0773 2.7371 19.0786 2.73155C19.0802 2.72417 19.0816 2.71671 19.0828 2.70919C19.084 2.70265 19.085 2.69618 19.0858 2.68964C19.0866 2.68289 19.0871 2.67607 19.0876 2.66925C19.0882 2.6618 19.0886 2.65435 19.0887 2.64689C19.0887 2.64422 19.0892 2.64169 19.0892 2.63902C19.0892 2.63501 19.0887 2.63121 19.0885 2.62728C19.0883 2.61989 19.088 2.61251 19.0874 2.60506C19.0868 2.59782 19.086 2.59071 19.0851 2.58361C19.0846 2.57996 19.0844 2.5763 19.0839 2.57264C19.0835 2.56983 19.0826 2.56716 19.0821 2.56442C19.0807 2.55661 19.079 2.54888 19.0772 2.54121C19.0759 2.53559 19.0745 2.5301 19.0729 2.52455C19.0707 2.51653 19.0681 2.50859 19.0654 2.50078C19.0636 2.49572 19.0618 2.49066 19.0598 2.48567C19.0568 2.47786 19.0534 2.4702 19.05 2.4626C19.0477 2.45768 19.0454 2.45283 19.043 2.44798C19.0393 2.44074 19.0354 2.43371 19.0313 2.42675C19.0284 2.42182 19.0255 2.4169 19.0224 2.41205C19.0182 2.40558 19.0139 2.39925 19.0094 2.393C19.0058 2.388 19.0022 2.38315 18.9984 2.37837C18.9938 2.3726 18.9891 2.36698 18.9842 2.3615C18.98 2.35671 18.9758 2.35193 18.9714 2.34736C18.9663 2.34216 18.9611 2.3371 18.9558 2.33218C18.9512 2.32782 18.9466 2.32346 18.9417 2.31931C18.936 2.31439 18.9301 2.30982 18.9241 2.30518C18.921 2.30278 18.9181 2.30004 18.9149 2.29772L16.5111 0.5558C16.3226 0.419253 16.059 0.46123 15.9224 0.649808C15.7858 0.838316 15.8279 1.10185 16.0164 1.23846L17.4325 2.26475C13.6305 2.55345 10.0949 4.17225 7.36996 6.89679C4.35194 9.91425 2.68982 13.9261 2.68982 18.1933C2.68982 21.5071 3.69529 24.6857 5.59745 27.3854C7.45715 30.0248 10.0307 32.0187 13.04 33.1515C13.089 33.1699 13.1392 33.1786 13.1885 33.1786C13.359 33.1786 13.5194 33.0745 13.5831 32.9055C13.6651 32.6876 13.5549 32.4445 13.337 32.3624ZM18.6676 6.79772C24.9511 6.79772 30.0632 11.9097 30.0632 18.1933C30.0632 24.4768 24.9511 29.5889 18.6676 29.5889C12.384 29.5889 7.27194 24.4768 7.27194 18.1933C7.27194 11.9097 12.384 6.79772 18.6676 6.79772ZM26.8796 24.8122C26.6339 21.9045 23.6057 20.4083 20.7718 19.9661C20.1318 20.2647 19.4191 20.4326 18.6676 20.4326C17.916 20.4326 17.2033 20.2647 16.5633 19.9661C13.7294 20.4084 10.7012 21.9046 10.4555 24.8122C12.3915 27.2096 15.3533 28.7459 18.6676 28.7459C21.9818 28.7459 24.9436 27.2096 26.8796 24.8122ZM22.8182 15.4388C22.8182 13.1491 20.9563 11.2862 18.6676 11.2862C16.3788 11.2862 14.5169 13.149 14.5169 15.4388C14.5169 17.7286 16.3788 19.5895 18.6676 19.5895C20.9563 19.5895 22.8182 17.7276 22.8182 15.4388ZM18.6676 7.64084C12.8489 7.64084 8.11499 12.3747 8.11499 18.1933C8.11499 20.2771 8.72228 22.2217 9.76888 23.8596C10.0723 22.7254 10.7713 21.7256 11.8292 20.9281C12.8091 20.1895 14.0691 19.6377 15.515 19.3083C14.3922 18.3918 13.6737 16.9979 13.6737 15.4388C13.6737 12.6842 15.9138 10.4431 18.6674 10.4431C21.421 10.4431 23.6612 12.6842 23.6612 15.4388C23.6612 16.9978 22.9427 18.3918 21.8199 19.3083C23.2658 19.6377 24.5258 20.1895 25.5056 20.9281C26.5637 21.7257 27.2626 22.7254 27.566 23.8596C28.6126 22.2217 29.2199 20.2771 29.2199 18.1933C29.2199 12.3747 24.4863 7.64084 18.6676 7.64084Z"/>
</mask>
<path d="M29.9642 29.4908C27.2399 32.2157 23.7049 33.8348 19.9035 34.1238L21.3185 35.1481C21.5071 35.2845 21.5492 35.5481 21.4128 35.7367C21.3304 35.8506 21.2016 35.9111 21.071 35.9111C20.9853 35.9111 20.8989 35.885 20.8241 35.8309L18.4204 34.0909C18.417 34.0885 18.414 34.0857 18.4108 34.0832C18.405 34.0788 18.3993 34.0743 18.3937 34.0695C18.3886 34.0651 18.3838 34.0606 18.3789 34.056C18.3739 34.0513 18.3689 34.0465 18.3641 34.0415C18.3595 34.0366 18.355 34.0317 18.3505 34.0266C18.3459 34.0213 18.3414 34.016 18.3371 34.0106C18.3331 34.0055 18.3293 34.0003 18.3255 33.9951C18.3212 33.9891 18.3171 33.9831 18.313 33.9769C18.3098 33.9718 18.3067 33.9666 18.3036 33.9614C18.2997 33.9547 18.2959 33.9478 18.2923 33.9409C18.2898 33.9359 18.2873 33.9308 18.285 33.9257C18.2815 33.9182 18.2783 33.9107 18.2753 33.903C18.2733 33.898 18.2715 33.8929 18.2697 33.8878C18.2669 33.88 18.2644 33.872 18.2621 33.864C18.2606 33.8586 18.2593 33.8531 18.2579 33.8476C18.2561 33.8398 18.2543 33.832 18.2529 33.824C18.2524 33.8213 18.2517 33.8187 18.2512 33.816C18.2507 33.8124 18.2505 33.8088 18.25 33.8052C18.2491 33.7979 18.2482 33.7908 18.2477 33.7834C18.247 33.7761 18.2467 33.7687 18.2465 33.7614C18.2464 33.7574 18.2459 33.7535 18.2459 33.7495C18.2459 33.7469 18.2462 33.7444 18.2463 33.7418C18.2465 33.7342 18.247 33.7267 18.2474 33.7191C18.2479 33.7124 18.2484 33.7056 18.2492 33.699C18.25 33.6924 18.2511 33.6858 18.2522 33.6792C18.2535 33.6718 18.2547 33.6645 18.2564 33.6572C18.2576 33.6515 18.2593 33.6459 18.2607 33.6402C18.2628 33.6324 18.265 33.6246 18.2675 33.6169C18.2692 33.6118 18.2711 33.6068 18.2731 33.6017C18.2761 33.5939 18.2789 33.5861 18.2823 33.5786C18.2846 33.5736 18.2871 33.5686 18.2896 33.5637C18.2931 33.5564 18.2967 33.5492 18.3007 33.5422C18.3036 33.5371 18.3068 33.532 18.31 33.5269C18.314 33.5204 18.3181 33.514 18.3225 33.5078C18.3237 33.5059 18.3248 33.504 18.3261 33.5021L20.0681 31.0984C20.2047 30.91 20.4683 30.8679 20.6568 31.0045C20.8454 31.1411 20.8874 31.4046 20.7508 31.5932L19.5109 33.3041C27.4642 32.8649 33.8001 26.2554 33.8001 18.1933C33.8001 11.9245 29.861 6.23121 23.9981 4.02621C23.7802 3.9443 23.6699 3.70116 23.7519 3.48326C23.8338 3.26536 24.0771 3.15497 24.2949 3.2371C27.3039 4.36878 29.8772 6.362 31.7365 9.00139C33.6381 11.7007 34.6432 14.8792 34.6432 18.1933C34.6432 22.4606 32.9816 26.4728 29.9642 29.4908ZM13.337 32.3624C7.4729 30.1549 3.53287 24.4608 3.53287 18.1933C3.53287 10.1322 9.8695 3.52376 17.8237 3.08452L16.5844 4.79332C16.4477 4.98176 16.4897 5.24536 16.6781 5.38205C16.7529 5.43626 16.8395 5.46242 16.9253 5.46242C17.0557 5.46242 17.1844 5.40202 17.2669 5.28825L19.0089 2.88652C19.0101 2.8849 19.011 2.88307 19.0122 2.88139C19.0169 2.87471 19.0214 2.86775 19.0257 2.86078C19.0285 2.85614 19.0315 2.8515 19.0342 2.84679C19.0383 2.83948 19.0421 2.83196 19.0458 2.82429C19.0481 2.81965 19.0505 2.81501 19.0526 2.8103C19.056 2.8025 19.0591 2.79455 19.0621 2.78653C19.0639 2.78161 19.0658 2.77683 19.0674 2.77184C19.07 2.76403 19.0722 2.75609 19.0743 2.74814C19.0758 2.74259 19.0773 2.7371 19.0786 2.73155C19.0802 2.72417 19.0816 2.71671 19.0828 2.70919C19.084 2.70265 19.085 2.69618 19.0858 2.68964C19.0866 2.68289 19.0871 2.67607 19.0876 2.66925C19.0882 2.6618 19.0886 2.65435 19.0887 2.64689C19.0887 2.64422 19.0892 2.64169 19.0892 2.63902C19.0892 2.63501 19.0887 2.63121 19.0885 2.62728C19.0883 2.61989 19.088 2.61251 19.0874 2.60506C19.0868 2.59782 19.086 2.59071 19.0851 2.58361C19.0846 2.57996 19.0844 2.5763 19.0839 2.57264C19.0835 2.56983 19.0826 2.56716 19.0821 2.56442C19.0807 2.55661 19.079 2.54888 19.0772 2.54121C19.0759 2.53559 19.0745 2.5301 19.0729 2.52455C19.0707 2.51653 19.0681 2.50859 19.0654 2.50078C19.0636 2.49572 19.0618 2.49066 19.0598 2.48567C19.0568 2.47786 19.0534 2.4702 19.05 2.4626C19.0477 2.45768 19.0454 2.45283 19.043 2.44798C19.0393 2.44074 19.0354 2.43371 19.0313 2.42675C19.0284 2.42182 19.0255 2.4169 19.0224 2.41205C19.0182 2.40558 19.0139 2.39925 19.0094 2.393C19.0058 2.388 19.0022 2.38315 18.9984 2.37837C18.9938 2.3726 18.9891 2.36698 18.9842 2.3615C18.98 2.35671 18.9758 2.35193 18.9714 2.34736C18.9663 2.34216 18.9611 2.3371 18.9558 2.33218C18.9512 2.32782 18.9466 2.32346 18.9417 2.31931C18.936 2.31439 18.9301 2.30982 18.9241 2.30518C18.921 2.30278 18.9181 2.30004 18.9149 2.29772L16.5111 0.5558C16.3226 0.419253 16.059 0.46123 15.9224 0.649808C15.7858 0.838316 15.8279 1.10185 16.0164 1.23846L17.4325 2.26475C13.6305 2.55345 10.0949 4.17225 7.36996 6.89679C4.35194 9.91425 2.68982 13.9261 2.68982 18.1933C2.68982 21.5071 3.69529 24.6857 5.59745 27.3854C7.45715 30.0248 10.0307 32.0187 13.04 33.1515C13.089 33.1699 13.1392 33.1786 13.1885 33.1786C13.359 33.1786 13.5194 33.0745 13.5831 32.9055C13.6651 32.6876 13.5549 32.4445 13.337 32.3624ZM18.6676 6.79772C24.9511 6.79772 30.0632 11.9097 30.0632 18.1933C30.0632 24.4768 24.9511 29.5889 18.6676 29.5889C12.384 29.5889 7.27194 24.4768 7.27194 18.1933C7.27194 11.9097 12.384 6.79772 18.6676 6.79772ZM26.8796 24.8122C26.6339 21.9045 23.6057 20.4083 20.7718 19.9661C20.1318 20.2647 19.4191 20.4326 18.6676 20.4326C17.916 20.4326 17.2033 20.2647 16.5633 19.9661C13.7294 20.4084 10.7012 21.9046 10.4555 24.8122C12.3915 27.2096 15.3533 28.7459 18.6676 28.7459C21.9818 28.7459 24.9436 27.2096 26.8796 24.8122ZM22.8182 15.4388C22.8182 13.1491 20.9563 11.2862 18.6676 11.2862C16.3788 11.2862 14.5169 13.149 14.5169 15.4388C14.5169 17.7286 16.3788 19.5895 18.6676 19.5895C20.9563 19.5895 22.8182 17.7276 22.8182 15.4388ZM18.6676 7.64084C12.8489 7.64084 8.11499 12.3747 8.11499 18.1933C8.11499 20.2771 8.72228 22.2217 9.76888 23.8596C10.0723 22.7254 10.7713 21.7256 11.8292 20.9281C12.8091 20.1895 14.0691 19.6377 15.515 19.3083C14.3922 18.3918 13.6737 16.9979 13.6737 15.4388C13.6737 12.6842 15.9138 10.4431 18.6674 10.4431C21.421 10.4431 23.6612 12.6842 23.6612 15.4388C23.6612 16.9978 22.9427 18.3918 21.8199 19.3083C23.2658 19.6377 24.5258 20.1895 25.5056 20.9281C26.5637 21.7257 27.2626 22.7254 27.566 23.8596C28.6126 22.2217 29.2199 20.2771 29.2199 18.1933C29.2199 12.3747 24.4863 7.64084 18.6676 7.64084Z" fill="#006400"/>
<path d="M29.9642 29.4908C27.2399 32.2157 23.7049 33.8348 19.9035 34.1238L21.3185 35.1481C21.5071 35.2845 21.5492 35.5481 21.4128 35.7367C21.3304 35.8506 21.2016 35.9111 21.071 35.9111C20.9853 35.9111 20.8989 35.885 20.8241 35.8309L18.4204 34.0909C18.417 34.0885 18.414 34.0857 18.4108 34.0832C18.405 34.0788 18.3993 34.0743 18.3937 34.0695C18.3886 34.0651 18.3838 34.0606 18.3789 34.056C18.3739 34.0513 18.3689 34.0465 18.3641 34.0415C18.3595 34.0366 18.355 34.0317 18.3505 34.0266C18.3459 34.0213 18.3414 34.016 18.3371 34.0106C18.3331 34.0055 18.3293 34.0003 18.3255 33.9951C18.3212 33.9891 18.3171 33.9831 18.313 33.9769C18.3098 33.9718 18.3067 33.9666 18.3036 33.9614C18.2997 33.9547 18.2959 33.9478 18.2923 33.9409C18.2898 33.9359 18.2873 33.9308 18.285 33.9257C18.2815 33.9182 18.2783 33.9107 18.2753 33.903C18.2733 33.898 18.2715 33.8929 18.2697 33.8878C18.2669 33.88 18.2644 33.872 18.2621 33.864C18.2606 33.8586 18.2593 33.8531 18.2579 33.8476C18.2561 33.8398 18.2543 33.832 18.2529 33.824C18.2524 33.8213 18.2517 33.8187 18.2512 33.816C18.2507 33.8124 18.2505 33.8088 18.25 33.8052C18.2491 33.7979 18.2482 33.7908 18.2477 33.7834C18.247 33.7761 18.2467 33.7687 18.2465 33.7614C18.2464 33.7574 18.2459 33.7535 18.2459 33.7495C18.2459 33.7469 18.2462 33.7444 18.2463 33.7418C18.2465 33.7342 18.247 33.7267 18.2474 33.7191C18.2479 33.7124 18.2484 33.7056 18.2492 33.699C18.25 33.6924 18.2511 33.6858 18.2522 33.6792C18.2535 33.6718 18.2547 33.6645 18.2564 33.6572C18.2576 33.6515 18.2593 33.6459 18.2607 33.6402C18.2628 33.6324 18.265 33.6246 18.2675 33.6169C18.2692 33.6118 18.2711 33.6068 18.2731 33.6017C18.2761 33.5939 18.2789 33.5861 18.2823 33.5786C18.2846 33.5736 18.2871 33.5686 18.2896 33.5637C18.2931 33.5564 18.2967 33.5492 18.3007 33.5422C18.3036 33.5371 18.3068 33.532 18.31 33.5269C18.314 33.5204 18.3181 33.514 18.3225 33.5078C18.3237 33.5059 18.3248 33.504 18.3261 33.5021L20.0681 31.0984C20.2047 30.91 20.4683 30.8679 20.6568 31.0045C20.8454 31.1411 20.8874 31.4046 20.7508 31.5932L19.5109 33.3041C27.4642 32.8649 33.8001 26.2554 33.8001 18.1933C33.8001 11.9245 29.861 6.23121 23.9981 4.02621C23.7802 3.9443 23.6699 3.70116 23.7519 3.48326C23.8338 3.26536 24.0771 3.15497 24.2949 3.2371C27.3039 4.36878 29.8772 6.362 31.7365 9.00139C33.6381 11.7007 34.6432 14.8792 34.6432 18.1933C34.6432 22.4606 32.9816 26.4728 29.9642 29.4908ZM13.337 32.3624C7.4729 30.1549 3.53287 24.4608 3.53287 18.1933C3.53287 10.1322 9.8695 3.52376 17.8237 3.08452L16.5844 4.79332C16.4477 4.98176 16.4897 5.24536 16.6781 5.38205C16.7529 5.43626 16.8395 5.46242 16.9253 5.46242C17.0557 5.46242 17.1844 5.40202 17.2669 5.28825L19.0089 2.88652C19.0101 2.8849 19.011 2.88307 19.0122 2.88139C19.0169 2.87471 19.0214 2.86775 19.0257 2.86078C19.0285 2.85614 19.0315 2.8515 19.0342 2.84679C19.0383 2.83948 19.0421 2.83196 19.0458 2.82429C19.0481 2.81965 19.0505 2.81501 19.0526 2.8103C19.056 2.8025 19.0591 2.79455 19.0621 2.78653C19.0639 2.78161 19.0658 2.77683 19.0674 2.77184C19.07 2.76403 19.0722 2.75609 19.0743 2.74814C19.0758 2.74259 19.0773 2.7371 19.0786 2.73155C19.0802 2.72417 19.0816 2.71671 19.0828 2.70919C19.084 2.70265 19.085 2.69618 19.0858 2.68964C19.0866 2.68289 19.0871 2.67607 19.0876 2.66925C19.0882 2.6618 19.0886 2.65435 19.0887 2.64689C19.0887 2.64422 19.0892 2.64169 19.0892 2.63902C19.0892 2.63501 19.0887 2.63121 19.0885 2.62728C19.0883 2.61989 19.088 2.61251 19.0874 2.60506C19.0868 2.59782 19.086 2.59071 19.0851 2.58361C19.0846 2.57996 19.0844 2.5763 19.0839 2.57264C19.0835 2.56983 19.0826 2.56716 19.0821 2.56442C19.0807 2.55661 19.079 2.54888 19.0772 2.54121C19.0759 2.53559 19.0745 2.5301 19.0729 2.52455C19.0707 2.51653 19.0681 2.50859 19.0654 2.50078C19.0636 2.49572 19.0618 2.49066 19.0598 2.48567C19.0568 2.47786 19.0534 2.4702 19.05 2.4626C19.0477 2.45768 19.0454 2.45283 19.043 2.44798C19.0393 2.44074 19.0354 2.43371 19.0313 2.42675C19.0284 2.42182 19.0255 2.4169 19.0224 2.41205C19.0182 2.40558 19.0139 2.39925 19.0094 2.393C19.0058 2.388 19.0022 2.38315 18.9984 2.37837C18.9938 2.3726 18.9891 2.36698 18.9842 2.3615C18.98 2.35671 18.9758 2.35193 18.9714 2.34736C18.9663 2.34216 18.9611 2.3371 18.9558 2.33218C18.9512 2.32782 18.9466 2.32346 18.9417 2.31931C18.936 2.31439 18.9301 2.30982 18.9241 2.30518C18.921 2.30278 18.9181 2.30004 18.9149 2.29772L16.5111 0.5558C16.3226 0.419253 16.059 0.46123 15.9224 0.649808C15.7858 0.838316 15.8279 1.10185 16.0164 1.23846L17.4325 2.26475C13.6305 2.55345 10.0949 4.17225 7.36996 6.89679C4.35194 9.91425 2.68982 13.9261 2.68982 18.1933C2.68982 21.5071 3.69529 24.6857 5.59745 27.3854C7.45715 30.0248 10.0307 32.0187 13.04 33.1515C13.089 33.1699 13.1392 33.1786 13.1885 33.1786C13.359 33.1786 13.5194 33.0745 13.5831 32.9055C13.6651 32.6876 13.5549 32.4445 13.337 32.3624ZM18.6676 6.79772C24.9511 6.79772 30.0632 11.9097 30.0632 18.1933C30.0632 24.4768 24.9511 29.5889 18.6676 29.5889C12.384 29.5889 7.27194 24.4768 7.27194 18.1933C7.27194 11.9097 12.384 6.79772 18.6676 6.79772ZM26.8796 24.8122C26.6339 21.9045 23.6057 20.4083 20.7718 19.9661C20.1318 20.2647 19.4191 20.4326 18.6676 20.4326C17.916 20.4326 17.2033 20.2647 16.5633 19.9661C13.7294 20.4084 10.7012 21.9046 10.4555 24.8122C12.3915 27.2096 15.3533 28.7459 18.6676 28.7459C21.9818 28.7459 24.9436 27.2096 26.8796 24.8122ZM22.8182 15.4388C22.8182 13.1491 20.9563 11.2862 18.6676 11.2862C16.3788 11.2862 14.5169 13.149 14.5169 15.4388C14.5169 17.7286 16.3788 19.5895 18.6676 19.5895C20.9563 19.5895 22.8182 17.7276 22.8182 15.4388ZM18.6676 7.64084C12.8489 7.64084 8.11499 12.3747 8.11499 18.1933C8.11499 20.2771 8.72228 22.2217 9.76888 23.8596C10.0723 22.7254 10.7713 21.7256 11.8292 20.9281C12.8091 20.1895 14.0691 19.6377 15.515 19.3083C14.3922 18.3918 13.6737 16.9979 13.6737 15.4388C13.6737 12.6842 15.9138 10.4431 18.6674 10.4431C21.421 10.4431 23.6612 12.6842 23.6612 15.4388C23.6612 16.9978 22.9427 18.3918 21.8199 19.3083C23.2658 19.6377 24.5258 20.1895 25.5056 20.9281C26.5637 21.7257 27.2626 22.7254 27.566 23.8596C28.6126 22.2217 29.2199 20.2771 29.2199 18.1933C29.2199 12.3747 24.4863 7.64084 18.6676 7.64084Z" stroke="#006400" stroke-width="0.4" mask="url(#path-1-outside-1_242_1376)"/>
</g>
<defs>
<clipPath id="clip0_242_1376">
<rect width="36" height="36" fill="white" transform="translate(0.666626 0.193359)"/>
</clipPath>
</defs>
</svg>
