<svg width="37" height="37" viewBox="0 0 37 37" fill="none" xmlns="http://www.w3.org/2000/svg">
<g clip-path="url(#clip0_242_1383)">
<path d="M18.3336 0.193359C8.3926 0.193359 0.333618 8.25234 0.333618 18.1934C0.333618 28.1344 8.3926 36.1934 18.3336 36.1934C28.2746 36.1934 36.3336 28.1344 36.3336 18.1934C36.3225 8.25703 28.2699 0.204492 18.3336 0.193359ZM18.3336 34.9934C9.0553 34.9934 1.53362 27.4717 1.53362 18.1934C1.53362 8.91504 9.0553 1.39336 18.3336 1.39336C27.6119 1.39336 35.1336 8.91504 35.1336 18.1934C35.1231 27.4673 27.6075 34.9828 18.3336 34.9934Z" fill="#006400"/>
<path d="M18.3336 3.19336C10.0493 3.19336 3.33362 9.90908 3.33362 18.1934C3.33362 26.4776 10.0493 33.1934 18.3336 33.1934C26.6179 33.1934 33.3336 26.4776 33.3336 18.1934C33.3242 9.91289 26.6141 3.20273 18.3336 3.19336ZM18.3336 31.9934C10.712 31.9934 4.53362 25.8149 4.53362 18.1934C4.53362 10.5718 10.712 4.39336 18.3336 4.39336C25.9552 4.39336 32.1336 10.5718 32.1336 18.1934C32.1251 25.8114 25.9517 31.9849 18.3336 31.9934Z" fill="#006400"/>
<path d="M27.1705 9.35673C26.9794 9.1663 26.685 9.12675 26.4503 9.26005L15.7385 15.3734C15.7321 15.3778 15.7291 15.3849 15.7224 15.3887C15.6538 15.4475 15.5897 15.5117 15.5305 15.5806C15.5267 15.587 15.5197 15.5902 15.5156 15.5967L9.40014 26.3085C9.26625 26.5434 9.3061 26.8388 9.49711 27.0301C9.68842 27.2211 9.98373 27.2609 10.2187 27.127L20.9288 21.0137C20.9352 21.0093 20.9381 21.0022 20.9449 20.9984C21.0134 20.9395 21.0776 20.8754 21.1368 20.8065C21.1406 20.8001 21.1476 20.7969 21.1517 20.7904L27.2671 10.0804C27.4022 9.84511 27.3626 9.54833 27.1705 9.35673ZM11.5321 24.9951L16.1677 16.8767L19.6538 20.3595L11.5321 24.9951ZM20.4996 19.5137L17.0197 16.0335L25.1381 11.3978L20.4996 19.5137Z" fill="#006400"/>
<path d="M8.73364 17.5933H6.33364C6.00229 17.5933 5.73364 17.8619 5.73364 18.1933C5.73364 18.5246 6.00229 18.7933 6.33364 18.7933H8.73364C9.06499 18.7933 9.33364 18.5246 9.33364 18.1933C9.33364 17.8619 9.06499 17.5933 8.73364 17.5933Z" fill="#006400"/>
<path d="M30.3336 17.5933H27.9336C27.6023 17.5933 27.3336 17.8619 27.3336 18.1933C27.3336 18.5246 27.6023 18.7933 27.9336 18.7933H30.3336C30.665 18.7933 30.9336 18.5246 30.9336 18.1933C30.9336 17.8619 30.665 17.5933 30.3336 17.5933Z" fill="#006400"/>
<path d="M18.3336 9.19326C18.665 9.19326 18.9336 8.92461 18.9336 8.59326V6.19326C18.9336 5.86191 18.665 5.59326 18.3336 5.59326C18.0023 5.59326 17.7336 5.86191 17.7336 6.19326V8.59326C17.7336 8.92461 18.0023 9.19326 18.3336 9.19326Z" fill="#006400"/>
<path d="M18.3336 27.1934C18.0023 27.1934 17.7336 27.462 17.7336 27.7934V30.1934C17.7336 30.5247 18.0023 30.7934 18.3336 30.7934C18.665 30.7934 18.9336 30.5247 18.9336 30.1934V27.7934C18.9336 27.462 18.665 27.1934 18.3336 27.1934Z" fill="#006400"/>
</g>
<defs>
<clipPath id="clip0_242_1383">
<rect width="36" height="36" fill="white" transform="translate(0.333618 0.193359)"/>
</clipPath>
</defs>
</svg>
