<svg width="36" height="37" viewBox="0 0 36 37" fill="none" xmlns="http://www.w3.org/2000/svg">
<g clip-path="url(#clip0_242_1396)">
<path d="M15.0001 36.1934C6.75012 36.1934 0.00012207 29.4434 0.00012207 21.1934C0.00012207 12.9434 6.75012 6.19336 15.0001 6.19336C23.2501 6.19336 30.0001 12.9434 30.0001 21.1934C30.0001 29.4434 23.2501 36.1934 15.0001 36.1934ZM15.0001 7.69336C7.50012 7.69336 1.50012 13.6934 1.50012 21.1934C1.50012 28.6934 7.50012 34.6934 15.0001 34.6934C22.5001 34.6934 28.5001 28.6934 28.5001 21.1934C28.5001 13.6934 22.5001 7.69336 15.0001 7.69336Z" fill="#006400"/>
<path d="M15.0001 30.9434C9.60012 30.9434 5.25012 26.5934 5.25012 21.1934C5.25012 15.7934 9.60012 11.4434 15.0001 11.4434C20.4001 11.4434 24.7501 15.7934 24.7501 21.1934C24.7501 26.5934 20.4001 30.9434 15.0001 30.9434ZM15.0001 12.9434C10.5001 12.9434 6.75012 16.6934 6.75012 21.1934C6.75012 25.6934 10.5001 29.4434 15.0001 29.4434C19.5001 29.4434 23.2501 25.6934 23.2501 21.1934C23.2501 16.6934 19.5001 12.9434 15.0001 12.9434Z" fill="#006400"/>
<path d="M15.0001 25.6934C12.4501 25.6934 10.5001 23.7434 10.5001 21.1934C10.5001 18.6434 12.4501 16.6934 15.0001 16.6934C17.5501 16.6934 19.5001 18.6434 19.5001 21.1934C19.5001 23.7434 17.5501 25.6934 15.0001 25.6934ZM15.0001 18.1934C13.3501 18.1934 12.0001 19.5434 12.0001 21.1934C12.0001 22.8434 13.3501 24.1934 15.0001 24.1934C16.6501 24.1934 18.0001 22.8434 18.0001 21.1934C18.0001 19.5434 16.6501 18.1934 15.0001 18.1934Z" fill="#006400"/>
<path d="M15.0002 21.9436C14.8502 21.9436 14.5502 21.9436 14.4002 21.7936C14.1002 21.4936 14.1002 21.0436 14.4002 20.7436L25.6502 9.49355C25.9502 9.19355 26.4002 9.19355 26.7002 9.49355C27.0002 9.79355 27.0002 10.2436 26.7002 10.5436L15.4502 21.7936C15.4502 21.9436 15.1502 21.9436 15.0002 21.9436Z" fill="#006400"/>
<path d="M30.0001 10.6934H26.2501C25.8001 10.6934 25.5001 10.3934 25.5001 9.94336V6.19336C25.5001 6.04336 25.6501 5.74336 25.6501 5.59336L30.9001 0.343359C31.2001 0.193359 31.5001 0.193359 31.8001 0.193359C32.1001 0.343359 32.2501 0.643359 32.2501 0.943359V3.94336H35.2501C35.5501 3.94336 35.8501 4.09336 36.0001 4.39336C36.0001 4.69336 36.0001 4.99336 35.8501 5.29336L30.6001 10.5434C30.4501 10.5434 30.1501 10.6934 30.0001 10.6934ZM27.0001 9.19336H29.7001L33.4501 5.44336H31.5001C31.0501 5.44336 30.7501 5.14336 30.7501 4.69336V2.74336L27.0001 6.49336V9.19336Z" fill="#006400"/>
</g>
<defs>
<clipPath id="clip0_242_1396">
<rect width="36" height="36" fill="white" transform="translate(0.00012207 0.193359)"/>
</clipPath>
</defs>
</svg>
