<svg width="37" height="37" viewBox="0 0 37 37" fill="none" xmlns="http://www.w3.org/2000/svg">
<path d="M14.406 17.6234C14.361 17.6234 14.331 17.6234 14.286 17.6234C14.211 17.6084 14.106 17.6084 14.016 17.6234C9.66598 17.4884 6.38098 14.0684 6.38098 9.85336C6.38098 5.56336 9.87598 2.06836 14.166 2.06836C18.456 2.06836 21.951 5.56336 21.951 9.85336C21.936 14.0684 18.636 17.4884 14.451 17.6234C14.436 17.6234 14.421 17.6234 14.406 17.6234ZM14.166 4.31836C11.121 4.31836 8.63098 6.80836 8.63098 9.85336C8.63098 12.8534 10.971 15.2684 13.956 15.3734C14.046 15.3584 14.241 15.3584 14.436 15.3734C17.376 15.2384 19.686 12.8234 19.701 9.85336C19.701 6.80836 17.211 4.31836 14.166 4.31836Z" fill="#006400"/>
<path d="M25.4761 17.8184C25.4311 17.8184 25.3861 17.8184 25.3411 17.8034C24.7261 17.8634 24.0961 17.4284 24.0361 16.8134C23.9761 16.1984 24.3511 15.6434 24.9661 15.5684C25.1461 15.5534 25.3411 15.5534 25.5061 15.5534C27.6961 15.4334 29.4061 13.6334 29.4061 11.4284C29.4061 9.14836 27.5611 7.30336 25.2811 7.30336C24.6661 7.31836 24.1561 6.80836 24.1561 6.19336C24.1561 5.57836 24.6661 5.06836 25.2811 5.06836C28.7911 5.06836 31.6561 7.93336 31.6561 11.4434C31.6561 14.8934 28.9561 17.6834 25.5211 17.8184C25.5061 17.8184 25.4911 17.8184 25.4761 17.8184Z" fill="#006400"/>
<path d="M14.421 34.0184C11.481 34.0184 8.52604 33.2684 6.29104 31.7684C4.20604 30.3884 3.06604 28.4984 3.06604 26.4434C3.06604 24.3884 4.20604 22.4834 6.29104 21.0884C10.791 18.1034 18.081 18.1034 22.551 21.0884C24.621 22.4684 25.776 24.3584 25.776 26.4134C25.776 28.4684 24.636 30.3734 22.551 31.7684C20.301 33.2684 17.361 34.0184 14.421 34.0184ZM7.53604 22.9784C6.09604 23.9384 5.31604 25.1684 5.31604 26.4584C5.31604 27.7334 6.11104 28.9634 7.53604 29.9084C11.271 32.4134 17.571 32.4134 21.306 29.9084C22.746 28.9484 23.526 27.7184 23.526 26.4284C23.526 25.1534 22.731 23.9234 21.306 22.9784C17.571 20.4884 11.271 20.4884 7.53604 22.9784Z" fill="#006400"/>
<path d="M28.176 31.3184C27.651 31.3184 27.186 30.9584 27.081 30.4184C26.961 29.8034 27.351 29.2184 27.951 29.0834C28.896 28.8884 29.766 28.5134 30.441 27.9884C31.296 27.3434 31.761 26.5334 31.761 25.6784C31.761 24.8234 31.296 24.0134 30.456 23.3834C29.796 22.8734 28.971 22.5134 27.996 22.2884C27.396 22.1534 27.006 21.5534 27.141 20.9384C27.276 20.3384 27.876 19.9484 28.491 20.0834C29.781 20.3684 30.906 20.8784 31.821 21.5834C33.216 22.6334 34.011 24.1184 34.011 25.6784C34.011 27.2384 33.201 28.7234 31.806 29.7884C30.876 30.5084 29.706 31.0334 28.416 31.2884C28.326 31.3184 28.251 31.3184 28.176 31.3184Z" fill="#006400"/>
</svg>
