<svg width="25" height="25" viewBox="0 0 25 25" fill="none" xmlns="http://www.w3.org/2000/svg">
<g clip-path="url(#clip0_242_1268)">
<path d="M22.1409 17.5564V11.3277L22.3186 11.2242C22.6959 11.0052 22.9209 10.6144 22.9209 10.1787C22.9209 9.74295 22.6959 9.35145 22.3186 9.13245L13.2009 3.83595C12.4336 3.38895 11.4789 3.3897 10.7116 3.83595L1.59314 9.1332C1.21664 9.3522 0.991638 9.74295 0.991638 10.1787C0.991638 10.6144 1.21664 11.0052 1.59314 11.2249L4.35764 12.8314V16.5657C4.35764 17.4327 4.82414 18.2389 5.57414 18.6717L9.37964 20.8654C10.1739 21.3229 11.0649 21.5524 11.9559 21.5524C12.8469 21.5524 13.7371 21.3237 14.5321 20.8654L18.3369 18.6717C19.0876 18.2397 19.5541 17.4327 19.5541 16.5657V12.8307L20.7909 12.1122V17.5564C20.4736 17.7724 20.2651 18.1362 20.2651 18.5494C20.2651 19.2124 20.8029 19.7502 21.4659 19.7502C22.1289 19.7502 22.6666 19.2124 22.6666 18.5494C22.6666 18.1369 22.4581 17.7732 22.1409 17.5564ZM18.2049 16.5649H18.2041C18.2041 16.9504 17.9979 17.3089 17.6634 17.5009L13.8586 19.6947C12.6856 20.3704 11.2269 20.3704 10.0546 19.6947L6.24914 17.5009C5.91539 17.3089 5.70839 16.9504 5.70839 16.5649V13.6152L10.7116 16.5222C11.0956 16.7449 11.5261 16.8567 11.9566 16.8567C12.3871 16.8567 12.8176 16.7457 13.2016 16.5222L18.2049 13.6152V16.5649ZM12.5229 15.3552C12.1734 15.5584 11.7391 15.5584 11.3896 15.3552L2.48039 10.1787L11.3889 5.0022C11.7384 4.79895 12.1726 4.79895 12.5221 5.0022L21.4314 10.1779L12.5229 15.3552Z" fill="#121212"/>
</g>
<defs>
<clipPath id="clip0_242_1268">
<rect width="24" height="24" fill="white" transform="translate(0.166626 0.526855)"/>
</clipPath>
</defs>
</svg>
