<?xml version="1.0" encoding="iso-8859-1"?>
<!-- Uploaded to: SVG Repo, www.svgrepo.com, Generator: SVG Repo Mixer Tools -->
<svg fill="#000000" height="800px" width="800px" version="1.1" id="Layer_1" xmlns="http://www.w3.org/2000/svg" xmlns:xlink="http://www.w3.org/1999/xlink" 
	 viewBox="0 0 512 512" xml:space="preserve">
<g>
	<g>
		<path d="M122.88,271.649c-39.52,0-71.68,32.155-71.68,71.68c0,39.525,32.16,71.68,71.68,71.68s71.68-32.155,71.68-71.68
			C194.56,303.804,162.4,271.649,122.88,271.649z M122.88,394.529c-28.23,0-51.2-22.97-51.2-51.2c0-28.23,22.97-51.2,51.2-51.2
			c28.23,0,51.2,22.97,51.2,51.2C174.08,371.559,151.11,394.529,122.88,394.529z"/>
	</g>
</g>
<g>
	<g>
		<path d="M495.39,281.604l-63.1-189.482c-8.58-25.765-36.57-46.138-63.71-46.138h-10.26c-43.72,0-80.4,30.72-89.75,71.68h-25.14
			c-9.347-40.96-46.027-71.68-89.75-71.68h-10.25c-27.15,0-55.14,20.372-63.72,46.138l-63.1,189.386
			C5.74,300.183,0,321.551,0,343.281c0,67.755,55.12,122.711,122.88,122.711c64.31,0,117.195-48.809,122.42-112.809h21.4
			c5.225,64,58.113,112.833,122.42,112.833c67.76,0,122.88-55.029,122.88-122.784C512,321.502,506.26,300.279,495.39,281.604z
			 M224,343.329c0,56.465-45.3,102.4-101.76,102.4s-102.08-45.935-102.08-102.4c0-18.43,5.11-36.49,14.46-52.235
			c0.38-0.63,0.76-1.295,0.99-1.99L99.09,98.601c5.78-17.315,26.1-32.137,44.34-32.137h10.25c39.48,0,70.32,32.565,70.32,72.12
			V343.329z M264.96,138.584v194.12h-20.48v-194.12c0-0.019,0-0.44,0-0.44h20.48C264.96,138.144,264.96,138.565,264.96,138.584z
			 M388.48,445.729c-56.46,0-103.04-45.935-103.04-102.4V138.584c0-39.555,33.4-72.12,72.88-72.12h10.26
			c18.23,0,38.51,14.822,44.29,32.137l63.44,190.406c0.23,0.695,0.53,1.409,0.91,2.039c9.35,15.745,13.98,33.829,13.98,52.259
			C491.2,399.77,444.94,445.729,388.48,445.729z"/>
	</g>
</g>
<g>
	<g>
		<path d="M389.12,271.649c-39.52,0-71.68,32.155-71.68,71.68c0,39.525,32.16,71.68,71.68,71.68s71.68-32.155,71.68-71.68
			C460.8,303.804,428.64,271.649,389.12,271.649z M389.12,394.529c-28.23,0-51.2-22.97-51.2-51.2c0-28.23,22.97-51.2,51.2-51.2
			s51.2,22.97,51.2,51.2C440.32,371.559,417.35,394.529,389.12,394.529z"/>
	</g>
</g>
</svg>