<svg width="25" height="25" viewBox="0 0 25 25" fill="none" xmlns="http://www.w3.org/2000/svg">
<path d="M12.4999 12.5269C12.4999 13.6315 13.3953 14.5269 14.4999 14.5269C15.6045 14.5269 16.4999 13.6315 16.4999 12.5269C16.4999 11.4223 15.6045 10.5269 14.4999 10.5269C13.3953 10.5269 12.4999 11.4223 12.4999 12.5269ZM4.49988 10.5269C5.60448 10.5269 6.49988 11.4223 6.49988 12.5269C6.49988 13.6315 5.60448 14.5269 4.49988 14.5269C3.39528 14.5269 2.49988 13.6315 2.49988 12.5269C2.49988 11.4223 3.39528 10.5269 4.49988 10.5269Z" fill="#121212"/>
<path d="M1.99988 12.5269C1.99988 17.2139 4.46768 21.0269 7.49988 21.0269C9.15678 21.0269 10.6416 19.8834 11.6508 18.086C11.47 17.6937 11.3132 17.2773 11.172 16.8472C10.3563 18.7674 9.01588 20.0269 7.49978 20.0269C5.01838 20.0269 2.99978 16.6626 2.99978 12.5269C2.99978 8.39116 5.01838 5.02686 7.49978 5.02686C9.01588 5.02686 10.3562 6.28636 11.172 8.20656C11.3132 7.77646 11.47 7.36006 11.6508 6.96776C10.6415 5.17036 9.15668 4.02686 7.49988 4.02686C4.46768 4.02686 1.99988 7.83986 1.99988 12.5269ZM22.9999 12.5269C22.9999 7.83986 20.5326 4.02686 17.4999 4.02686C14.4672 4.02686 11.9999 7.83986 11.9999 12.5269C11.9999 17.2139 14.4672 21.0269 17.4999 21.0269C20.5326 21.0269 22.9999 17.2139 22.9999 12.5269ZM21.9999 12.5269C21.9999 16.6626 19.9813 20.0269 17.4999 20.0269C15.4598 20.0269 13.7353 17.7512 13.1854 14.6441C13.5684 14.8828 14.0164 15.0269 14.4999 15.0269C15.8783 15.0269 16.9999 13.9053 16.9999 12.5269C16.9999 11.1485 15.8783 10.0269 14.4999 10.0269C14.0164 10.0269 13.5684 10.171 13.1854 10.4097C13.7353 7.30256 15.4598 5.02686 17.4999 5.02686C19.9813 5.02686 21.9999 8.39116 21.9999 12.5269ZM14.4999 11.0269C15.327 11.0269 15.9999 11.6998 15.9999 12.5269C15.9999 13.354 15.327 14.0269 14.4999 14.0269C13.6728 14.0269 12.9999 13.354 12.9999 12.5269C12.9999 11.6998 13.6728 11.0269 14.4999 11.0269ZM1.99988 12.5269C1.99988 13.9053 3.12098 15.0269 4.49988 15.0269C5.87878 15.0269 6.99988 13.9053 6.99988 12.5269C6.99988 11.1485 5.87878 10.0269 4.49988 10.0269C3.12098 10.0269 1.99988 11.1485 1.99988 12.5269ZM2.99978 12.5269C2.99978 11.6998 3.67278 11.0269 4.49988 11.0269C5.32698 11.0269 5.99988 11.6998 5.99988 12.5269C5.99988 13.354 5.32698 14.0269 4.49988 14.0269C3.67278 14.0269 2.99978 13.354 2.99978 12.5269Z" fill="#121212"/>
</svg>
