<svg width="25" height="25" viewBox="0 0 25 25" fill="none" xmlns="http://www.w3.org/2000/svg">
<g clip-path="url(#clip0_242_1286)">
<path d="M10.8333 13.0269C10.8333 12.1999 10.1603 11.5269 9.33325 11.5269C8.50625 11.5269 7.83325 12.1999 7.83325 13.0269C7.83325 13.8539 8.50625 14.5269 9.33325 14.5269C10.1603 14.5269 10.8333 13.8539 10.8333 13.0269ZM9.33325 13.5269C9.05775 13.5269 8.83325 13.3029 8.83325 13.0269C8.83325 12.7509 9.05775 12.5269 9.33325 12.5269C9.60875 12.5269 9.83325 12.7514 9.83325 13.0269C9.83325 13.3024 9.60875 13.5269 9.33325 13.5269Z" fill="#121212"/>
<path d="M15.3333 11.5269C14.5063 11.5269 13.8333 12.1999 13.8333 13.0269C13.8333 13.8539 14.5063 14.5269 15.3333 14.5269C16.1603 14.5269 16.8333 13.8539 16.8333 13.0269C16.8333 12.1999 16.1603 11.5269 15.3333 11.5269ZM15.3333 13.5269C15.0578 13.5269 14.8333 13.3029 14.8333 13.0269C14.8333 12.7509 15.0578 12.5269 15.3333 12.5269C15.6088 12.5269 15.8333 12.7514 15.8333 13.0269C15.8333 13.3024 15.6088 13.5269 15.3333 13.5269Z" fill="#121212"/>
<path d="M14.6048 17.4818C13.1973 18.2053 11.4693 18.2053 10.0618 17.4818C9.81578 17.3553 9.51478 17.4523 9.38828 17.6983C9.26178 17.9443 9.35878 18.2453 9.60478 18.3718C10.4393 18.8003 11.3828 19.0273 12.3333 19.0273C13.2838 19.0273 14.2273 18.8008 15.0618 18.3718C15.3073 18.2453 15.4043 17.9443 15.2783 17.6983C15.1523 17.4523 14.8508 17.3553 14.6048 17.4818Z" fill="#121212"/>
<path d="M22.8333 11.5269H21.3333V10.0269C21.3333 8.64836 20.2118 7.52686 18.8333 7.52686H12.8333V5.45586C13.6933 5.23236 14.3333 4.45586 14.3333 3.52686C14.3333 2.42386 13.4363 1.52686 12.3333 1.52686C11.2303 1.52686 10.3333 2.42386 10.3333 3.52686C10.3333 4.45586 10.9733 5.23236 11.8333 5.45586V7.52686H5.83325C4.45475 7.52686 3.33325 8.64836 3.33325 10.0269V11.5269H1.83325C1.00625 11.5269 0.333252 12.1999 0.333252 13.0269V17.5269C0.333252 18.3539 1.00625 19.0269 1.83325 19.0269H3.33325V20.5269C3.33325 21.9054 4.45475 23.0269 5.83325 23.0269H18.8333C20.2118 23.0269 21.3333 21.9054 21.3333 20.5269V19.0269H22.8333C23.6603 19.0269 24.3333 18.3539 24.3333 17.5269V13.0269C24.3333 12.1999 23.6603 11.5269 22.8333 11.5269ZM11.3333 3.52686C11.3333 2.97536 11.7818 2.52686 12.3333 2.52686C12.8848 2.52686 13.3333 2.97536 13.3333 3.52686C13.3333 4.07836 12.8848 4.52686 12.3333 4.52686C11.7818 4.52686 11.3333 4.07836 11.3333 3.52686ZM1.83325 18.0269C1.55775 18.0269 1.33325 17.8029 1.33325 17.5269V13.0269C1.33325 12.7514 1.55775 12.5269 1.83325 12.5269H3.33325V18.0269H1.83325ZM20.3333 20.5269C20.3333 21.3539 19.6603 22.0269 18.8333 22.0269H5.83325C5.00625 22.0269 4.33325 21.3539 4.33325 20.5269V10.0269C4.33325 9.19986 5.00625 8.52686 5.83325 8.52686H18.8333C19.6603 8.52686 20.3333 9.19986 20.3333 10.0269V20.5269ZM23.3333 17.5269C23.3333 17.8029 23.1088 18.0269 22.8333 18.0269H21.3333V12.5269H22.8333C23.1088 12.5269 23.3333 12.7514 23.3333 13.0269V17.5269Z" fill="#121212"/>
</g>
<defs>
<clipPath id="clip0_242_1286">
<rect width="24" height="24" fill="white" transform="translate(0.333252 0.526855)"/>
</clipPath>
</defs>
</svg>
