<svg width="145" height="150" viewBox="0 0 145 150" fill="none" xmlns="http://www.w3.org/2000/svg">
<path d="M62 25.1934L64.7716 76.8617C64.9906 80.9429 68.2505 84.2028 72.3316 84.4217L124 87.1934L72.3316 89.965C68.2505 90.1839 64.9906 93.4438 64.7716 97.525L62 149.193L59.2284 97.525C59.0094 93.4438 55.7495 90.1839 51.6684 89.965L0 87.1934L51.6684 84.4217C55.7495 84.2028 59.0094 80.9429 59.2284 76.8617L62 25.1934Z" fill="#22C55E" fill-opacity="0.12"/>
<path d="M120 0.193359L120.888 16.7455C121.107 20.8266 124.367 24.0865 128.448 24.3055L145 25.1934L128.448 26.0813C124.367 26.3002 121.107 29.5601 120.888 33.6413L120 50.1934L119.112 33.6413C118.893 29.5601 115.633 26.3002 111.552 26.0813L95 25.1934L111.552 24.3055C115.633 24.0865 118.893 20.8266 119.112 16.7455L120 0.193359Z" fill="#22C55E" fill-opacity="0.12"/>
</svg>
