<svg width="25" height="25" viewBox="0 0 25 25" fill="none" xmlns="http://www.w3.org/2000/svg">
<g clip-path="url(#clip0_464_7154)">
<path d="M21.7109 0.193359H3.71094C2.05644 0.193359 0.710938 1.53886 0.710938 3.19336V21.1934C0.710938 22.8479 2.05644 24.1934 3.71094 24.1934H21.7109C23.3654 24.1934 24.7109 22.8479 24.7109 21.1934V3.19336C24.7109 1.53886 23.3654 0.193359 21.7109 0.193359Z" fill="#1976D2"/>
<path d="M20.9609 12.1934H17.2109V9.19336C17.2109 8.36536 17.8829 8.44336 18.7109 8.44336H20.2109V4.69336H17.2109C14.7254 4.69336 12.7109 6.70786 12.7109 9.19336V12.1934H9.71094V15.9434H12.7109V24.1934H17.2109V15.9434H19.4609L20.9609 12.1934Z" fill="#FAFAFA"/>
</g>
<defs>
<clipPath id="clip0_464_7154">
<rect width="24" height="24" fill="white" transform="translate(0.710938 0.193359)"/>
</clipPath>
</defs>
</svg>
