<svg width="60" height="61" viewBox="0 0 60 61" fill="none" xmlns="http://www.w3.org/2000/svg">
<g clip-path="url(#clip0_242_2880)">
<path d="M56.9858 58.1939V21.2133C56.9858 20.6614 56.5383 20.2139 55.9864 20.2139H45.9916C45.4396 20.2139 44.9921 20.6614 44.9921 21.2133V58.1939H42.9932V35.206C42.9932 34.654 42.5457 34.2065 41.9937 34.2065H31.999C31.447 34.2065 30.9995 34.654 30.9995 35.206V58.1939H29.0005V25.2112C29.0005 24.6593 28.553 24.2118 28.0011 24.2118H18.0063C17.4543 24.2118 17.0068 24.6593 17.0068 25.2112V58.1939H15.0079V39.2039C15.0079 38.6519 14.5604 38.2044 14.0084 38.2044H4.01365C3.46169 38.2044 3.01417 38.6519 3.01417 39.2039V58.1939H0.0157471V60.1929H59.9843V58.1939H56.9858ZM13.0089 58.1939H5.01312V40.2034H13.0089V58.1939ZM27.0016 58.1939H19.0058V26.2107H27.0016V58.1939ZM40.9942 58.1939H32.9984V36.2055H40.9942V58.1939ZM54.9869 58.1939H46.9911V22.2128H54.9869V58.1939Z" fill="#006400"/>
<path d="M6.2549 27.3816C7.07247 27.922 8.03097 28.2103 9.01108 28.2101C11.771 28.21 14.0083 25.9726 14.0082 23.2125C14.0082 22.2328 13.7201 21.2745 13.1799 20.4572L20.2542 13.3819C21.065 13.9245 22.0181 14.2152 22.9937 14.2175C23.288 14.2176 23.5816 14.1919 23.8713 14.1405C24.8222 13.9739 25.7037 13.5334 26.4079 12.8732L32.3378 17.4318C31.3481 20.0082 32.6343 22.8992 35.2107 23.8889C37.7871 24.8786 40.6781 23.5924 41.6678 21.0161C42.2483 19.5051 42.061 17.8066 41.1652 16.4583L48.2375 9.38603C50.5459 10.914 53.6559 10.2812 55.1837 7.97277C56.7117 5.66436 56.0789 2.55437 53.7705 1.02655C51.462 -0.501402 48.3521 0.131391 46.8242 2.4398C45.7141 4.11705 45.7141 6.29553 46.8242 7.97277L39.7519 15.0451C37.7711 13.7357 35.1425 14.001 33.4632 15.6797C33.4443 15.6987 33.4333 15.7207 33.4153 15.7387L27.5713 11.2471C28.6939 8.72563 27.5598 5.77168 25.0384 4.64914C22.517 3.52661 19.563 4.66064 18.4405 7.18206C17.7462 8.74162 17.896 10.5478 18.8379 11.9715L11.7666 19.0438C9.46422 17.5218 6.36397 18.1544 4.84189 20.4568C3.31994 22.7593 3.95249 25.8595 6.2549 27.3816ZM50.989 2.22379C52.6451 2.22379 53.9875 3.56621 53.9875 5.22222C53.9875 6.87822 52.6451 8.22064 50.989 8.22064C49.333 8.22064 47.9906 6.87822 47.9906 5.22222C47.9906 3.56621 49.333 2.22379 50.989 2.22379ZM34.8751 17.0954C35.4376 16.5325 36.2007 16.2163 36.9964 16.2164C38.6524 16.2162 39.9949 17.5585 39.9952 19.2145C39.9953 20.0102 39.6791 20.7733 39.1163 21.3358C37.9294 22.467 36.0634 22.467 34.8765 21.3358C33.7051 20.1651 33.7046 18.2666 34.8751 17.0954ZM20.5478 7.5004L20.548 7.50002C21.0025 6.84712 21.6992 6.40297 22.483 6.26667C22.657 6.23681 22.8332 6.22182 23.0097 6.22169C23.6233 6.22232 24.2217 6.41184 24.7238 6.76441C26.0802 7.71441 26.4098 9.58405 25.4598 10.9405C24.5098 12.2969 22.6402 12.6263 21.2838 11.6765C19.9273 10.7265 19.5978 8.85681 20.5478 7.5004ZM6.88982 21.0933C6.89032 21.0928 6.89069 21.0924 6.89119 21.0919C8.06258 19.9211 9.96121 19.9215 11.132 21.0929C12.3027 22.2643 12.3024 24.1629 11.131 25.3337C9.94409 26.4649 8.07807 26.4649 6.89119 25.3337C5.71981 24.163 5.71931 22.2645 6.88982 21.0933Z" fill="#006400"/>
</g>
<defs>
<clipPath id="clip0_242_2880">
<rect width="60" height="60" fill="white" transform="translate(0 0.193359)"/>
</clipPath>
</defs>
</svg>
