<svg width="61" height="61" viewBox="0 0 61 61" fill="none" xmlns="http://www.w3.org/2000/svg">
<path d="M55.9792 22.7587V20.8837C55.9798 20.4953 55.9021 20.1109 55.7507 19.7533C55.5992 19.3956 55.3772 19.0723 55.0979 18.8024C54.8157 18.5351 54.4829 18.3268 54.1191 18.19C53.7552 18.0531 53.3676 17.9904 52.9792 18.0056C49.5204 18.0992 46.0734 18.4502 42.6667 19.0556L41.4292 19.2993C41.1635 16.6685 39.9451 14.2255 38.0035 12.4305C36.0619 10.6355 33.531 9.61223 30.8874 9.55346C28.2438 9.49469 25.67 10.4044 23.6505 12.1114C21.631 13.8184 20.3053 16.2047 19.9229 18.8212C19.9229 18.9899 19.9229 19.1493 19.9229 19.3087C16.1102 18.55 12.2402 18.1141 8.35419 18.0056C7.96505 17.9943 7.57759 18.0611 7.21468 18.202C6.85176 18.3428 6.52074 18.555 6.24112 18.8258C5.96151 19.0967 5.73898 19.4208 5.58665 19.7791C5.43432 20.1374 5.35528 20.5225 5.35419 20.9118V22.7868C4.29541 23.0029 3.34382 23.5782 2.66046 24.4153C1.97711 25.2524 1.60397 26.2999 1.60419 27.3806V53.6306C1.60419 54.8738 2.09805 56.066 2.97712 56.9451C3.4124 57.3804 3.92914 57.7257 4.49786 57.9612C5.06657 58.1968 5.67612 58.3181 6.29169 58.3181H55.0417C56.2849 58.3181 57.4772 57.8242 58.3563 56.9451C59.2353 56.066 59.7292 54.8738 59.7292 53.6306V27.3806C59.7359 26.2951 59.3657 25.241 58.6818 24.3981C57.9979 23.5552 57.0427 22.9758 55.9792 22.7587ZM21.7979 19.0837C22.0961 17.1351 23.025 15.3382 24.4424 13.9682C25.8597 12.5983 27.6873 11.731 29.6448 11.4993C29.9842 11.462 30.3253 11.4432 30.6667 11.4431C32.8695 11.4378 34.9952 12.2533 36.6292 13.7306C37.6128 14.6095 38.3902 15.6948 38.906 16.9089C39.4218 18.123 39.6632 19.4359 39.613 20.7541C39.5629 22.0722 39.2224 23.363 38.6159 24.5344C38.0093 25.7058 37.1517 26.7288 36.1042 27.5306C35.3098 28.1195 34.6633 28.8852 34.2158 29.7671C33.7684 30.649 33.5322 31.6229 33.5261 32.6118C33.5236 32.9641 33.3826 33.3013 33.1334 33.5504C32.8843 33.7996 32.5471 33.9406 32.1948 33.9431H31.6042V27.3806C31.6046 27.1615 31.5283 26.9492 31.3886 26.7806L27.9761 22.6931H33.0854L31.4073 24.3712C31.2537 24.5505 31.1735 24.7812 31.1826 25.0172C31.1917 25.2531 31.2895 25.4769 31.4565 25.6439C31.6234 25.8109 31.8473 25.9087 32.0832 25.9178C32.3191 25.9269 32.5498 25.8466 32.7292 25.6931L36.0104 22.4118C36.1389 22.2808 36.2261 22.1149 36.2612 21.9348C36.2963 21.7547 36.2778 21.5682 36.2079 21.3985C36.138 21.2288 36.0199 21.0834 35.8681 20.9802C35.7164 20.877 35.5377 20.8206 35.3542 20.8181H25.9792C25.8009 20.8178 25.6262 20.8683 25.4756 20.9638C25.325 21.0593 25.2048 21.1957 25.129 21.3571C25.0533 21.5185 25.0251 21.6982 25.0478 21.875C25.0705 22.0519 25.1432 22.2186 25.2573 22.3556L29.7292 27.7181V33.9431H29.1386C28.9617 33.9431 28.7866 33.9081 28.6234 33.8401C28.4601 33.7722 28.3119 33.6726 28.1873 33.5471C28.0627 33.4216 27.9641 33.2727 27.8973 33.109C27.8305 32.9452 27.7967 32.7699 27.7979 32.5931C27.7871 31.6054 27.5478 30.6336 27.0989 29.7537C26.6501 28.8738 26.0037 28.1097 25.2104 27.5212C23.9362 26.5509 22.9469 25.2554 22.3464 23.7707C21.7459 22.286 21.5565 20.6669 21.7979 19.0837ZM7.22919 20.9118C7.23035 20.7727 7.25938 20.6353 7.31456 20.5076C7.36975 20.38 7.44996 20.2646 7.55047 20.1685C7.65098 20.0724 7.76974 19.9974 7.89973 19.9479C8.02973 19.8984 8.16832 19.8755 8.30731 19.8806C12.1948 19.9886 16.0656 20.434 19.8761 21.2118C19.9837 22.737 20.4167 24.2214 21.146 25.5652C21.8753 26.9091 22.884 28.0811 24.1042 29.0024C24.6742 29.4163 25.1403 29.9569 25.4657 30.5816C25.7911 31.2063 25.9669 31.8981 25.9792 32.6024C25.9791 33.4456 26.3101 34.2551 26.901 34.8566C27.492 35.458 28.2955 35.8033 29.1386 35.8181H32.1948C32.6191 35.8168 33.039 35.7319 33.4304 35.5681C33.8218 35.4043 34.1771 35.1649 34.4758 34.8635C34.7745 34.5622 35.0109 34.2049 35.1712 33.8121C35.3316 33.4192 35.4129 32.9986 35.4104 32.5743C35.4256 31.8758 35.6029 31.1904 35.9283 30.5722C36.2537 29.954 36.7183 29.4198 37.2854 29.0118C38.4998 28.085 39.5026 26.9099 40.2268 25.5649C40.951 24.2198 41.3801 22.7358 41.4854 21.2118L43.0417 20.9024C46.34 20.3158 49.6773 19.9742 53.0261 19.8806C53.1667 19.8733 53.3073 19.8964 53.4383 19.9481C53.5693 19.9999 53.6877 20.0791 53.7854 20.1806C53.8843 20.2767 53.9627 20.3919 54.0159 20.5192C54.0691 20.6465 54.0959 20.7832 54.0948 20.9212V50.7243C54.0951 50.9899 53.9929 51.2453 53.8095 51.4374C53.6262 51.6295 53.3757 51.7435 53.1104 51.7556C45.7522 51.854 38.47 53.2602 31.6042 55.9087V39.5681H32.5417C32.7903 39.5681 33.0288 39.4693 33.2046 39.2935C33.3804 39.1177 33.4792 38.8792 33.4792 38.6306C33.4792 38.3819 33.3804 38.1435 33.2046 37.9676C33.0288 37.7918 32.7903 37.6931 32.5417 37.6931H28.7917C28.543 37.6931 28.3046 37.7918 28.1288 37.9676C27.953 38.1435 27.8542 38.3819 27.8542 38.6306C27.8542 38.8792 27.953 39.1177 28.1288 39.2935C28.3046 39.4693 28.543 39.5681 28.7917 39.5681H29.7292V55.9181C22.8651 53.2625 15.5822 51.853 8.22294 51.7556C7.95598 51.7458 7.70322 51.6329 7.51786 51.4406C7.3325 51.2482 7.22901 50.9914 7.22919 50.7243V20.9118ZM3.47919 53.6306V27.3806C3.48082 26.8003 3.66189 26.2347 3.99757 25.7614C4.33325 25.2881 4.80711 24.9302 5.35419 24.7368V50.7243C5.35846 51.4777 5.65328 52.2004 6.17723 52.7418C6.70117 53.2832 7.41382 53.6016 8.16669 53.6306C14.0525 53.7702 19.8913 54.7165 25.5198 56.4431H6.29169C5.54577 56.4431 4.8304 56.1467 4.30295 55.6193C3.7755 55.0919 3.47919 54.3765 3.47919 53.6306ZM57.8542 53.6306C57.8542 54.3765 57.5579 55.0919 57.0304 55.6193C56.503 56.1467 55.7876 56.4431 55.0417 56.4431H35.8042C41.4358 54.7156 47.2778 53.7693 53.1667 53.6306C53.9196 53.6016 54.6322 53.2832 55.1561 52.7418C55.6801 52.2004 55.9749 51.4777 55.9792 50.7243V24.7087C56.5308 24.9037 57.0079 25.2659 57.3439 25.7448C57.68 26.2237 57.8584 26.7955 57.8542 27.3806V53.6306Z" fill="#006400"/>
<path d="M10.9135 25.5055C12.151 25.5899 13.3979 25.7024 14.6167 25.8524H14.7292C14.9778 25.8673 15.2222 25.7828 15.4086 25.6176C15.5949 25.4523 15.708 25.2198 15.7229 24.9711C15.7378 24.7225 15.6534 24.4781 15.4881 24.2917C15.3228 24.1054 15.0903 23.9923 14.8417 23.9774C13.5948 23.8274 12.3104 23.7055 11.0448 23.6211C10.7961 23.605 10.5513 23.6882 10.364 23.8526C10.1768 24.017 10.0625 24.249 10.0464 24.4977C10.0302 24.7463 10.1135 24.9912 10.2779 25.1784C10.4422 25.3657 10.6743 25.48 10.9229 25.4961L10.9135 25.5055Z" fill="#006400"/>
<path d="M10.9135 29.3778C13.2006 29.527 15.4786 29.7929 17.7385 30.1746H17.8979C18.021 30.1851 18.145 30.1712 18.2627 30.1338C18.3805 30.0963 18.4897 30.0361 18.5842 29.9564C18.6786 29.8767 18.7565 29.7793 18.8132 29.6695C18.87 29.5598 18.9046 29.4399 18.9151 29.3168C18.9256 29.1937 18.9117 29.0697 18.8742 28.952C18.8368 28.8342 18.7765 28.725 18.6969 28.6306C18.6172 28.5361 18.5197 28.4583 18.41 28.4015C18.3003 28.3447 18.1804 28.3101 18.0573 28.2996C15.7353 27.9057 13.3948 27.6303 11.0448 27.4746C10.7961 27.4585 10.5513 27.5417 10.364 27.7061C10.1768 27.8705 10.0625 28.1026 10.0464 28.3512C10.0302 28.5998 10.1135 28.8447 10.2779 29.032C10.4422 29.2192 10.6743 29.3335 10.9229 29.3496L10.9135 29.3778Z" fill="#006400"/>
<path d="M10.0417 34.9468C10.0262 35.194 10.1093 35.4373 10.2726 35.6235C10.436 35.8097 10.6664 35.9237 10.9136 35.9406C15.9279 36.2478 20.8878 37.151 25.6886 38.6312C25.926 38.7058 26.1834 38.683 26.404 38.5678C26.6247 38.4527 26.7905 38.2546 26.8651 38.0171C26.9397 37.7797 26.9169 37.5223 26.8018 37.3017C26.6866 37.081 26.4885 36.9152 26.2511 36.8406C21.3087 35.3028 16.2009 34.3587 11.0354 34.0281C10.9092 34.0205 10.7828 34.0385 10.6637 34.081C10.5447 34.1235 10.4354 34.1897 10.3426 34.2755C10.2498 34.3613 10.1752 34.465 10.1235 34.5804C10.0718 34.6958 10.044 34.8204 10.0417 34.9468Z" fill="#006400"/>
<path d="M26.2604 41.4434C21.318 39.9057 16.2103 38.9616 11.0448 38.6309C10.9217 38.6229 10.7982 38.6392 10.6814 38.6789C10.5646 38.7186 10.4567 38.781 10.364 38.8624C10.1768 39.0268 10.0625 39.2588 10.0464 39.5074C10.0302 39.7561 10.1135 40.001 10.2779 40.1882C10.4422 40.3755 10.6743 40.4897 10.9229 40.5059C15.9376 40.8162 20.8975 41.7226 25.6979 43.2059C25.9178 43.2382 26.142 43.1913 26.3305 43.0736C26.519 42.9559 26.6596 42.7751 26.7272 42.5634C26.7947 42.3516 26.7849 42.1228 26.6994 41.9177C26.6139 41.7125 26.4583 41.5445 26.2604 41.4434Z" fill="#006400"/>
<path d="M26.2604 46.1309C21.3181 44.5931 16.2103 43.649 11.0448 43.3184C10.7961 43.3022 10.5513 43.3855 10.364 43.5499C10.1768 43.7143 10.0625 43.9463 10.0464 44.195C10.0302 44.4436 10.1135 44.6885 10.2779 44.8757C10.4422 45.063 10.6743 45.1772 10.9229 45.1934C15.939 45.5409 20.8959 46.4851 25.6885 48.0059C25.9372 48.0817 26.2058 48.0557 26.4352 47.9335C26.6646 47.8113 26.8361 47.603 26.912 47.3543C26.9878 47.1057 26.9618 46.8371 26.8396 46.6077C26.7174 46.3782 26.5091 46.2067 26.2604 46.1309Z" fill="#006400"/>
<path d="M35.3542 38.6873C35.4475 38.7015 35.5423 38.7015 35.6355 38.6873C40.4358 37.204 45.3958 36.2976 50.4105 35.9873C50.6591 35.9712 50.8912 35.8569 51.0556 35.6697C51.2199 35.4824 51.3032 35.2375 51.2871 34.9889C51.2709 34.7403 51.1566 34.5082 50.9694 34.3438C50.7821 34.1794 50.5373 34.0962 50.2886 34.1123C45.1231 34.4429 40.0153 35.3871 35.073 36.9248C34.9499 36.9433 34.8316 36.9858 34.7249 37.05C34.6183 37.1142 34.5253 37.1987 34.4513 37.2989C34.3018 37.501 34.2388 37.7543 34.2761 38.003C34.3134 38.2516 34.448 38.4752 34.6501 38.6247C34.8523 38.7741 35.1056 38.8371 35.3542 38.7998V38.6873Z" fill="#006400"/>
<path d="M35.3542 43.2528C35.4475 43.2669 35.5423 43.2669 35.6355 43.2528C40.4339 41.7536 45.3939 40.8315 50.4105 40.5059C50.5336 40.4979 50.6539 40.4657 50.7646 40.4112C50.8753 40.3567 50.9742 40.2809 51.0556 40.1882C51.137 40.0955 51.1993 39.9877 51.239 39.8709C51.2787 39.754 51.2951 39.6306 51.2871 39.5074C51.2791 39.3843 51.2469 39.264 51.1924 39.1533C51.1379 39.0426 51.0621 38.9438 50.9694 38.8624C50.8767 38.781 50.7688 38.7186 50.652 38.6789C50.5352 38.6392 50.4117 38.6229 50.2886 38.6309C45.1231 38.9616 40.0154 39.9057 35.073 41.4434C34.8244 41.4807 34.6007 41.6152 34.4513 41.8174C34.3018 42.0196 34.2388 42.2729 34.2761 42.5215C34.3134 42.7702 34.448 42.9938 34.6501 43.1432C34.8523 43.2927 35.1056 43.3557 35.3542 43.3184V43.2528Z" fill="#006400"/>
<path d="M35.3542 48.0057C35.4475 48.0198 35.5423 48.0198 35.6355 48.0057C40.4358 46.5223 45.3958 45.616 50.4105 45.3057C50.6591 45.2895 50.8912 45.1753 51.0556 44.988C51.2199 44.8008 51.3032 44.5559 51.2871 44.3073C51.2709 44.0586 51.1566 43.8266 50.9694 43.6622C50.7821 43.4978 50.5373 43.4145 50.2886 43.4307C45.1277 43.7247 40.02 44.6311 35.073 46.1307C34.8244 46.168 34.6007 46.3025 34.4513 46.5047C34.3018 46.7069 34.2388 46.9602 34.2761 47.2088C34.3134 47.4575 34.448 47.6811 34.6501 47.8305C34.8523 47.98 35.1056 48.043 35.3542 48.0057Z" fill="#006400"/>
<path d="M30.6667 6.75586C30.9153 6.75586 31.1538 6.65709 31.3296 6.48127C31.5054 6.30546 31.6042 6.067 31.6042 5.81836V2.06836C31.6042 1.81972 31.5054 1.58126 31.3296 1.40545C31.1538 1.22963 30.9153 1.13086 30.6667 1.13086C30.418 1.13086 30.1796 1.22963 30.0038 1.40545C29.828 1.58126 29.7292 1.81972 29.7292 2.06836V5.81836C29.7292 6.067 29.828 6.30546 30.0038 6.48127C30.1796 6.65709 30.418 6.75586 30.6667 6.75586Z" fill="#006400"/>
<path d="M37.2948 9.50258C37.4181 9.50329 37.5404 9.47964 37.6547 9.43299C37.7689 9.38633 37.8728 9.31759 37.9604 9.2307L40.6135 6.57758C40.7671 6.39823 40.8474 6.16754 40.8382 5.93159C40.8291 5.69564 40.7313 5.47183 40.5643 5.30486C40.3974 5.1379 40.1736 5.04009 39.9376 5.03097C39.7017 5.02186 39.471 5.10211 39.2916 5.2557L36.6291 7.89945C36.4969 8.03058 36.4067 8.19811 36.3701 8.38069C36.3335 8.56326 36.3521 8.75261 36.4235 8.92459C36.4949 9.09657 36.6159 9.24339 36.7711 9.34633C36.9262 9.44926 37.1085 9.50366 37.2948 9.50258Z" fill="#006400"/>
<path d="M23.373 9.23129C23.5523 9.38488 23.783 9.46513 24.019 9.45602C24.2549 9.4469 24.4787 9.34909 24.6457 9.18213C24.8126 9.01517 24.9105 8.79135 24.9196 8.5554C24.9287 8.31945 24.8484 8.08876 24.6948 7.90941L22.0511 5.24691C21.8717 5.09333 21.641 5.01307 21.4051 5.02218C21.1692 5.0313 20.9453 5.12911 20.7784 5.29607C20.6114 5.46304 20.5136 5.68685 20.5045 5.9228C20.4954 6.15875 20.5756 6.38944 20.7292 6.56879L23.373 9.23129Z" fill="#006400"/>
</svg>
