<svg width="60" height="61" viewBox="0 0 60 61" fill="none" xmlns="http://www.w3.org/2000/svg">
<path d="M49.6875 46.5996H40.6641C37.0457 46.5996 34.1016 49.5437 34.1016 53.1621V55.623C34.1016 56.0759 34.4691 56.4434 34.9219 56.4434C35.3747 56.4434 35.7422 56.0759 35.7422 55.623V53.1621C35.7422 50.4481 37.9501 48.2402 40.6641 48.2402H49.6875C52.4015 48.2402 54.6094 50.4481 54.6094 53.1621V55.623C54.6094 56.0759 54.9769 56.4434 55.4297 56.4434C55.8825 56.4434 56.25 56.0759 56.25 55.623V53.1621C56.25 49.5437 53.3059 46.5996 49.6875 46.5996Z" fill="#006400"/>
<path d="M45.1758 44.959C49.0206 44.959 52.1484 41.8311 52.1484 37.9863C52.1484 34.1415 49.0206 31.0137 45.1758 31.0137C41.331 31.0137 38.2031 34.1415 38.2031 37.9863C38.2031 41.8311 41.331 44.959 45.1758 44.959ZM45.1758 32.6543C48.1158 32.6543 50.5078 35.0463 50.5078 37.9863C50.5078 40.9263 48.1158 43.3184 45.1758 43.3184C42.2358 43.3184 39.8438 40.9263 39.8438 37.9863C39.8438 35.0463 42.2358 32.6543 45.1758 32.6543Z" fill="#006400"/>
<path d="M8.26172 22.4004C8.26172 26.2452 11.3896 29.3731 15.2344 29.3731C19.0792 29.3731 22.207 26.2452 22.207 22.4004C22.207 18.5556 19.0792 15.4277 15.2344 15.4277C11.3896 15.4277 8.26172 18.5556 8.26172 22.4004ZM20.5664 22.4004C20.5664 25.3404 18.1744 27.7324 15.2344 27.7324C12.2944 27.7324 9.90234 25.3404 9.90234 22.4004C9.90234 19.4604 12.2944 17.0684 15.2344 17.0684C18.1744 17.0684 20.5664 19.4604 20.5664 22.4004Z" fill="#006400"/>
<path d="M7.03125 48.6504V55.6231C7.03125 56.0759 7.39875 56.4434 7.85157 56.4434C8.30439 56.4434 8.67189 56.0759 8.67189 55.6231V48.6504H9.90236H16.4649C18.5005 48.6504 20.1563 46.9946 20.1563 44.959C20.1563 42.9234 18.5005 41.2676 16.4649 41.2676H10.3125C9.85968 41.2676 9.49218 41.6351 9.49218 42.0879C9.49218 42.5407 9.85968 42.9082 10.3125 42.9082H16.4648C17.5956 42.9082 18.5156 43.8282 18.5156 44.959C18.5156 46.0898 17.5956 47.0098 16.4648 47.0098H9.90234H7.85157H7.03125C6.12645 47.0098 5.39063 46.274 5.39063 45.3692V34.7051C5.39063 33.3479 6.49436 32.2442 7.85156 32.2442H20.1562C21.5134 32.2442 22.6172 33.3479 22.6172 34.7051V37.166C22.6172 38.9752 24.0892 40.4473 25.8984 40.4473H29.5898C30.7206 40.4473 31.6406 41.3672 31.6406 42.4981C31.6406 43.6289 30.7206 44.5488 29.5898 44.5488H23.4375C22.5327 44.5488 21.7969 45.2847 21.7969 46.1895V55.6231C21.7969 56.0759 22.1644 56.4434 22.6172 56.4434C23.07 56.4434 23.4375 56.0759 23.4375 55.6231V46.1895H29.5899C31.6255 46.1895 33.2813 44.5337 33.2813 42.4981C33.2813 40.4624 31.6255 38.8066 29.5899 38.8066H25.8984C24.9936 38.8066 24.2578 38.0708 24.2578 37.166V34.7051C24.2578 32.4435 22.4179 30.6035 20.1562 30.6035H7.85157C5.58997 30.6035 3.75 32.4435 3.75 34.7051V45.3692C3.75 47.1783 5.22206 48.6504 7.03125 48.6504Z" fill="#006400"/>
<path d="M46.4062 17.0684V6.40429C46.4062 5.04709 45.3025 3.94336 43.9453 3.94336H26.7187C25.3615 3.94336 24.2578 5.04709 24.2578 6.40429V17.0684C24.2578 18.4256 25.3615 19.5293 26.7187 19.5293V21.6498C26.7187 22.742 27.6076 23.6308 28.6998 23.6308C29.2207 23.6308 29.7313 23.4192 30.1001 23.0501L33.6209 19.5293H43.9453C45.3025 19.5293 46.4062 18.4256 46.4062 17.0684ZM33.2812 17.8887C33.0639 17.8887 32.8551 17.9752 32.7013 18.129L28.9402 21.8902C28.8766 21.9537 28.7888 21.9902 28.6998 21.9902C28.512 21.9902 28.3594 21.8377 28.3594 21.6498V18.709C28.3594 18.2562 27.9919 17.8887 27.5391 17.8887H26.7187C26.2663 17.8887 25.8984 17.5208 25.8984 17.0683V6.40429C25.8984 5.95189 26.2663 5.58397 26.7187 5.58397H43.9453C44.3977 5.58397 44.7656 5.95187 44.7656 6.40429V17.0684C44.7656 17.5208 44.3977 17.8887 43.9453 17.8887H33.2812Z" fill="#006400"/>
<path d="M40.2539 8.86523H30.4102C29.9574 8.86523 29.5898 9.23273 29.5898 9.68555C29.5898 10.1384 29.9573 10.5059 30.4102 10.5059H40.2539C40.7067 10.5059 41.0742 10.1384 41.0742 9.68555C41.0742 9.23273 40.7067 8.86523 40.2539 8.86523Z" fill="#006400"/>
<path d="M40.2539 12.9668H30.4102C29.9574 12.9668 29.5898 13.3343 29.5898 13.7871C29.5898 14.2399 29.9573 14.6074 30.4102 14.6074H40.2539C40.7067 14.6074 41.0742 14.2399 41.0742 13.7871C41.0742 13.3343 40.7067 12.9668 40.2539 12.9668Z" fill="#006400"/>
<path d="M29.5899 33.8847C29.5899 34.3375 29.9574 34.705 30.4102 34.705H34.9219C35.3747 34.705 35.7422 34.3375 35.7422 33.8847V29.3729C35.7422 28.9201 35.3747 28.5526 34.9219 28.5526C34.4691 28.5526 34.1016 28.9201 34.1016 29.3729V31.904L29.1444 26.9473C28.8241 26.627 28.3048 26.627 27.9845 26.9473C27.6642 27.2676 27.6642 27.7869 27.9845 28.1072L32.9412 33.0643H30.4102C29.9574 33.0643 29.5899 33.4318 29.5899 33.8847Z" fill="#006400"/>
</svg>
