<svg width="61" height="61" viewBox="0 0 61 61" fill="none" xmlns="http://www.w3.org/2000/svg">
<path d="M31.2709 10.5059V6.58711C32.3584 6.20273 33.1459 5.17148 33.1459 3.94336C33.1459 2.39648 31.8802 1.13086 30.3334 1.13086C28.7865 1.13086 27.5209 2.39648 27.5209 3.94336C27.5209 5.16211 28.3084 6.19336 29.3959 6.58711V10.5059H31.2709ZM30.3334 3.00586C30.849 3.00586 31.2709 3.42773 31.2709 3.94336C31.2709 4.45898 30.849 4.88086 30.3334 4.88086C29.8177 4.88086 29.3959 4.45898 29.3959 3.94336C29.3959 3.42773 29.8177 3.00586 30.3334 3.00586Z" fill="#006400"/>
<path d="M27.0146 24.5684H25.1396C24.7177 24.5684 24.3427 24.859 24.2302 25.2715L21.4552 35.8184H23.3958L24.3802 32.0684H27.774L28.7583 35.8184H30.6989L27.9239 25.2715C27.8115 24.859 27.4458 24.5684 27.0146 24.5684ZM24.8771 30.1934L25.8614 26.4434H26.2927L27.2771 30.1934H24.8771Z" fill="#006400"/>
<path d="M32.6396 26.4434H34.9834V33.9434H32.6396V35.8184H39.2021V33.9434H36.8584V26.4434H39.2021V24.5684H32.6396V26.4434Z" fill="#006400"/>
<path d="M56.5834 27.3809C55.3646 27.3809 54.3334 28.1684 53.9396 29.2559H50.0209V31.1309H53.9396C54.324 32.2184 55.3552 33.0059 56.5834 33.0059C58.1302 33.0059 59.3959 31.7402 59.3959 30.1934C59.3959 28.6465 58.1302 27.3809 56.5834 27.3809ZM56.5834 31.1309C56.0677 31.1309 55.6459 30.709 55.6459 30.1934C55.6459 29.6777 56.0677 29.2559 56.5834 29.2559C57.099 29.2559 57.5209 29.6777 57.5209 30.1934C57.5209 30.709 57.099 31.1309 56.5834 31.1309Z" fill="#006400"/>
<path d="M42.2115 16.9179C38.3865 13.496 33.4459 11.921 28.299 12.4929C19.9178 13.421 13.3084 20.2085 12.5865 28.6179C11.9115 36.4929 16.4865 43.8429 23.7709 46.7304V52.6835C23.7709 56.3023 26.7147 59.246 30.3334 59.246C33.9522 59.246 36.8959 56.3023 36.8959 52.6835V46.7304C43.6553 44.0491 48.1459 37.4866 48.1459 30.1835C48.1459 25.121 45.9803 20.2835 42.2115 16.9085V16.9179ZM30.3334 57.3804C28.4115 57.3804 26.7709 56.2179 26.0397 54.5679H34.6178C33.8959 56.2179 32.2459 57.3804 30.324 57.3804H30.3334ZM35.0209 52.6929H25.6459V49.8804H35.0209V52.6929ZM35.649 45.2023C35.274 45.3335 35.0209 45.6898 35.0209 46.0835V48.0054H25.6459V46.0835C25.6459 45.6898 25.3928 45.3335 25.0178 45.2023C18.174 42.7835 13.8334 36.0241 14.4522 28.7773C15.099 21.2491 21.0053 15.1835 28.5053 14.3491C29.124 14.2835 29.7428 14.246 30.3522 14.246C34.2803 14.246 37.9928 15.6523 40.9553 18.3054C44.3303 21.3241 46.2709 25.6554 46.2709 30.1835C46.2709 36.9148 42.0053 42.9429 35.649 45.1929V45.2023Z" fill="#006400"/>
<path d="M10.6459 29.2559H6.72712C6.34275 28.1684 5.3115 27.3809 4.08337 27.3809C2.5365 27.3809 1.27087 28.6465 1.27087 30.1934C1.27087 31.7402 2.5365 33.0059 4.08337 33.0059C5.30212 33.0059 6.33337 32.2184 6.72712 31.1309H10.6459V29.2559ZM4.08337 31.1309C3.56775 31.1309 3.14587 30.709 3.14587 30.1934C3.14587 29.6777 3.56775 29.2559 4.08337 29.2559C4.599 29.2559 5.02087 29.6777 5.02087 30.1934C5.02087 30.709 4.599 31.1309 4.08337 31.1309Z" fill="#006400"/>
<path d="M47.6959 46.2336L44.9115 43.4492L43.5896 44.7711L46.3646 47.5461C46.1865 47.9211 46.0833 48.3242 46.0833 48.7555C46.0833 49.5055 46.374 50.2086 46.9084 50.743C47.4427 51.2773 48.1458 51.568 48.8958 51.568C49.6458 51.568 50.3583 51.2773 50.8833 50.743C51.4083 50.2086 51.7083 49.5055 51.7083 48.7555C51.7083 48.0055 51.4177 47.3023 50.8833 46.768C50.049 45.9336 48.7365 45.7648 47.6959 46.2336ZM49.5521 49.4211C49.1959 49.7773 48.5865 49.7773 48.2302 49.4211C48.0521 49.243 47.9583 49.0086 47.9583 48.7555C47.9583 48.5023 48.0521 48.268 48.2302 48.0898C48.4084 47.9117 48.6427 47.818 48.8958 47.818C49.149 47.818 49.3833 47.9117 49.5615 48.0898C49.7396 48.268 49.8333 48.5023 49.8333 48.7555C49.8333 49.0086 49.7396 49.243 49.5615 49.4211H49.5521Z" fill="#006400"/>
<path d="M9.78337 9.64316C9.249 10.1775 8.95837 10.8807 8.95837 11.6307C8.95837 12.3807 9.249 13.0838 9.78337 13.6182C10.3177 14.1525 11.0209 14.4432 11.7709 14.4432C12.1927 14.4432 12.6052 14.34 12.9802 14.1619L15.7552 16.9369L17.0771 15.615L14.3021 12.84C14.4802 12.465 14.5834 12.0619 14.5834 11.6307C14.5834 10.8807 14.2927 10.1775 13.7584 9.64316C12.6896 8.58379 10.8427 8.58379 9.78337 9.64316ZM12.4365 12.2963C12.0802 12.6525 11.4615 12.6525 11.1146 12.2963C10.9365 12.1182 10.8427 11.8838 10.8427 11.6307C10.8427 11.3775 10.9365 11.1432 11.1146 10.965C11.2927 10.7869 11.5271 10.6932 11.7802 10.6932C12.0334 10.6932 12.2677 10.7869 12.4459 10.965C12.624 11.1432 12.7177 11.3775 12.7177 11.6307C12.7177 11.8838 12.624 12.1182 12.4459 12.2963H12.4365Z" fill="#006400"/>
<path d="M44.9209 16.9369L47.6959 14.1619C48.0709 14.34 48.474 14.4432 48.9052 14.4432C49.6552 14.4432 50.3584 14.1525 50.8927 13.6182C51.4271 13.0838 51.7177 12.3807 51.7177 11.6307C51.7177 10.8807 51.4271 10.1682 50.8927 9.64316C49.8334 8.58379 47.9771 8.58379 46.9177 9.64316C46.3834 10.1775 46.0927 10.8807 46.0927 11.6307C46.0927 12.0525 46.1959 12.465 46.374 12.84L43.599 15.615L44.9209 16.9369ZM48.2396 10.9744C48.4177 10.7963 48.6521 10.7025 48.9052 10.7025C49.1584 10.7025 49.3927 10.7963 49.5709 10.9744C49.749 11.1525 49.8427 11.3869 49.8427 11.64C49.8427 11.8932 49.749 12.1275 49.5709 12.3057C49.2146 12.6619 48.6052 12.6619 48.249 12.3057C48.0709 12.1275 47.9771 11.8932 47.9771 11.64C47.9771 11.3869 48.0709 11.1525 48.249 10.9744H48.2396Z" fill="#006400"/>
<path d="M15.7459 43.4492L12.9615 46.2336C11.9209 45.7648 10.6083 45.9336 9.77397 46.768C9.2396 47.3023 8.94897 48.0055 8.94897 48.7555C8.94897 49.5055 9.2396 50.218 9.77397 50.743C10.3083 51.268 11.0115 51.568 11.7615 51.568C12.5115 51.568 13.2146 51.2773 13.749 50.743C14.2834 50.2086 14.574 49.5055 14.574 48.7555C14.574 48.3336 14.4709 47.9211 14.2927 47.5461L17.0677 44.7711L15.7459 43.4492ZM12.4271 49.4117C12.0708 49.768 11.4521 49.768 11.1052 49.4117C10.9271 49.2336 10.8333 48.9992 10.8333 48.7461C10.8333 48.493 10.9271 48.2586 11.1052 48.0805C11.2833 47.9023 11.5177 47.8086 11.7708 47.8086C12.024 47.8086 12.2583 47.9023 12.4365 48.0805C12.6146 48.2586 12.7083 48.493 12.7083 48.7461C12.7083 48.9992 12.6146 49.2336 12.4365 49.4117H12.4271Z" fill="#006400"/>
</svg>
