<svg width="25" height="25" viewBox="0 0 25 25" fill="none" xmlns="http://www.w3.org/2000/svg">
<path d="M4.07457 19.6951H7.25641V11.9678L5.17289 8.32959L2.71094 8.55869V18.3314C2.71094 19.0848 3.32117 19.6951 4.07457 19.6951Z" fill="#0085F7"/>
<path d="M18.166 19.6951H21.3479C22.1013 19.6951 22.7115 19.0848 22.7115 18.3314V8.55869L20.2531 8.32959L18.1661 11.9678V19.6951H18.166Z" fill="#00A94B"/>
<path d="M18.1659 6.05871L16.2969 9.62523L18.1659 11.9678L22.7114 8.5587V6.74054C22.7114 5.05531 20.7875 4.09281 19.4386 5.10417L18.1659 6.05871Z" fill="#FFBC00"/>
<path fill-rule="evenodd" clip-rule="evenodd" d="M7.25559 11.9677L5.47461 8.20559L7.25559 6.05859L12.7101 10.1495L18.1646 6.05859V11.9677L12.7101 16.0586L7.25559 11.9677Z" fill="#FF4131"/>
<path d="M2.71094 6.74054V8.5587L7.25641 11.9678V6.05871L5.98367 5.10417C4.6348 4.09281 2.71094 5.05531 2.71094 6.74054Z" fill="#E51C19"/>
</svg>
