<svg width="25" height="25" viewBox="0 0 25 25" fill="none" xmlns="http://www.w3.org/2000/svg">
<g clip-path="url(#clip0_464_7151)">
<path d="M2.21065 1.82616C0.324648 3.78516 0.710648 5.86616 0.710648 12.1882C0.710648 17.4382 -0.205352 22.7012 4.58865 23.9402C6.08565 24.3252 19.3496 24.3252 20.8446 23.9382C22.8406 23.4232 24.4646 21.8042 24.6866 18.9812C24.7176 18.5872 24.7176 5.79616 24.6856 5.39416C24.4496 2.38716 22.5986 0.654162 20.1596 0.303162C19.6006 0.222162 19.4886 0.198162 16.6206 0.193162C6.44765 0.198162 4.21765 -0.254838 2.21065 1.82616Z" fill="url(#paint0_linear_464_7151)"/>
<path d="M12.7088 3.33228C9.07775 3.33228 5.62975 3.00928 4.31275 6.38928C3.76875 7.78528 3.84775 9.59828 3.84775 12.1943C3.84775 14.4723 3.77475 16.6133 4.31275 17.9983C5.62675 21.3803 9.10275 21.0563 12.7068 21.0563C16.1838 21.0563 19.7688 21.4183 21.1018 17.9983C21.6468 16.5883 21.5668 14.8023 21.5668 12.1943C21.5668 8.73228 21.7578 6.49728 20.0788 4.81928C18.3788 3.11928 16.0798 3.33228 12.7048 3.33228H12.7088ZM11.9148 4.92928C19.4888 4.91728 20.4528 4.07528 19.9208 15.7723C19.7318 19.9093 16.5818 19.4553 12.7098 19.4553C5.64975 19.4553 5.44675 19.2533 5.44675 12.1903C5.44675 5.04528 6.00675 4.93328 11.9148 4.92728V4.92928ZM17.4388 6.40028C16.8518 6.40028 16.3758 6.87628 16.3758 7.46328C16.3758 8.05028 16.8518 8.52628 17.4388 8.52628C18.0258 8.52628 18.5018 8.05028 18.5018 7.46328C18.5018 6.87628 18.0258 6.40028 17.4388 6.40028ZM12.7088 7.64328C10.1958 7.64328 8.15875 9.68128 8.15875 12.1943C8.15875 14.7073 10.1958 16.7443 12.7088 16.7443C15.2218 16.7443 17.2578 14.7073 17.2578 12.1943C17.2578 9.68128 15.2218 7.64328 12.7088 7.64328ZM12.7088 9.24028C16.6138 9.24028 16.6188 15.1483 12.7088 15.1483C8.80475 15.1483 8.79875 9.24028 12.7088 9.24028Z" fill="white"/>
</g>
<defs>
<linearGradient id="paint0_linear_464_7151" x1="2.25667" y1="22.6603" x2="24.5621" y2="3.35514" gradientUnits="userSpaceOnUse">
<stop stop-color="#FFDD55"/>
<stop offset="0.5" stop-color="#FF543E"/>
<stop offset="1" stop-color="#C837AB"/>
</linearGradient>
<clipPath id="clip0_464_7151">
<rect width="24" height="24" fill="white" transform="translate(0.710938 0.193359)"/>
</clipPath>
</defs>
</svg>
