<svg width="60" height="61" viewBox="0 0 60 61" fill="none" xmlns="http://www.w3.org/2000/svg">
<g clip-path="url(#clip0_242_3017)">
<path d="M8.49538 22.3545C8.49538 21.9066 8.85831 21.5437 9.3062 21.5437H33.5948C34.0425 21.5437 34.4057 21.9066 34.4057 22.3545C34.4057 22.8024 34.0425 23.1654 33.5948 23.1654H9.3062C8.85831 23.1652 8.49538 22.8024 8.49538 22.3545ZM21.7585 28.3814H9.3062C8.85831 28.3814 8.49538 28.7443 8.49538 29.1922C8.49538 29.6401 8.85831 30.003 9.3062 30.003H21.7587C22.2066 30.003 22.5695 29.6401 22.5695 29.1922C22.5695 28.7443 22.2064 28.3814 21.7585 28.3814ZM21.7585 35.2189H9.3062C8.85831 35.2189 8.49538 35.5821 8.49538 36.0297C8.49538 36.4774 8.85831 36.8405 9.3062 36.8405H21.7587C22.2066 36.8405 22.5695 36.4774 22.5695 36.0297C22.5695 35.5821 22.2064 35.2189 21.7585 35.2189ZM21.7585 42.0564H9.3062C8.85831 42.0564 8.49538 42.4196 8.49538 42.8673C8.49538 43.3149 8.85831 43.6781 9.3062 43.6781H21.7587C22.2066 43.6781 22.5695 43.3149 22.5695 42.8673C22.5694 42.4196 22.2064 42.0564 21.7585 42.0564ZM59.6345 41.4821C59.4165 41.9578 59.0275 42.3193 58.5391 42.5009L56.0118 43.44C55.7911 43.5218 55.5615 43.5624 55.3324 43.5624C55.0548 43.5624 54.7776 43.5028 54.5169 43.3829C54.3329 43.2985 54.1725 43.1819 54.0265 43.0507C53.9643 43.6229 53.7485 44.1712 53.372 44.5838C52.8552 45.1502 52.1584 45.3714 51.4146 45.2267C51.3961 45.6004 51.2974 45.9762 51.109 46.3278C50.5547 47.3635 49.4003 47.875 48.3013 47.6612C48.2807 48.0323 48.1788 48.397 47.9988 48.7338C47.8948 48.9284 47.7613 49.0993 47.6156 49.2581V51.5727C47.6156 54.4264 45.341 56.7533 42.5101 56.8491C41.8807 59.0645 39.8441 60.6934 37.4297 60.6934H5.47089C2.55679 60.6934 0.185852 58.3227 0.185852 55.4083V9.81336C0.185852 6.95926 2.46163 4.63227 5.293 4.53734C5.9312 2.3048 8.00015 0.693359 10.3714 0.693359H42.3305C45.2448 0.693359 47.6155 3.0643 47.6155 5.9784V31.2105C47.7238 31.255 47.8297 31.2995 47.9333 31.3428C48.7387 31.6796 49.2472 31.8638 49.6496 31.8473C49.5614 31.4377 49.6 31.0128 49.7782 30.6241C49.9962 30.1488 50.3852 29.7869 50.8735 29.6056L53.4015 28.6668C53.8903 28.486 54.4214 28.5056 54.8965 28.7238C55.3716 28.9418 55.7332 29.3308 55.9147 29.8191L59.6917 39.9873C59.8726 40.4759 59.8526 41.007 59.6345 41.4821ZM47.3072 32.8387C45.7802 32.1999 44.2016 31.539 42.0055 33.0547C41.5399 33.3766 41.0614 33.7832 40.5826 34.2666C40.2944 34.5575 39.9988 34.8484 39.71 35.1318C39.1226 35.7088 38.4268 36.3924 38.0519 36.8585C39.16 38.0135 40.315 37.6619 42.1345 36.9772C43.6168 36.4193 45.2933 35.7868 46.7787 36.9181C47.1867 37.1509 47.788 37.4476 48.4235 37.7616C50.2326 38.6551 51.756 39.4429 52.7373 40.2399L50.1978 33.403C50.0052 33.446 49.8125 33.4727 49.6207 33.4727C48.8217 33.4727 48.0346 33.1433 47.3072 32.8387ZM7.01038 4.52832H37.4297C40.344 4.52832 42.7147 6.89926 42.7147 9.81336V30.8575C43.9439 30.4033 45.0347 30.4443 45.9939 30.6678V5.9784C45.9939 3.95855 44.3507 2.315 42.3305 2.315H10.3714C8.89206 2.315 7.58062 3.21922 7.01038 4.52832ZM25.8316 13.8555L30.2051 10.9071C30.4793 10.7223 30.8372 10.7223 31.1116 10.9071L35.0221 13.543V6.14996H25.8316V13.8555ZM41.0931 55.4083V53.4248C40.9233 53.4664 40.7519 53.49 40.5816 53.49C40.1851 53.49 39.795 53.3833 39.4482 53.1976C38.8792 52.8935 38.4047 52.3651 38.1507 51.7491C38.1343 51.7544 38.118 51.7597 38.1012 51.7645C37.4518 51.9609 36.7662 51.8943 36.1703 51.5755C35.7274 51.3543 35.3637 50.9901 35.1278 50.5324C35.0143 50.5857 34.8966 50.6311 34.7746 50.6681C34.1253 50.8645 33.4391 50.7979 32.8437 50.4791C32.2757 50.1956 31.8385 49.6767 31.6322 49.0279C31.5219 48.6806 31.4865 48.3164 31.524 47.9627C31.1545 47.9473 30.7829 47.8508 30.4356 47.6649C29.8682 47.382 29.431 46.8631 29.2247 46.2144C29.0137 45.5519 29.0761 44.8298 29.3954 44.2327L29.687 43.6877C29.5185 43.7342 29.347 43.764 29.1735 43.764C28.9721 43.764 28.7696 43.7323 28.5728 43.6685L26.0071 42.8412C24.9814 42.5103 24.416 41.4059 24.7468 40.3803L28.0774 30.057C28.2374 29.5611 28.582 29.1568 29.0476 28.9182C29.5132 28.6801 30.0429 28.6371 30.5386 28.7966L33.1051 29.6245C33.7634 29.8371 34.228 30.3691 34.3917 30.9934C34.9869 31.0142 35.5808 30.8968 36.2418 30.7654C37.6261 30.4904 39.1713 30.1856 41.0934 31.1348V9.81336C41.0934 7.79352 39.4502 6.14996 37.43 6.14996H36.6441V15.0676C36.6441 15.3675 36.4788 15.6427 36.2139 15.7834C35.9489 15.9243 35.629 15.9071 35.3798 15.7398L30.6586 12.5572L25.8269 15.8144C25.6931 15.9046 25.5353 15.9529 25.3738 15.9529H25.0212C24.5733 15.9529 24.2103 15.59 24.2103 15.1421V6.14996H5.47089C3.45105 6.14996 1.80749 7.79352 1.80749 9.81336V55.4083C1.80749 57.4285 3.45105 59.0717 5.47089 59.0717H37.4297C39.4499 59.0717 41.0931 57.4285 41.0931 55.4083ZM43.4921 49.2819C43.6158 49.7971 43.5129 50.3091 43.3576 50.7336L43.44 50.7764C43.9441 51.0361 44.2028 50.6444 44.2687 50.5182C44.3428 50.3769 44.5135 49.9146 43.9584 49.5323L43.4921 49.2819ZM42.6898 52.2141L42.6267 52.1812C42.6201 52.1925 42.6132 52.203 42.6067 52.2141H42.6898ZM40.0754 49.652L40.0744 49.6536L39.6562 50.4354C39.3896 50.9342 39.8009 51.5476 40.2131 51.7677C40.3672 51.8511 40.8391 52.1023 41.2693 51.2984L41.5733 50.73C41.5735 50.7295 41.5737 50.7289 41.5739 50.7283C42.1487 49.6525 41.9824 49.4979 41.3701 49.1701C41.1073 49.0291 40.8253 49.0951 40.6813 49.1458C40.419 49.2386 40.1984 49.4233 40.0754 49.652ZM38.7404 46.7693C38.2976 46.5328 37.7412 46.7001 37.503 47.1451C37.5027 47.1458 37.5021 47.1464 37.5016 47.1472L36.5597 48.9082V48.9087C36.4457 49.122 36.4256 49.3865 36.5042 49.6336C36.5464 49.7655 36.6552 50.0057 36.9149 50.1356C37.1482 50.2602 37.3958 50.2839 37.6307 50.2127C37.8655 50.1414 38.0583 49.9846 38.1728 49.7709L38.2276 49.6685C38.2281 49.6675 38.2288 49.6668 38.2292 49.666L38.6423 48.8936C38.643 48.8922 38.6434 48.8907 38.6441 48.8894H38.6447L39.116 48.0079C39.3538 47.5626 39.1854 47.0073 38.7404 46.7693ZM36.3729 45.2484C36.3016 45.013 36.1448 44.8208 35.9311 44.7063C35.4872 44.4682 34.9314 44.6371 34.6932 45.0816C34.6929 45.0823 34.6923 45.0829 34.6918 45.0836L33.8666 46.6266L33.2332 47.8112C33.1192 48.0249 33.0991 48.2889 33.1778 48.5364C33.2195 48.6684 33.3287 48.9091 33.5884 49.0389C34.054 49.2876 34.6083 49.1176 34.8463 48.6741L35.1302 48.1432C35.1306 48.1425 35.1312 48.1419 35.1316 48.1412L36.0722 46.3827C36.0725 46.3821 36.0726 46.3812 36.073 46.3807L36.3057 45.9446C36.4205 45.7304 36.4441 45.4834 36.3729 45.2484ZM33.0959 42.5969C32.8921 42.5008 32.6604 42.4835 32.4397 42.5505C32.2043 42.6218 32.0121 42.7786 31.8976 42.9923L31.5509 43.6406C31.5507 43.6407 31.5506 43.6409 31.5505 43.6411L30.825 44.9977C30.711 45.211 30.6909 45.4755 30.7696 45.723C30.8117 45.8545 30.9205 46.0952 31.1808 46.225C31.6437 46.4737 32.199 46.3053 32.4371 45.8613C32.438 45.8599 32.4391 45.8587 32.4398 45.8572L33.2638 44.3168V44.3162C33.2638 44.3162 33.2638 44.3162 33.2638 44.3157L33.5108 43.8549C33.6032 43.6817 33.883 43.1586 33.0959 42.5969ZM32.8214 31.5872C32.8768 31.4156 32.7786 31.2234 32.6066 31.168L30.0403 30.34C30.0049 30.3284 29.9714 30.324 29.9406 30.324C29.873 30.324 29.8184 30.3453 29.7865 30.3617C29.7403 30.3855 29.6569 30.4422 29.6208 30.555L26.29 40.8782C26.2345 41.0503 26.333 41.2425 26.5048 41.2979L29.071 42.1256C29.1842 42.1625 29.2788 42.1277 29.325 42.1045C29.3712 42.0807 29.4546 42.0238 29.4907 41.9113L30.0698 40.1161C30.0905 40.0439 30.1083 39.9712 30.1315 39.8995C30.1396 39.8746 30.1521 39.853 30.1623 39.8295L32.8214 31.5872ZM45.9939 51.5729V50.0865C45.9879 50.0872 45.9819 50.0895 45.9759 50.0901C45.9902 50.504 45.8931 50.9136 45.7046 51.2721C45.2976 52.0481 44.5518 52.4814 43.7567 52.4814C43.4108 52.4814 43.0555 52.3981 42.7147 52.2261V55.2165C44.5549 55.0235 45.9939 53.4631 45.9939 51.5729ZM52.2391 42.0247C51.6838 41.1806 49.2899 39.9977 47.7053 39.2154C46.991 38.8627 46.3745 38.5582 45.92 38.2947C45.8863 38.2752 45.8541 38.253 45.8235 38.2292C45.0824 37.6433 44.1559 37.9478 42.7064 38.4948C40.8937 39.1773 38.4105 40.1101 36.4021 37.41C36.2326 37.1814 36.1951 36.8811 36.3028 36.6181C36.5726 35.9604 37.3417 35.1849 38.5742 33.9746C38.8571 33.6964 39.1475 33.4114 39.43 33.1263C39.6606 32.893 39.8928 32.6744 40.1246 32.4706C38.8124 31.9079 37.7514 32.1191 36.5578 32.3561C35.8068 32.5053 35.036 32.6555 34.1974 32.6048L31.6235 40.5821C31.5664 40.7857 31.5192 40.991 31.4907 41.1975C31.6412 41.1161 31.8016 41.0491 31.9696 40.9985C32.6194 40.8 33.305 40.8686 33.901 41.1875C33.938 41.2071 33.9729 41.2297 34.006 41.2545C34.6754 41.7243 35.086 42.3377 35.2112 42.9938C35.7063 42.9369 36.2237 43.0239 36.6967 43.2767C37.2921 43.595 37.7286 44.1287 37.925 44.778C37.9535 44.8714 37.9762 44.966 37.9937 45.0609C38.4968 44.996 39.0246 45.0826 39.5055 45.3391C40.0952 45.6548 40.506 46.1725 40.7059 46.7606C40.9379 46.427 41.3851 46.3114 41.7521 46.5068L44.4418 47.951C44.488 47.9659 44.5337 47.9837 44.5778 48.0075C44.5788 48.0075 44.5793 48.0079 44.5805 48.0085L45.2519 48.368C45.48 48.4895 45.7424 48.5143 45.993 48.4393C46.2428 48.3632 46.4475 48.1965 46.5689 47.969C46.6909 47.741 46.7162 47.4781 46.6407 47.2279C46.5647 46.9788 46.3984 46.7745 46.1726 46.6525L46.1705 46.6515C46.1428 46.6367 46.1193 46.6176 46.0941 46.6002L42.9874 44.939C42.5926 44.7284 42.4437 44.237 42.6548 43.8421C42.8654 43.4468 43.359 43.2973 43.7517 43.5096L46.9396 45.2141C46.9669 45.2287 46.9901 45.2476 47.015 45.2648L48.3353 45.9711C48.8188 46.2282 49.4216 46.0461 49.6798 45.563C49.9289 45.097 49.764 44.5208 49.3167 44.2493L44.9389 41.8733C44.5457 41.6595 44.3994 41.1676 44.6133 40.7737C44.827 40.3804 45.319 40.2358 45.7128 40.448L49.9967 42.7732C50.0099 42.7794 50.0236 42.7828 50.0366 42.7897L51.3678 43.5018C51.9021 43.7864 52.1 43.5726 52.1744 43.4907C52.4565 43.1813 52.5448 42.4882 52.2391 42.0247ZM58.1713 40.552L54.3943 30.3836C54.3532 30.2723 54.2676 30.2192 54.2202 30.1975C54.1901 30.1838 54.1399 30.1664 54.0792 30.1664C54.0444 30.1664 54.0063 30.1719 53.9662 30.1866L51.4383 31.1257C51.3269 31.1668 51.2736 31.2523 51.2519 31.2998C51.2303 31.3473 51.2003 31.4434 51.2414 31.5542L55.0184 41.7226C55.0595 41.8339 55.145 41.8872 55.1925 41.9089C55.2395 41.93 55.336 41.9601 55.4469 41.9195L57.9743 40.9804C58.0856 40.9393 58.1389 40.8537 58.1606 40.8063C58.1824 40.7589 58.2124 40.6629 58.1713 40.552Z" fill="#006400"/>
</g>
<defs>
<clipPath id="clip0_242_3017">
<rect width="60" height="60" fill="white" transform="translate(0 0.693359)"/>
</clipPath>
</defs>
</svg>
