<svg width="60" height="61" viewBox="0 0 60 61" fill="none" xmlns="http://www.w3.org/2000/svg">
<path d="M55.7868 26.3519C55.5572 19.8072 52.9068 13.6872 48.2531 9.03344C43.3753 4.15469 36.8925 1.46875 30 1.46875C16.079 1.46875 4.70435 12.5491 4.21403 26.3519C2.08966 27.2959 0.602783 29.4222 0.602783 31.8934V38.7016C0.602783 42.0447 3.32247 44.7653 6.66653 44.7653C8.83028 44.7653 10.59 43.0056 10.59 40.8419V29.7522C10.59 27.7206 9.03185 26.0641 7.05091 25.8672C7.78216 13.8419 17.7928 4.28125 30 4.28125C36.1425 4.28125 41.9184 6.67563 46.2656 11.0228C50.2575 15.0147 52.5937 20.2178 52.9453 25.8681C50.9662 26.0669 49.4109 27.7225 49.4109 29.7522V40.8409C49.4109 42.8894 50.9934 44.5563 52.9978 44.7297V47.5319C52.9978 50.6875 50.43 53.2544 47.2743 53.2544H43.0359C42.8278 52.66 42.5015 52.1106 42.044 51.655C41.2425 50.8497 40.1737 50.4063 39.0356 50.4063H34.6668C34.0397 50.4063 33.4378 50.5394 32.8865 50.7963C31.3828 51.4872 30.4115 53.0041 30.4115 54.6606C30.4115 55.7988 30.855 56.8675 31.6584 57.6672C32.4618 58.4725 33.5306 58.9159 34.6668 58.9159H39.0356C40.8468 58.9159 42.4434 57.745 43.0387 56.0669H47.2743C51.9815 56.0669 55.8103 52.2381 55.8103 47.5319V44.2291C57.9215 43.2794 59.3972 41.1606 59.3972 38.6997V31.8916C59.3972 29.4222 57.9103 27.2959 55.7868 26.3519ZM7.77653 29.7522V40.8409C7.77653 41.4531 7.27872 41.9519 6.6656 41.9519C4.8731 41.9519 3.41435 40.4931 3.41435 38.7006V31.8925C3.41435 30.0991 4.8731 28.6413 6.6656 28.6413C7.27872 28.6413 7.77653 29.14 7.77653 29.7522ZM40.4465 54.9625C40.3068 55.6244 39.7125 56.1053 39.0347 56.1053H34.6659C34.2815 56.1053 33.9206 55.9553 33.645 55.6797C33.3731 55.4088 33.2231 55.0469 33.2231 54.6625C33.2231 54.1009 33.5522 53.5881 34.0678 53.3509C34.2515 53.2647 34.4531 53.2206 34.6659 53.2206H39.0347C39.419 53.2206 39.78 53.3697 40.0547 53.6453C40.3265 53.9163 40.4765 54.2781 40.4765 54.6625C40.4775 54.7656 40.4662 54.8688 40.4465 54.9625ZM56.5847 38.7006C56.5847 40.4931 55.1259 41.9519 53.3334 41.9519C52.7212 41.9519 52.2225 41.4541 52.2225 40.8409V29.7522C52.2225 29.14 52.7203 28.6413 53.3334 28.6413C55.1259 28.6413 56.5847 30.1 56.5847 31.8925V38.7006Z" fill="#006400"/>
<path d="M39.1059 39.186C42.3919 39.186 45.0647 36.5123 45.0647 33.2273V21.0857C45.0647 19.4976 44.4441 18.0013 43.3172 16.8745C42.1903 15.7476 40.695 15.127 39.1059 15.127H20.8941C17.6081 15.127 14.9353 17.7998 14.9353 21.0857V33.2273C14.9353 36.5132 17.6081 39.186 20.8941 39.186H21.0056V42.3323C21.0056 43.5323 21.7209 44.5973 22.8272 45.0463C23.1844 45.1898 23.5556 45.261 23.9231 45.261C24.6891 45.261 25.4353 44.9573 25.9819 44.392L31.2159 39.186H39.1059ZM29.6456 36.7823L23.9812 42.4157C23.9559 42.442 23.9372 42.4616 23.8837 42.4382C23.8191 42.412 23.8191 42.3698 23.8191 42.3323V37.7798C23.8191 37.0035 23.19 36.3735 22.4128 36.3735H20.895C19.1597 36.3735 17.7487 34.9616 17.7487 33.2273V21.0857C17.7487 19.3504 19.1597 17.9395 20.895 17.9395H39.1069C39.945 17.9395 40.7334 18.2676 41.3297 18.8629C41.9259 19.4591 42.2531 20.2485 42.2531 21.0857V33.2273C42.2531 34.9626 40.8412 36.3735 39.1069 36.3735H30.6375C30.2653 36.3735 29.9091 36.5207 29.6456 36.7823Z" fill="#006400"/>
<path d="M23.1684 25.3047C22.0247 25.3047 21.0938 26.2366 21.0938 27.3794C21.0938 28.5222 22.0256 29.4541 23.1684 29.4541C24.3131 29.4541 25.245 28.5222 25.245 27.3794C25.245 26.2366 24.3141 25.3047 23.1684 25.3047Z" fill="#006400"/>
<path d="M29.999 25.3047C28.8553 25.3047 27.9243 26.2366 27.9243 27.3794C27.9243 28.5222 28.8562 29.4541 29.999 29.4541C31.1446 29.4541 32.0756 28.5222 32.0756 27.3794C32.0756 26.2366 31.1446 25.3047 29.999 25.3047Z" fill="#006400"/>
<path d="M36.8297 25.3047C35.6859 25.3047 34.755 26.2366 34.755 27.3794C34.755 28.5222 35.6869 29.4541 36.8297 29.4541C37.9744 29.4541 38.9063 28.5222 38.9063 27.3794C38.9063 26.2366 37.9744 25.3047 36.8297 25.3047Z" fill="#006400"/>
</svg>
