<svg width="60" height="61" viewBox="0 0 60 61" fill="none" xmlns="http://www.w3.org/2000/svg">
<path d="M52.2143 48.0663H51.8611C52.2655 47.6921 52.6311 47.2477 52.948 46.7332C53.7703 45.3987 54.2612 43.5975 54.2612 41.9153C54.2612 38.66 51.6129 36.0117 48.3576 36.0117C45.1024 36.0117 42.4574 38.66 42.4574 41.9153C42.4574 44.2184 43.2803 46.6116 44.8485 48.0664H44.501C42.256 48.0664 40.2842 49.1825 39.1795 50.8543C38.0748 49.1827 36.103 48.0664 33.858 48.0664H33.5025C33.9067 47.6921 34.2722 47.2477 34.589 46.7331C35.411 45.3984 35.9017 43.5974 35.9017 41.9153C35.9017 38.66 33.2549 36.0117 30.0014 36.0117C26.7479 36.0117 24.0978 38.66 24.0978 41.9153C24.0978 44.2184 24.9212 46.6116 26.4903 48.0664H26.1449C23.8986 48.0664 21.9257 49.1827 20.8203 50.8546C19.7156 49.1827 17.7438 48.0664 15.4986 48.0664H15.151C16.7192 46.6116 17.5421 44.2184 17.5421 41.9153C17.5421 38.66 14.8953 36.0117 11.6419 36.0117C8.38838 36.0117 5.73842 38.66 5.73842 41.9153C5.73842 43.5976 6.2292 45.3987 7.05151 46.7332C7.3685 47.2477 7.73413 47.6921 8.13854 48.0663H7.78534C4.33229 48.0663 1.52307 50.7027 1.52307 53.9433V57.5341C1.52307 58.0519 1.94284 58.4716 2.46057 58.4716C2.97831 58.4716 3.39807 58.0519 3.39807 57.5341V53.9433C3.39807 51.7365 5.36612 49.9413 7.78534 49.9413H15.4985C17.9158 49.9413 19.8824 51.7366 19.8824 53.9433V57.5341C19.8824 58.0519 20.3021 58.4716 20.8199 58.4716C21.3376 58.4716 21.7574 58.0519 21.7574 57.5341V53.9433C21.7574 51.7365 23.7255 49.9413 26.1446 49.9413H33.8577C36.275 49.9413 38.2417 51.7366 38.2417 53.9433V57.5341C38.2417 58.0519 38.6614 58.4716 39.1792 58.4716C39.6969 58.4716 40.1167 58.0519 40.1167 57.5341V53.9433C40.1167 51.7365 42.0833 49.9413 44.5006 49.9413H52.2137C54.6329 49.9413 56.601 51.7366 56.601 53.9433V57.5341C56.601 58.0519 57.0207 58.4716 57.5385 58.4716C58.0562 58.4716 58.476 58.0519 58.476 57.5341V53.9433C58.476 50.7027 55.6666 48.0663 52.2137 48.0663H52.2143ZM44.3325 41.9152C44.3325 39.6939 46.1382 37.8866 48.3578 37.8866C50.5773 37.8866 52.3863 39.6938 52.3863 41.9152C52.3863 44.1033 51.2926 47.5747 48.3578 47.5747C45.5814 47.5747 44.3325 44.2652 44.3325 41.9152ZM25.9731 41.9152C25.9731 39.6939 27.7803 37.8866 30.0016 37.8866C32.2229 37.8866 34.0269 39.6938 34.0269 41.9152C34.0269 44.1033 32.9341 47.5747 30.0016 47.5747C27.2229 47.5747 25.9731 44.2652 25.9731 41.9152ZM7.61377 41.9152C7.61377 39.6939 9.42092 37.8866 11.6422 37.8866C13.8635 37.8866 15.6675 39.6938 15.6675 41.9152C15.6675 44.2651 14.4187 47.5747 11.6422 47.5747C8.70749 47.5747 7.61377 44.1033 7.61377 41.9152Z" fill="#006400"/>
<path d="M12.8244 30.3059C13.5921 31.0778 14.5333 31.4692 15.6218 31.4692C16.6994 31.4692 17.6673 31.0663 18.4193 30.3057L20.9691 27.7396V35.0792C20.9691 35.5969 21.3888 36.0167 21.9066 36.0167C22.4243 36.0167 22.8441 35.5969 22.8441 35.0792V25.4661C22.8441 25.0864 22.615 24.7441 22.264 24.5993C21.9129 24.4546 21.5092 24.5359 21.2415 24.8052L17.0876 28.9857C16.6828 29.3951 16.2033 29.5942 15.6218 29.5942C15.0403 29.5942 14.5624 29.3945 14.1546 28.9845L7.4017 22.1785C7.01721 21.7906 6.8065 21.2729 6.80849 20.7208C6.81072 20.1688 7.02517 19.6532 7.4126 19.2691C7.80049 18.8845 8.31658 18.673 8.86678 18.673H8.87369C9.42564 18.6748 9.94115 18.8893 10.3254 19.2767L14.9594 23.9504C15.1353 24.1279 15.3749 24.2277 15.6249 24.2277H15.6251C15.8749 24.2277 16.1145 24.128 16.2905 23.9507L20.34 19.8713C21.7467 18.4529 23.4729 17.7337 25.4708 17.7337H26.9103C26.8466 18.2763 26.9179 18.8509 27.1022 19.2019C27.1041 19.2054 27.106 19.2089 27.1078 19.2125C27.2597 19.4927 27.464 19.7457 27.7061 19.9573L26.2832 29.9645C26.2437 30.2421 26.3305 30.5229 26.52 30.7298L29.1608 33.613C29.3384 33.8069 29.589 33.9173 29.8518 33.9174H29.8521C30.1147 33.9174 30.3655 33.8071 30.5431 33.6135L33.1872 30.7302C33.3768 30.5234 33.4638 30.2425 33.4242 29.9647L32.0013 19.9574C32.245 19.7443 32.4491 19.4897 32.5985 19.2086C32.7872 18.856 32.8607 18.2782 32.7971 17.7339H34.2367C36.2346 17.7339 37.9608 18.4531 39.3676 19.8715L43.4134 23.9506C43.5894 24.1281 43.8291 24.228 44.0792 24.2279C44.3291 24.2279 44.5688 24.1279 44.7448 23.9505L49.3778 19.2777C49.7637 18.8896 50.2804 18.6749 50.8328 18.6732H50.8398C51.3894 18.6732 51.9045 18.8843 52.2915 19.2692C52.6799 19.6543 52.8948 20.1706 52.8969 20.723C52.8989 21.2743 52.6881 21.7908 52.3028 22.1784L45.5485 28.9858C45.1435 29.3954 44.6639 29.5943 44.0824 29.5943C43.501 29.5943 43.0232 29.3946 42.6151 28.9844L38.4662 24.8056C38.1987 24.5362 37.7949 24.4547 37.4438 24.5993C37.0926 24.7441 36.8635 25.0864 36.8635 25.4661V35.0792C36.8635 35.5969 37.2832 36.0167 37.801 36.0167C38.3187 36.0167 38.7385 35.5969 38.7385 35.0792V27.7409L41.2851 30.3058C42.0526 31.0778 42.9938 31.4692 44.0823 31.4692C45.1709 31.4692 46.1169 31.0772 46.8804 30.3051L53.6329 23.4995C54.371 22.7571 54.7754 21.7687 54.7718 20.7161C54.7681 19.6623 54.3559 18.6756 53.6125 17.9385C52.8726 17.2027 51.8883 16.7979 50.8399 16.7979C50.8355 16.7979 50.831 16.7979 50.8267 16.7979C49.7738 16.8013 48.787 17.2124 48.0472 17.9564L44.0789 21.9589L40.6989 18.5511C38.9271 16.7645 36.7528 15.8588 34.2366 15.8588H33.5013C34.0754 15.3888 34.589 14.7952 35.0306 14.0786C35.9671 12.5594 36.5262 10.5068 36.5262 8.58824C36.5262 4.90809 33.5322 1.91406 29.852 1.91406C26.1719 1.91406 23.1778 4.90809 23.1778 8.58824C23.1778 11.3607 24.224 14.2473 26.2108 15.8588H25.4706C22.9544 15.8588 20.7802 16.7645 19.0087 18.5507L15.6252 21.9591L11.6567 17.9564C10.9193 17.2128 9.93318 16.8013 8.87978 16.7979C7.82521 16.7915 6.83685 17.1992 6.09236 17.9375C5.34904 18.6745 4.93748 19.6604 4.93338 20.7135C4.92951 21.7661 5.3331 22.7552 6.07033 23.4987L12.8242 30.3058L12.8244 30.3059ZM30.9128 17.808C30.9505 17.9429 30.9603 18.2259 30.9298 18.3522C30.8521 18.4844 30.7258 18.5998 30.579 18.6716C30.2145 18.8504 30.0062 19.2434 30.0635 19.6455L31.5059 29.7897L29.8528 31.5924L28.202 29.79L29.6445 19.6455C29.7017 19.2434 29.4935 18.8502 29.1288 18.6716C28.9844 18.6009 28.8578 18.4864 28.7766 18.3539C28.7468 18.2247 28.7567 17.9425 28.7942 17.806C28.8637 17.7473 28.9643 17.7339 29.0419 17.7339H30.6628C30.7154 17.7339 30.8352 17.7414 30.913 17.8081L30.9128 17.808ZM25.0529 8.58824C25.0529 5.94191 27.2058 3.78906 29.8521 3.78906C32.4985 3.78906 34.6513 5.94191 34.6513 8.58824C34.6513 11.1719 33.3484 15.2709 29.8521 15.2709C26.3558 15.2709 25.0529 11.1719 25.0529 8.58824Z" fill="#006400"/>
<path d="M41.7473 13.8938H42.3777V16.2415C42.3777 16.6023 42.5847 16.9312 42.91 17.087C43.0391 17.1488 43.1774 17.1791 43.315 17.179C43.5248 17.179 43.7328 17.1086 43.9026 16.9722L47.7311 13.8938H52.4634C53.898 13.8938 55.0651 12.7267 55.0651 11.2921V4.51574C55.0651 3.08113 53.898 1.91406 52.4634 1.91406H41.7474C40.3128 1.91406 39.1458 3.08113 39.1458 4.51574V11.2921C39.1458 12.7267 40.3128 13.8938 41.7474 13.8938H41.7473ZM41.0206 4.51574C41.0206 4.11508 41.3466 3.78906 41.7473 3.78906H52.4633C52.864 3.78906 53.19 4.11508 53.19 4.51574V11.2921C53.19 11.6928 52.864 12.0188 52.4633 12.0188H47.4009C47.1873 12.0188 46.98 12.0918 46.8134 12.2256L44.2525 14.2847V12.9563C44.2525 12.4386 43.8328 12.0188 43.315 12.0188H41.7472C41.3465 12.0188 41.0205 11.6928 41.0205 11.2921V4.51574H41.0206Z" fill="#006400"/>
<path d="M43.5909 10.3691H50.6197C51.1375 10.3691 51.5572 9.94938 51.5572 9.43164C51.5572 8.91391 51.1375 8.49414 50.6197 8.49414H43.5909C43.0732 8.49414 42.6534 8.91391 42.6534 9.43164C42.6534 9.94938 43.0732 10.3691 43.5909 10.3691Z" fill="#006400"/>
<path d="M45.9827 7.31445H50.6198C51.1375 7.31445 51.5573 6.89469 51.5573 6.37695C51.5573 5.85922 51.1375 5.43945 50.6198 5.43945H45.9827C45.4649 5.43945 45.0452 5.85922 45.0452 6.37695C45.0452 6.89469 45.4649 7.31445 45.9827 7.31445Z" fill="#006400"/>
<path d="M43.592 7.31445C44.1099 7.31445 44.5295 6.89469 44.5295 6.37695C44.5295 5.85922 44.1099 5.43945 43.592 5.43945H43.5908C43.0731 5.43945 42.6539 5.85922 42.6539 6.37695C42.6539 6.89469 43.0743 7.31445 43.592 7.31445Z" fill="#006400"/>
</svg>
