<svg width="36" height="37" viewBox="0 0 36 37" fill="none" xmlns="http://www.w3.org/2000/svg">
<g clip-path="url(#clip0_242_1603)">
<path d="M28.9005 0.09375C30.4014 0.0938957 31.738 0.933121 32.3956 2.25781C34.531 2.8151 36.048 4.7546 36.048 6.99219V31.3984C36.048 34.0974 33.8524 36.293 31.1534 36.293H12.0333C11.6868 36.293 11.4054 36.0125 11.4054 35.666C11.4054 35.3196 11.6868 35.0391 12.0333 35.0391H31.1534C33.1604 35.0391 34.7931 33.4054 34.7931 31.3984V20.4443C34.7929 18.4376 33.1603 16.8047 31.1534 16.8047H22.2638C20.6099 16.8046 19.0806 15.9791 18.173 14.5967L16.2599 11.6836C15.5847 10.6552 14.4471 10.041 13.2169 10.041H4.84583C2.83886 10.041 1.2052 11.6747 1.2052 13.6816V31.3984C1.2052 33.4054 2.83886 35.0391 4.84583 35.0391H9.92297C10.2695 35.0391 10.5509 35.3196 10.5509 35.666C10.5509 36.0125 10.2695 36.293 9.92297 36.293H4.84583C2.14692 36.293 -0.0487061 34.0974 -0.0487061 31.3984V6.99219C-0.0487061 4.293 2.14663 2.09668 4.84583 2.09668H10.8468C11.531 0.867981 12.8267 0.09375 14.257 0.09375H28.9005ZM14.257 1.34766C13.1881 1.34766 12.2292 1.98423 11.8136 2.96875C11.6756 3.29449 11.6056 3.6407 11.6056 3.99902V5.09766H23.6642C25.8181 5.09766 27.5704 6.85056 27.5704 9.00488V15.5498H31.1534C31.2876 15.5498 31.4205 15.5567 31.5519 15.5674V7.51465C31.5519 7.16819 31.8323 6.88672 32.1788 6.88672C32.5254 6.88674 32.8058 7.16821 32.8058 7.51465V15.8408C33.5759 16.118 34.2566 16.5815 34.7931 17.1787V6.99219C34.7931 5.59234 33.9943 4.35125 32.796 3.74512C32.8017 3.82927 32.8058 3.91386 32.8058 3.99902V5.4541C32.8058 5.80053 32.5253 6.08103 32.1788 6.08105C31.8323 6.08105 31.5519 5.80054 31.5519 5.4541V3.99902C31.5518 3.66544 31.4897 3.33897 31.3683 3.02832L31.2863 2.84082C30.8446 1.92787 29.9292 1.3478 28.9005 1.34766H14.257ZM9.02161 6.35254C7.63313 6.35254 6.49402 7.4262 6.38293 8.78711H13.2169C14.8709 8.78711 16.4011 9.61253 17.3087 10.9951L19.2218 13.9082C19.897 14.9364 21.0338 15.5497 22.2638 15.5498H26.3165V9.00488C26.3165 7.54253 25.1261 6.35254 23.6642 6.35254H9.02161ZM4.84583 3.35156C2.83872 3.35156 1.2052 4.98501 1.2052 6.99219V10.4141C2.10159 9.4162 3.40144 8.78711 4.84583 8.78711H5.12317C5.23648 6.73374 6.9407 5.09766 9.02161 5.09766H10.3507V3.99902C10.3507 3.78006 10.3699 3.56404 10.4054 3.35156H4.84583Z" fill="#006400" stroke="#006400" stroke-width="0.2"/>
<path d="M23.9324 9.12012C24.095 8.81443 24.474 8.69788 24.78 8.86035C25.0861 9.02297 25.2023 9.40304 25.0398 9.70898L22.7332 14.0488C22.6464 14.212 22.4931 14.3277 22.3152 14.3672L22.238 14.3789C22.2185 14.3807 22.1989 14.3818 22.1794 14.3818C21.9904 14.3818 21.8099 14.2964 21.6902 14.1475L19.8533 11.8613C19.6366 11.5912 19.6799 11.1964 19.95 10.9795C20.2201 10.7627 20.615 10.8063 20.8318 11.0762L22.071 12.6201L23.9324 9.12012Z" fill="#006400" stroke="#006400" stroke-width="0.2"/>
<path d="M13.6396 18.8076C13.9861 18.8078 14.2666 19.0882 14.2666 19.4346C14.2666 19.7809 13.9861 20.0614 13.6396 20.0615H4.64453C4.29807 20.0615 4.01758 19.781 4.01758 19.4346C4.01758 19.0881 4.29799 18.8076 4.64453 18.8076H13.6396Z" fill="#006400" stroke="#006400" stroke-width="0.2"/>
<path d="M13.6396 20.7588C13.9861 20.7589 14.2666 21.0394 14.2666 21.3857C14.2666 21.7321 13.9861 22.0126 13.6396 22.0127H4.64453C4.29807 22.0127 4.01758 21.7322 4.01758 21.3857C4.01758 21.0393 4.29799 20.7588 4.64453 20.7588H13.6396Z" fill="#006400" stroke="#006400" stroke-width="0.2"/>
</g>
<defs>
<clipPath id="clip0_242_1603">
<rect width="36" height="36" fill="white" transform="translate(-0.000366211 0.193359)"/>
</clipPath>
</defs>
</svg>
