<svg width="36" height="37" viewBox="0 0 36 37" fill="none" xmlns="http://www.w3.org/2000/svg">
<path d="M30.9621 10.5198L22.4226 1.98037C22.3513 1.90661 22.2656 1.84828 22.1709 1.80901C22.0761 1.76973 21.9743 1.75035 21.8717 1.75206H7.92365C7.097 1.75206 6.30421 2.08044 5.71968 2.66497C5.13515 3.2495 4.80676 4.04229 4.80676 4.86894V31.5183C4.80676 32.3449 5.13515 33.1377 5.71968 33.7223C6.30421 34.3068 7.097 34.6352 7.92365 34.6352H28.0735C28.9002 34.6352 29.693 34.3068 30.2775 33.7223C30.862 33.1377 31.1904 32.3449 31.1904 31.5183V11.0708C31.1898 10.8642 31.1077 10.6663 30.9621 10.5198ZM28.5301 10.2915H23.8197C23.5098 10.2915 23.2125 10.1684 22.9933 9.94919C22.7741 9.73 22.6509 9.4327 22.6509 9.12271V4.41232L28.5301 10.2915ZM28.0735 33.0767H7.92598C7.51266 33.0767 7.11626 32.9125 6.824 32.6203C6.53173 32.328 6.36754 31.9316 6.36754 31.5183V4.86894C6.36754 4.45562 6.53173 4.05922 6.824 3.76696C7.11626 3.47469 7.51266 3.3105 7.92598 3.3105H21.0948V9.12271C21.0948 9.84602 21.3822 10.5397 21.8936 11.0512C22.4051 11.5626 23.0988 11.85 23.8221 11.85H29.6343V31.5183C29.6343 31.7231 29.5939 31.926 29.5154 32.1152C29.437 32.3045 29.322 32.4764 29.177 32.6211C29.032 32.7658 28.86 32.8806 28.6706 32.9588C28.4813 33.037 28.2784 33.077 28.0735 33.0767Z" fill="#006400"/>
<path d="M14.8696 13.7521C15.4938 13.7521 16.1039 13.567 16.6229 13.2203C17.1419 12.8735 17.5464 12.3806 17.7852 11.804C18.0241 11.2273 18.0866 10.5928 17.9648 9.9806C17.843 9.36843 17.5425 8.80611 17.1011 8.36476C16.6598 7.9234 16.0974 7.62284 15.4853 7.50107C14.8731 7.3793 14.2386 7.4418 13.6619 7.68066C13.0852 7.91951 12.5924 8.32401 12.2456 8.84298C11.8988 9.36196 11.7137 9.97211 11.7137 10.5963C11.7148 11.4329 12.0476 12.235 12.6392 12.8267C13.2308 13.4183 14.0329 13.7511 14.8696 13.7521ZM14.8696 8.99887C15.1855 8.99887 15.4944 9.09256 15.7571 9.26808C16.0198 9.44361 16.2245 9.69309 16.3454 9.98498C16.4663 10.2769 16.4979 10.598 16.4363 10.9079C16.3747 11.2178 16.2225 11.5024 15.9991 11.7258C15.7757 11.9492 15.4911 12.1013 15.1812 12.163C14.8714 12.2246 14.5502 12.193 14.2583 12.0721C13.9664 11.9512 13.7169 11.7464 13.5414 11.4837C13.3659 11.2211 13.2722 10.9122 13.2722 10.5963C13.2728 10.1728 13.4413 9.76686 13.7407 9.46742C14.0402 9.16799 14.4461 8.99949 14.8696 8.99887Z" fill="#006400"/>
<path d="M10.3027 19.7906C10.5093 19.7906 10.7075 19.7085 10.8536 19.5624C10.9998 19.4163 11.0819 19.2181 11.0819 19.0114V18.5361C11.0829 17.7705 11.3875 17.0366 11.9288 16.4952C12.4702 15.9539 13.2041 15.6493 13.9697 15.6483H15.7697C16.5352 15.6493 17.2692 15.9539 17.8105 16.4952C18.3519 17.0366 18.6564 17.7705 18.6575 18.5361V19.0114C18.6575 19.2181 18.7396 19.4163 18.8857 19.5624C19.0318 19.7085 19.23 19.7906 19.4367 19.7906C19.6433 19.7906 19.8415 19.7085 19.9877 19.5624C20.1338 19.4163 20.2159 19.2181 20.2159 19.0114V18.5361C20.2145 17.3573 19.7456 16.2272 18.912 15.3937C18.0785 14.5602 16.9484 14.0913 15.7697 14.0898H13.9697C12.7909 14.0913 11.6608 14.5602 10.8273 15.3937C9.99379 16.2272 9.52488 17.3573 9.52344 18.5361V19.0114C9.52344 19.2181 9.60553 19.4163 9.75167 19.5624C9.8978 19.7085 10.096 19.7906 10.3027 19.7906Z" fill="#006400"/>
<path d="M9.86858 25.492H19.3244C19.5311 25.492 19.7293 25.4099 19.8754 25.2638C20.0215 25.1177 20.1036 24.9195 20.1036 24.7128C20.1036 24.5062 20.0215 24.308 19.8754 24.1618C19.7293 24.0157 19.5311 23.9336 19.3244 23.9336H9.86858C9.66191 23.9336 9.46372 24.0157 9.31758 24.1618C9.17145 24.308 9.08936 24.5062 9.08936 24.7128C9.08936 24.9195 9.17145 25.1177 9.31758 25.2638C9.46372 25.4099 9.66191 25.492 9.86858 25.492Z" fill="#006400"/>
<path d="M24.6738 28.0371H9.86858C9.66191 28.0371 9.46372 28.1192 9.31758 28.2653C9.17145 28.4115 9.08936 28.6097 9.08936 28.8163C9.08936 29.023 9.17145 29.2212 9.31758 29.3673C9.46372 29.5135 9.66191 29.5956 9.86858 29.5956H24.6738C24.8804 29.5956 25.0786 29.5135 25.2248 29.3673C25.3709 29.2212 25.453 29.023 25.453 28.8163C25.453 28.6097 25.3709 28.4115 25.2248 28.2653C25.0786 28.1192 24.8804 28.0371 24.6738 28.0371Z" fill="#006400"/>
</svg>
