<svg width="36" height="37" viewBox="0 0 36 37" fill="none" xmlns="http://www.w3.org/2000/svg">
<path d="M12.9471 13.415C12.9949 13.463 13.0517 13.5011 13.1143 13.5271C13.1768 13.5531 13.2439 13.5665 13.3116 13.5665C13.3794 13.5665 13.4464 13.5531 13.509 13.5271C13.5715 13.5011 13.6283 13.463 13.6761 13.415L15.39 11.7011C15.4865 11.6045 15.5406 11.4734 15.5405 11.3368C15.5404 11.2002 15.486 11.0693 15.3893 10.9728C15.2927 10.8763 15.1616 10.8221 15.025 10.8223C14.8884 10.8224 14.7575 10.8768 14.661 10.9734L13.3123 12.3247L12.8186 11.8297C12.7221 11.733 12.5911 11.6787 12.4545 11.6786C12.3179 11.6784 12.1869 11.7326 12.0902 11.8291C11.9935 11.9256 11.9391 12.0565 11.939 12.1931C11.9389 12.3297 11.9931 12.4608 12.0896 12.5574L12.9471 13.415Z" fill="#006400"/>
<path d="M17.5975 12.7073H23.5453C23.6816 12.7073 23.8125 12.6531 23.9089 12.5567C24.0054 12.4602 24.0595 12.3294 24.0595 12.193C24.0595 12.0566 24.0054 11.9258 23.9089 11.8293C23.8125 11.7329 23.6816 11.6787 23.5453 11.6787H17.5975C17.4611 11.6787 17.3303 11.7329 17.2339 11.8293C17.1374 11.9258 17.0833 12.0566 17.0833 12.193C17.0833 12.3294 17.1374 12.4602 17.2339 12.5567C17.3303 12.6531 17.4611 12.7073 17.5975 12.7073Z" fill="#006400"/>
<path d="M12.9471 17.2724C12.9949 17.3204 13.0517 17.3585 13.1143 17.3845C13.1768 17.4105 13.2439 17.4239 13.3116 17.4239C13.3794 17.4239 13.4464 17.4105 13.509 17.3845C13.5715 17.3585 13.6283 17.3204 13.6761 17.2724L15.39 15.5586C15.4865 15.4619 15.5406 15.3309 15.5405 15.1943C15.5404 15.0577 15.486 14.9267 15.3893 14.8302C15.2927 14.7337 15.1616 14.6796 15.025 14.6797C14.8884 14.6798 14.7575 14.7342 14.661 14.8309L13.3123 16.1821L12.8186 15.6871C12.7708 15.6393 12.714 15.6013 12.6516 15.5754C12.5891 15.5494 12.5221 15.536 12.4545 15.536C12.3869 15.5359 12.3199 15.5492 12.2574 15.575C12.1949 15.6008 12.1381 15.6387 12.0902 15.6865C12.0423 15.7343 12.0043 15.791 11.9784 15.8535C11.9525 15.916 11.9391 15.9829 11.939 16.0505C11.939 16.1182 11.9522 16.1852 11.9781 16.2477C12.0039 16.3102 12.0418 16.367 12.0896 16.4149L12.9471 17.2724Z" fill="#006400"/>
<path d="M17.5975 16.5647H23.5453C23.6816 16.5647 23.8125 16.5105 23.9089 16.4141C24.0054 16.3176 24.0595 16.1868 24.0595 16.0504C24.0595 15.914 24.0054 15.7832 23.9089 15.6868C23.8125 15.5903 23.6816 15.5361 23.5453 15.5361H17.5975C17.4611 15.5361 17.3303 15.5903 17.2339 15.6868C17.1374 15.7832 17.0833 15.914 17.0833 16.0504C17.0833 16.1868 17.1374 16.3176 17.2339 16.4141C17.3303 16.5105 17.4611 16.5647 17.5975 16.5647Z" fill="#006400"/>
<path d="M12.9471 21.1289C12.9949 21.1769 13.0517 21.215 13.1143 21.241C13.1768 21.267 13.2439 21.2804 13.3116 21.2804C13.3794 21.2804 13.4464 21.267 13.509 21.241C13.5715 21.215 13.6283 21.1769 13.6761 21.1289L15.39 19.415C15.4865 19.3183 15.5406 19.1873 15.5405 19.0507C15.5404 18.9141 15.486 18.7832 15.3893 18.6867C15.2927 18.5902 15.1616 18.536 15.025 18.5361C14.8884 18.5363 14.7575 18.5906 14.661 18.6873L13.3123 20.0386L12.8186 19.5436C12.7221 19.4469 12.5911 19.3925 12.4545 19.3924C12.3179 19.3923 12.1869 19.4464 12.0902 19.5429C11.9935 19.6394 11.9391 19.7704 11.939 19.907C11.9389 20.0436 11.9931 20.1746 12.0896 20.2713L12.9471 21.1289Z" fill="#006400"/>
<path d="M17.5975 20.4221H23.5453C23.6816 20.4221 23.8125 20.3679 23.9089 20.2715C24.0054 20.175 24.0595 20.0442 24.0595 19.9078C24.0595 19.7714 24.0054 19.6406 23.9089 19.5442C23.8125 19.4477 23.6816 19.3936 23.5453 19.3936H17.5975C17.4611 19.3936 17.3303 19.4477 17.2339 19.5442C17.1374 19.6406 17.0833 19.7714 17.0833 19.9078C17.0833 20.0442 17.1374 20.175 17.2339 20.2715C17.3303 20.3679 17.4611 20.4221 17.5975 20.4221Z" fill="#006400"/>
<path d="M33.4286 29.251H32.6571V13.4045C32.6561 12.8337 32.4289 12.2865 32.0252 11.8829C31.6216 11.4792 31.0744 11.252 30.5036 11.251H27.5143V7.90812C27.5143 7.84056 27.5011 7.77366 27.4753 7.71123C27.4494 7.64879 27.4116 7.59206 27.3638 7.54426L22.221 2.40141C22.1732 2.35366 22.1165 2.3158 22.054 2.28999C21.9916 2.26418 21.9247 2.25092 21.8571 2.25098H10.1121C9.68098 2.25166 9.26769 2.42323 8.96282 2.7281C8.65795 3.03297 8.48638 3.44626 8.4857 3.87741V11.251H5.49642C4.92557 11.252 4.37839 11.4792 3.97474 11.8829C3.57108 12.2865 3.34386 12.8337 3.34284 13.4045V29.251H2.57141C2.43502 29.251 2.30421 29.3052 2.20776 29.4016C2.11131 29.4981 2.05713 29.6289 2.05713 29.7653V31.5756C2.08327 32.2788 2.38689 32.9431 2.90156 33.4231C3.41623 33.903 4.10004 34.1596 4.80342 34.1367H31.1966C31.8999 34.1596 32.5837 33.903 33.0984 33.4231C33.6131 32.9431 33.9167 32.2788 33.9428 31.5756V29.7653C33.9428 29.6289 33.8887 29.4981 33.7922 29.4016C33.6958 29.3052 33.565 29.251 33.4286 29.251ZM30.5036 12.2795C30.8017 12.2802 31.0875 12.399 31.2983 12.6098C31.5091 12.8206 31.6279 13.1064 31.6286 13.4045V29.251H30.4714V13.951C30.4714 13.8146 30.4172 13.6838 30.3208 13.5873C30.2243 13.4909 30.0935 13.4367 29.9571 13.4367H27.5143V12.2795H30.5036ZM21.5036 29.251C21.4109 29.2509 21.32 29.2758 21.2403 29.3231C21.1606 29.3704 21.0952 29.4383 21.051 29.5197L20.4956 30.5367H15.5006L14.9451 29.5197C14.9009 29.4383 14.8355 29.3704 14.7558 29.3231C14.6762 29.2758 14.5852 29.2509 14.4926 29.251H6.55713V14.4653H8.4857V24.6224C8.48638 25.0537 8.65791 25.4671 8.96274 25.7722C9.26757 26.0772 9.68086 26.2491 10.1121 26.2501H25.8878C26.3191 26.2491 26.7324 26.0772 27.0372 25.7722C27.3421 25.4671 27.5136 25.0537 27.5143 24.6224V14.4653H29.4428V29.251H21.5036ZM22.3714 4.00855L25.7567 7.39383H22.3714V4.00855ZM9.51427 3.87998C9.51393 3.80125 9.52915 3.72323 9.55904 3.6504C9.58893 3.57756 9.63292 3.51135 9.68847 3.45556C9.74402 3.39978 9.81004 3.35551 9.88274 3.3253C9.95545 3.2951 10.0334 3.27955 10.1121 3.27955H21.3428V7.90812C21.3428 8.04452 21.397 8.17533 21.4935 8.27177C21.5899 8.36822 21.7207 8.42241 21.8571 8.42241H26.4857V24.6224C26.4857 24.781 26.4227 24.933 26.3106 25.0452C26.1985 25.1573 26.0464 25.2203 25.8878 25.2203H10.1121C9.95357 25.2203 9.8015 25.1573 9.68938 25.0452C9.57726 24.933 9.51427 24.781 9.51427 24.6224V3.87998ZM4.37141 13.4071C4.37141 13.1085 4.48986 12.8221 4.70076 12.6107C4.91167 12.3993 5.19781 12.2802 5.49642 12.2795H8.4857V13.4367H6.04284C5.97531 13.4367 5.90843 13.45 5.84603 13.4758C5.78364 13.5017 5.72694 13.5396 5.67919 13.5873C5.63143 13.6351 5.59355 13.6918 5.56771 13.7542C5.54186 13.8166 5.52856 13.8834 5.52856 13.951V29.251H4.37141V13.4071ZM32.9143 31.5756C32.8877 32.0058 32.6924 32.4082 32.3707 32.6952C32.0491 32.9822 31.6271 33.1306 31.1966 33.1081H4.80342C4.37291 33.1306 3.95092 32.9822 3.62924 32.6952C3.30757 32.4082 3.11223 32.0058 3.0857 31.5756V30.2795H14.1878L14.7433 31.2965C14.7874 31.3778 14.8526 31.4456 14.932 31.4929C15.0114 31.5401 15.1021 31.5652 15.1946 31.5653H20.8054C20.8978 31.5652 20.9885 31.5401 21.0679 31.4929C21.1474 31.4456 21.2126 31.3778 21.2567 31.2965L21.8121 30.2795H32.9143V31.5756Z" fill="#006400"/>
</svg>
