<svg width="36" height="37" viewBox="0 0 36 37" fill="none" xmlns="http://www.w3.org/2000/svg">
<g clip-path="url(#clip0_242_1569)">
<path d="M35.3023 7.42861C35.3 7.42861 35.2976 7.42861 35.2953 7.42861H32.9298V6.61915C32.9425 6.29877 32.7352 6.01084 32.4273 5.92134C30.785 5.49097 29.0939 5.27517 27.3961 5.27936C24.6049 5.27936 20.8018 5.90739 17.9897 8.7684C15.1984 5.87947 11.3674 5.27936 8.58318 5.27936C6.88541 5.27517 5.19427 5.49097 3.55197 5.92134C3.24406 6.01084 3.03682 6.29877 3.04955 6.61915V7.42163H0.697932C0.312566 7.42163 0.00012207 7.73408 0.00012207 8.11944V30.4075C0.00012207 30.7928 0.312566 31.1053 0.697932 31.1053C0.817781 31.1049 0.935536 31.0737 1.03986 31.0146C1.10964 30.9797 8.08774 27.1627 17.8292 29.619H17.9338H17.9966C18.0523 29.6257 18.1085 29.6257 18.1641 29.619C27.9334 27.1417 34.9115 30.9518 34.9534 31.0146C35.1693 31.1392 35.4353 31.1392 35.6512 31.0146C35.8658 30.8907 35.9986 30.6623 36.0001 30.4145V8.12642C36.0001 7.74105 35.6878 7.42861 35.3023 7.42861ZM1.39574 29.298V8.82423H3.06351V26.3253C3.05914 26.7107 3.36801 27.0266 3.75338 27.031C3.79106 27.0314 3.82874 27.0288 3.86599 27.0231C5.30958 26.8027 6.76704 26.6861 8.2273 26.6742C10.2501 26.6391 12.2644 26.9434 14.1866 27.5744C9.84578 27.0494 5.44278 27.6428 1.39574 29.298ZM8.2273 25.2856C6.95807 25.2884 5.69032 25.37 4.43121 25.5298V7.17042C5.78985 6.86775 7.17727 6.71327 8.56922 6.70987C11.179 6.70987 14.7797 7.30998 17.2779 10.1291L17.2988 27.5116C15.8474 26.5625 13.0143 25.2856 8.2273 25.2856ZM18.6944 10.1291C21.1926 7.3379 24.7933 6.70987 27.4031 6.70987C28.795 6.71397 30.1824 6.86836 31.5411 7.17042V25.5298C30.2891 25.3685 29.0283 25.2846 27.766 25.2786C23.0069 25.2786 20.1668 26.5556 18.6944 27.5046V10.1291ZM34.5975 29.298C30.5419 27.6382 26.1287 27.0448 21.7788 27.5744C23.71 26.9411 25.7339 26.6368 27.766 26.6742C29.2354 26.6824 30.7023 26.7967 32.1552 27.0161C32.5362 27.074 32.892 26.8119 32.9498 26.4309C32.9555 26.3937 32.9581 26.356 32.9577 26.3183V8.82423H34.6254L34.5975 29.298Z" fill="#006400"/>
</g>
<defs>
<clipPath id="clip0_242_1569">
<rect width="36" height="36" fill="white" transform="translate(0.00012207 0.193359)"/>
</clipPath>
</defs>
</svg>
