<svg width="36" height="37" viewBox="0 0 36 37" fill="none" xmlns="http://www.w3.org/2000/svg">
<g clip-path="url(#clip0_242_1562)">
<mask id="path-1-outside-1_242_1562" maskUnits="userSpaceOnUse" x="-1.00012" y="2.21875" width="38" height="32" fill="black">
<rect fill="white" x="-1.00012" y="2.21875" width="38" height="32"/>
<path d="M32.9902 13.1675C32.9968 13.0475 33.0004 12.931 33.0004 12.8182C33.0007 9.07204 30.1246 5.9532 26.3906 5.65109C26.3724 5.63434 26.3521 5.62033 26.334 5.60413C26.2818 5.55936 26.2357 5.50828 26.1829 5.46434C26.1634 5.45253 26.1437 5.44209 26.1228 5.43275C24.3283 3.95765 21.9257 3.45451 19.6901 4.08563C19.6728 4.0892 19.6552 4.08563 19.6379 4.09003C19.524 4.12244 19.4122 4.16143 19.3007 4.19906C17.3795 2.84727 14.8037 2.89781 12.9369 4.32402H12.9314C12.907 4.31194 12.8842 4.29519 12.8589 4.28365C12.8337 4.27239 12.8246 4.27706 12.8079 4.27102C12.18 3.97605 11.4953 3.8217 10.8016 3.81868C9.08947 3.82472 7.50918 4.73818 6.64927 6.21851H6.60176C4.00804 6.22015 1.88368 8.27997 1.80211 10.8726C-0.0253595 12.329 -0.532899 14.8931 0.602198 16.9359V17.018C0.605768 20.3299 3.28985 23.014 6.60176 23.0176C6.69184 23.0176 6.78192 23.0176 6.87722 23.0099C6.88025 23.02 6.88437 23.0291 6.88739 23.0387C6.93188 23.1774 6.98104 23.3142 7.03514 23.449L7.05052 23.4869C7.51961 24.6522 8.35096 25.636 9.42179 26.2929L9.45117 26.3113C9.57394 26.3877 9.6989 26.4596 9.82661 26.5269C9.85435 26.5412 9.88319 26.5538 9.91065 26.5681C10.0941 26.6607 10.282 26.7433 10.4739 26.8161C10.5591 26.8491 10.6439 26.8831 10.7307 26.9125C10.8046 26.9367 10.8801 26.9565 10.9551 26.9787C11.063 27.0098 11.1718 27.0386 11.2817 27.0644C11.3511 27.0801 11.4201 27.0943 11.4904 27.1075C11.6145 27.1317 11.74 27.1501 11.8667 27.1677C11.9265 27.1748 11.9864 27.1839 12.0424 27.1891C12.2284 27.2072 12.4148 27.2185 12.6038 27.2185C13.7183 27.2146 14.8094 26.8993 15.7542 26.3083C16.1544 27.5714 17.3304 28.4264 18.6553 28.4173C18.8283 28.4173 18.9936 28.4906 19.1092 28.6194L22.5848 32.6009C22.9378 32.9915 23.4387 33.215 23.9649 33.2169C24.9783 33.2161 25.7998 32.3947 25.8006 31.3812V28.9663C26.0994 28.9995 26.3999 29.0166 26.7006 29.0174C30.505 29.0174 33.6002 26.4602 33.6002 23.3177C33.5999 22.833 33.5252 22.3513 33.3788 21.889C35.0558 21.0366 36.0788 19.2821 35.9951 17.403C35.9113 15.5237 34.7361 13.8673 32.9902 13.1675ZM23.9589 32.017C23.776 32.0151 23.6024 31.9377 23.4788 31.8028L20.0087 27.8282C19.6508 27.4294 19.137 27.2064 18.6012 27.2174C17.6325 27.2146 16.8396 26.4456 16.8072 25.4775C17.0662 25.2273 17.3021 24.9543 17.5116 24.6616C17.5355 24.6728 17.5614 24.6802 17.5855 24.6909C17.6454 24.7173 17.7053 24.7508 17.7654 24.7736C17.7866 24.7794 17.8083 24.7835 17.8302 24.7862C18.6138 25.1068 19.4413 25.3075 20.2847 25.3814C21.1633 27.0787 22.7425 28.3047 24.6043 28.7353V31.3812C24.6037 31.5512 24.5354 31.7141 24.414 31.8336C24.2928 31.953 24.1289 32.019 23.9589 32.017ZM32.4003 23.3177C32.4003 25.7991 29.8434 27.8175 26.7006 27.8175C26.2357 27.8194 25.7718 27.773 25.3164 27.6788C23.8419 27.4286 22.5263 26.6052 21.6568 25.388C24.3549 25.1655 26.7833 23.6641 28.1881 21.3496C29.3232 22.2735 30.8205 22.6232 32.2473 22.2977C32.3476 22.6284 32.3992 22.972 32.4003 23.3177ZM31.2004 21.2178C29.6121 21.2066 28.2147 20.1657 27.7495 18.6469C27.6531 18.3316 27.3205 18.1531 27.0047 18.247C26.6885 18.3409 26.5076 18.6722 26.5993 18.9888C26.7572 19.5095 27.0025 19.9995 27.3246 20.4378C26.2997 22.3331 24.4793 23.6696 22.3643 24.0804C20.249 24.491 18.0609 23.9327 16.401 22.5586C16.1464 22.3469 15.7679 22.3815 15.5559 22.6363C15.3442 22.8912 15.3788 23.2694 15.6336 23.4814C15.894 23.6956 16.1667 23.8939 16.451 24.0755C15.5463 25.2941 14.1193 26.0139 12.6016 26.0175C12.4503 26.0175 12.3014 26.0084 12.1528 25.9947C12.0699 25.987 11.9889 25.9744 11.9073 25.9623C11.8504 25.9538 11.7928 25.9461 11.7365 25.9359C11.6236 25.9148 11.5121 25.8909 11.4022 25.862L11.3583 25.8508C9.91971 25.4575 8.74232 24.4232 8.16722 23.0469L8.15266 23.0129C8.10652 22.8995 8.06505 22.783 8.02798 22.6655C8.02084 22.6432 8.01424 22.6204 8.00765 22.5982C7.97332 22.4847 7.94284 22.3697 7.91702 22.2521C7.81842 21.8078 7.78327 21.3516 7.81266 20.8973C8.03649 18.3294 10.2095 16.3726 12.787 16.4179H16.2013C17.1953 16.4179 18.0011 15.6121 18.0011 14.6182C18.0011 14.2867 18.2697 14.0181 18.6012 14.0181H20.4012C20.7324 14.0181 21.001 13.7495 21.001 13.4183C21.001 13.0868 20.7324 12.8182 20.4012 12.8182H18.6012C17.6072 12.8182 16.8011 13.624 16.8011 14.6182C16.8011 14.9494 16.5325 15.218 16.2013 15.218H12.787C9.57723 15.1738 6.8808 17.6211 6.61439 20.8199C6.59544 21.1527 6.60313 21.4861 6.63774 21.8176H6.60176C4.54304 21.8143 2.7153 20.4999 2.05698 18.5491C2.27449 18.7032 2.5041 18.8391 2.74413 18.9553C3.04322 19.0979 3.40135 18.9707 3.54389 18.6713C3.68643 18.3723 3.55927 18.0141 3.25991 17.8719C2.62933 17.5719 2.09955 17.0952 1.73482 16.4995C1.73125 16.4937 1.73015 16.4863 1.72658 16.4805C0.736223 14.8563 1.18609 12.7415 2.75182 11.6614L2.75979 11.6548C3.21514 11.3392 3.73806 11.1338 4.28652 11.055C4.61472 11.0083 4.84295 10.7042 4.79626 10.376C4.74957 10.0478 4.44554 9.81962 4.11734 9.8663C3.77596 9.91684 3.4409 10.0042 3.11847 10.1267C3.3846 9.08577 4.10196 8.2179 5.07447 7.7609C6.04698 7.30362 7.17274 7.30499 8.14442 7.76419C8.44186 7.89712 8.79121 7.76804 8.931 7.47362C9.07079 7.17948 8.95022 6.82739 8.6591 6.68045C8.43527 6.57636 8.20347 6.48985 7.96618 6.42202C9.0826 4.96064 11.1268 4.58686 12.6878 5.55854H12.6933C13.1122 5.81698 13.4739 6.15808 13.7565 6.56126C13.9487 6.82519 14.3167 6.88699 14.5848 6.69995C14.8526 6.5132 14.9218 6.14655 14.7405 5.87493C14.5263 5.57172 14.2775 5.29433 13.9995 5.04853C15.1906 4.30068 16.6814 4.21307 17.9519 4.81646C17.8591 4.87166 17.7643 4.92439 17.6737 4.98316C17.396 5.16415 17.3175 5.53602 17.4985 5.81368C17.6795 6.09135 18.051 6.16962 18.3287 5.9889C20.647 4.52451 23.6581 4.79037 25.6836 6.63843C26.2587 7.17014 26.7248 7.80868 27.0557 8.51836C27.1395 8.72187 27.3279 8.86331 27.5471 8.88666C27.766 8.91027 27.9799 8.81195 28.1049 8.63041C28.2298 8.44915 28.2452 8.21406 28.1455 8.01796C28 7.70817 27.8324 7.40935 27.6438 7.124C30.1188 7.91827 31.798 10.2189 31.8005 12.8182C31.8005 12.964 31.7909 13.1079 31.7807 13.2526C31.7746 13.3301 31.7686 13.4073 31.759 13.4927C31.7032 14.0098 31.5797 14.5174 31.3912 15.0021C31.3132 15.2018 31.3476 15.4281 31.4816 15.5956C31.6156 15.7629 31.8288 15.8464 32.0408 15.814C32.2528 15.7816 32.4316 15.6387 32.5096 15.4388C32.6373 15.1051 32.7397 14.7624 32.8161 14.4136C34.3036 15.162 35.0822 16.834 34.6977 18.4541C34.3129 20.0742 32.8655 21.2181 31.2004 21.2178Z"/>
</mask>
<path d="M32.9902 13.1675C32.9968 13.0475 33.0004 12.931 33.0004 12.8182C33.0007 9.07204 30.1246 5.9532 26.3906 5.65109C26.3724 5.63434 26.3521 5.62033 26.334 5.60413C26.2818 5.55936 26.2357 5.50828 26.1829 5.46434C26.1634 5.45253 26.1437 5.44209 26.1228 5.43275C24.3283 3.95765 21.9257 3.45451 19.6901 4.08563C19.6728 4.0892 19.6552 4.08563 19.6379 4.09003C19.524 4.12244 19.4122 4.16143 19.3007 4.19906C17.3795 2.84727 14.8037 2.89781 12.9369 4.32402H12.9314C12.907 4.31194 12.8842 4.29519 12.8589 4.28365C12.8337 4.27239 12.8246 4.27706 12.8079 4.27102C12.18 3.97605 11.4953 3.8217 10.8016 3.81868C9.08947 3.82472 7.50918 4.73818 6.64927 6.21851H6.60176C4.00804 6.22015 1.88368 8.27997 1.80211 10.8726C-0.0253595 12.329 -0.532899 14.8931 0.602198 16.9359V17.018C0.605768 20.3299 3.28985 23.014 6.60176 23.0176C6.69184 23.0176 6.78192 23.0176 6.87722 23.0099C6.88025 23.02 6.88437 23.0291 6.88739 23.0387C6.93188 23.1774 6.98104 23.3142 7.03514 23.449L7.05052 23.4869C7.51961 24.6522 8.35096 25.636 9.42179 26.2929L9.45117 26.3113C9.57394 26.3877 9.6989 26.4596 9.82661 26.5269C9.85435 26.5412 9.88319 26.5538 9.91065 26.5681C10.0941 26.6607 10.282 26.7433 10.4739 26.8161C10.5591 26.8491 10.6439 26.8831 10.7307 26.9125C10.8046 26.9367 10.8801 26.9565 10.9551 26.9787C11.063 27.0098 11.1718 27.0386 11.2817 27.0644C11.3511 27.0801 11.4201 27.0943 11.4904 27.1075C11.6145 27.1317 11.74 27.1501 11.8667 27.1677C11.9265 27.1748 11.9864 27.1839 12.0424 27.1891C12.2284 27.2072 12.4148 27.2185 12.6038 27.2185C13.7183 27.2146 14.8094 26.8993 15.7542 26.3083C16.1544 27.5714 17.3304 28.4264 18.6553 28.4173C18.8283 28.4173 18.9936 28.4906 19.1092 28.6194L22.5848 32.6009C22.9378 32.9915 23.4387 33.215 23.9649 33.2169C24.9783 33.2161 25.7998 32.3947 25.8006 31.3812V28.9663C26.0994 28.9995 26.3999 29.0166 26.7006 29.0174C30.505 29.0174 33.6002 26.4602 33.6002 23.3177C33.5999 22.833 33.5252 22.3513 33.3788 21.889C35.0558 21.0366 36.0788 19.2821 35.9951 17.403C35.9113 15.5237 34.7361 13.8673 32.9902 13.1675ZM23.9589 32.017C23.776 32.0151 23.6024 31.9377 23.4788 31.8028L20.0087 27.8282C19.6508 27.4294 19.137 27.2064 18.6012 27.2174C17.6325 27.2146 16.8396 26.4456 16.8072 25.4775C17.0662 25.2273 17.3021 24.9543 17.5116 24.6616C17.5355 24.6728 17.5614 24.6802 17.5855 24.6909C17.6454 24.7173 17.7053 24.7508 17.7654 24.7736C17.7866 24.7794 17.8083 24.7835 17.8302 24.7862C18.6138 25.1068 19.4413 25.3075 20.2847 25.3814C21.1633 27.0787 22.7425 28.3047 24.6043 28.7353V31.3812C24.6037 31.5512 24.5354 31.7141 24.414 31.8336C24.2928 31.953 24.1289 32.019 23.9589 32.017ZM32.4003 23.3177C32.4003 25.7991 29.8434 27.8175 26.7006 27.8175C26.2357 27.8194 25.7718 27.773 25.3164 27.6788C23.8419 27.4286 22.5263 26.6052 21.6568 25.388C24.3549 25.1655 26.7833 23.6641 28.1881 21.3496C29.3232 22.2735 30.8205 22.6232 32.2473 22.2977C32.3476 22.6284 32.3992 22.972 32.4003 23.3177ZM31.2004 21.2178C29.6121 21.2066 28.2147 20.1657 27.7495 18.6469C27.6531 18.3316 27.3205 18.1531 27.0047 18.247C26.6885 18.3409 26.5076 18.6722 26.5993 18.9888C26.7572 19.5095 27.0025 19.9995 27.3246 20.4378C26.2997 22.3331 24.4793 23.6696 22.3643 24.0804C20.249 24.491 18.0609 23.9327 16.401 22.5586C16.1464 22.3469 15.7679 22.3815 15.5559 22.6363C15.3442 22.8912 15.3788 23.2694 15.6336 23.4814C15.894 23.6956 16.1667 23.8939 16.451 24.0755C15.5463 25.2941 14.1193 26.0139 12.6016 26.0175C12.4503 26.0175 12.3014 26.0084 12.1528 25.9947C12.0699 25.987 11.9889 25.9744 11.9073 25.9623C11.8504 25.9538 11.7928 25.9461 11.7365 25.9359C11.6236 25.9148 11.5121 25.8909 11.4022 25.862L11.3583 25.8508C9.91971 25.4575 8.74232 24.4232 8.16722 23.0469L8.15266 23.0129C8.10652 22.8995 8.06505 22.783 8.02798 22.6655C8.02084 22.6432 8.01424 22.6204 8.00765 22.5982C7.97332 22.4847 7.94284 22.3697 7.91702 22.2521C7.81842 21.8078 7.78327 21.3516 7.81266 20.8973C8.03649 18.3294 10.2095 16.3726 12.787 16.4179H16.2013C17.1953 16.4179 18.0011 15.6121 18.0011 14.6182C18.0011 14.2867 18.2697 14.0181 18.6012 14.0181H20.4012C20.7324 14.0181 21.001 13.7495 21.001 13.4183C21.001 13.0868 20.7324 12.8182 20.4012 12.8182H18.6012C17.6072 12.8182 16.8011 13.624 16.8011 14.6182C16.8011 14.9494 16.5325 15.218 16.2013 15.218H12.787C9.57723 15.1738 6.8808 17.6211 6.61439 20.8199C6.59544 21.1527 6.60313 21.4861 6.63774 21.8176H6.60176C4.54304 21.8143 2.7153 20.4999 2.05698 18.5491C2.27449 18.7032 2.5041 18.8391 2.74413 18.9553C3.04322 19.0979 3.40135 18.9707 3.54389 18.6713C3.68643 18.3723 3.55927 18.0141 3.25991 17.8719C2.62933 17.5719 2.09955 17.0952 1.73482 16.4995C1.73125 16.4937 1.73015 16.4863 1.72658 16.4805C0.736223 14.8563 1.18609 12.7415 2.75182 11.6614L2.75979 11.6548C3.21514 11.3392 3.73806 11.1338 4.28652 11.055C4.61472 11.0083 4.84295 10.7042 4.79626 10.376C4.74957 10.0478 4.44554 9.81962 4.11734 9.8663C3.77596 9.91684 3.4409 10.0042 3.11847 10.1267C3.3846 9.08577 4.10196 8.2179 5.07447 7.7609C6.04698 7.30362 7.17274 7.30499 8.14442 7.76419C8.44186 7.89712 8.79121 7.76804 8.931 7.47362C9.07079 7.17948 8.95022 6.82739 8.6591 6.68045C8.43527 6.57636 8.20347 6.48985 7.96618 6.42202C9.0826 4.96064 11.1268 4.58686 12.6878 5.55854H12.6933C13.1122 5.81698 13.4739 6.15808 13.7565 6.56126C13.9487 6.82519 14.3167 6.88699 14.5848 6.69995C14.8526 6.5132 14.9218 6.14655 14.7405 5.87493C14.5263 5.57172 14.2775 5.29433 13.9995 5.04853C15.1906 4.30068 16.6814 4.21307 17.9519 4.81646C17.8591 4.87166 17.7643 4.92439 17.6737 4.98316C17.396 5.16415 17.3175 5.53602 17.4985 5.81368C17.6795 6.09135 18.051 6.16962 18.3287 5.9889C20.647 4.52451 23.6581 4.79037 25.6836 6.63843C26.2587 7.17014 26.7248 7.80868 27.0557 8.51836C27.1395 8.72187 27.3279 8.86331 27.5471 8.88666C27.766 8.91027 27.9799 8.81195 28.1049 8.63041C28.2298 8.44915 28.2452 8.21406 28.1455 8.01796C28 7.70817 27.8324 7.40935 27.6438 7.124C30.1188 7.91827 31.798 10.2189 31.8005 12.8182C31.8005 12.964 31.7909 13.1079 31.7807 13.2526C31.7746 13.3301 31.7686 13.4073 31.759 13.4927C31.7032 14.0098 31.5797 14.5174 31.3912 15.0021C31.3132 15.2018 31.3476 15.4281 31.4816 15.5956C31.6156 15.7629 31.8288 15.8464 32.0408 15.814C32.2528 15.7816 32.4316 15.6387 32.5096 15.4388C32.6373 15.1051 32.7397 14.7624 32.8161 14.4136C34.3036 15.162 35.0822 16.834 34.6977 18.4541C34.3129 20.0742 32.8655 21.2181 31.2004 21.2178Z" fill="#006400"/>
<path d="M32.9902 13.1675C32.9968 13.0475 33.0004 12.931 33.0004 12.8182C33.0007 9.07204 30.1246 5.9532 26.3906 5.65109C26.3724 5.63434 26.3521 5.62033 26.334 5.60413C26.2818 5.55936 26.2357 5.50828 26.1829 5.46434C26.1634 5.45253 26.1437 5.44209 26.1228 5.43275C24.3283 3.95765 21.9257 3.45451 19.6901 4.08563C19.6728 4.0892 19.6552 4.08563 19.6379 4.09003C19.524 4.12244 19.4122 4.16143 19.3007 4.19906C17.3795 2.84727 14.8037 2.89781 12.9369 4.32402H12.9314C12.907 4.31194 12.8842 4.29519 12.8589 4.28365C12.8337 4.27239 12.8246 4.27706 12.8079 4.27102C12.18 3.97605 11.4953 3.8217 10.8016 3.81868C9.08947 3.82472 7.50918 4.73818 6.64927 6.21851H6.60176C4.00804 6.22015 1.88368 8.27997 1.80211 10.8726C-0.0253595 12.329 -0.532899 14.8931 0.602198 16.9359V17.018C0.605768 20.3299 3.28985 23.014 6.60176 23.0176C6.69184 23.0176 6.78192 23.0176 6.87722 23.0099C6.88025 23.02 6.88437 23.0291 6.88739 23.0387C6.93188 23.1774 6.98104 23.3142 7.03514 23.449L7.05052 23.4869C7.51961 24.6522 8.35096 25.636 9.42179 26.2929L9.45117 26.3113C9.57394 26.3877 9.6989 26.4596 9.82661 26.5269C9.85435 26.5412 9.88319 26.5538 9.91065 26.5681C10.0941 26.6607 10.282 26.7433 10.4739 26.8161C10.5591 26.8491 10.6439 26.8831 10.7307 26.9125C10.8046 26.9367 10.8801 26.9565 10.9551 26.9787C11.063 27.0098 11.1718 27.0386 11.2817 27.0644C11.3511 27.0801 11.4201 27.0943 11.4904 27.1075C11.6145 27.1317 11.74 27.1501 11.8667 27.1677C11.9265 27.1748 11.9864 27.1839 12.0424 27.1891C12.2284 27.2072 12.4148 27.2185 12.6038 27.2185C13.7183 27.2146 14.8094 26.8993 15.7542 26.3083C16.1544 27.5714 17.3304 28.4264 18.6553 28.4173C18.8283 28.4173 18.9936 28.4906 19.1092 28.6194L22.5848 32.6009C22.9378 32.9915 23.4387 33.215 23.9649 33.2169C24.9783 33.2161 25.7998 32.3947 25.8006 31.3812V28.9663C26.0994 28.9995 26.3999 29.0166 26.7006 29.0174C30.505 29.0174 33.6002 26.4602 33.6002 23.3177C33.5999 22.833 33.5252 22.3513 33.3788 21.889C35.0558 21.0366 36.0788 19.2821 35.9951 17.403C35.9113 15.5237 34.7361 13.8673 32.9902 13.1675ZM23.9589 32.017C23.776 32.0151 23.6024 31.9377 23.4788 31.8028L20.0087 27.8282C19.6508 27.4294 19.137 27.2064 18.6012 27.2174C17.6325 27.2146 16.8396 26.4456 16.8072 25.4775C17.0662 25.2273 17.3021 24.9543 17.5116 24.6616C17.5355 24.6728 17.5614 24.6802 17.5855 24.6909C17.6454 24.7173 17.7053 24.7508 17.7654 24.7736C17.7866 24.7794 17.8083 24.7835 17.8302 24.7862C18.6138 25.1068 19.4413 25.3075 20.2847 25.3814C21.1633 27.0787 22.7425 28.3047 24.6043 28.7353V31.3812C24.6037 31.5512 24.5354 31.7141 24.414 31.8336C24.2928 31.953 24.1289 32.019 23.9589 32.017ZM32.4003 23.3177C32.4003 25.7991 29.8434 27.8175 26.7006 27.8175C26.2357 27.8194 25.7718 27.773 25.3164 27.6788C23.8419 27.4286 22.5263 26.6052 21.6568 25.388C24.3549 25.1655 26.7833 23.6641 28.1881 21.3496C29.3232 22.2735 30.8205 22.6232 32.2473 22.2977C32.3476 22.6284 32.3992 22.972 32.4003 23.3177ZM31.2004 21.2178C29.6121 21.2066 28.2147 20.1657 27.7495 18.6469C27.6531 18.3316 27.3205 18.1531 27.0047 18.247C26.6885 18.3409 26.5076 18.6722 26.5993 18.9888C26.7572 19.5095 27.0025 19.9995 27.3246 20.4378C26.2997 22.3331 24.4793 23.6696 22.3643 24.0804C20.249 24.491 18.0609 23.9327 16.401 22.5586C16.1464 22.3469 15.7679 22.3815 15.5559 22.6363C15.3442 22.8912 15.3788 23.2694 15.6336 23.4814C15.894 23.6956 16.1667 23.8939 16.451 24.0755C15.5463 25.2941 14.1193 26.0139 12.6016 26.0175C12.4503 26.0175 12.3014 26.0084 12.1528 25.9947C12.0699 25.987 11.9889 25.9744 11.9073 25.9623C11.8504 25.9538 11.7928 25.9461 11.7365 25.9359C11.6236 25.9148 11.5121 25.8909 11.4022 25.862L11.3583 25.8508C9.91971 25.4575 8.74232 24.4232 8.16722 23.0469L8.15266 23.0129C8.10652 22.8995 8.06505 22.783 8.02798 22.6655C8.02084 22.6432 8.01424 22.6204 8.00765 22.5982C7.97332 22.4847 7.94284 22.3697 7.91702 22.2521C7.81842 21.8078 7.78327 21.3516 7.81266 20.8973C8.03649 18.3294 10.2095 16.3726 12.787 16.4179H16.2013C17.1953 16.4179 18.0011 15.6121 18.0011 14.6182C18.0011 14.2867 18.2697 14.0181 18.6012 14.0181H20.4012C20.7324 14.0181 21.001 13.7495 21.001 13.4183C21.001 13.0868 20.7324 12.8182 20.4012 12.8182H18.6012C17.6072 12.8182 16.8011 13.624 16.8011 14.6182C16.8011 14.9494 16.5325 15.218 16.2013 15.218H12.787C9.57723 15.1738 6.8808 17.6211 6.61439 20.8199C6.59544 21.1527 6.60313 21.4861 6.63774 21.8176H6.60176C4.54304 21.8143 2.7153 20.4999 2.05698 18.5491C2.27449 18.7032 2.5041 18.8391 2.74413 18.9553C3.04322 19.0979 3.40135 18.9707 3.54389 18.6713C3.68643 18.3723 3.55927 18.0141 3.25991 17.8719C2.62933 17.5719 2.09955 17.0952 1.73482 16.4995C1.73125 16.4937 1.73015 16.4863 1.72658 16.4805C0.736223 14.8563 1.18609 12.7415 2.75182 11.6614L2.75979 11.6548C3.21514 11.3392 3.73806 11.1338 4.28652 11.055C4.61472 11.0083 4.84295 10.7042 4.79626 10.376C4.74957 10.0478 4.44554 9.81962 4.11734 9.8663C3.77596 9.91684 3.4409 10.0042 3.11847 10.1267C3.3846 9.08577 4.10196 8.2179 5.07447 7.7609C6.04698 7.30362 7.17274 7.30499 8.14442 7.76419C8.44186 7.89712 8.79121 7.76804 8.931 7.47362C9.07079 7.17948 8.95022 6.82739 8.6591 6.68045C8.43527 6.57636 8.20347 6.48985 7.96618 6.42202C9.0826 4.96064 11.1268 4.58686 12.6878 5.55854H12.6933C13.1122 5.81698 13.4739 6.15808 13.7565 6.56126C13.9487 6.82519 14.3167 6.88699 14.5848 6.69995C14.8526 6.5132 14.9218 6.14655 14.7405 5.87493C14.5263 5.57172 14.2775 5.29433 13.9995 5.04853C15.1906 4.30068 16.6814 4.21307 17.9519 4.81646C17.8591 4.87166 17.7643 4.92439 17.6737 4.98316C17.396 5.16415 17.3175 5.53602 17.4985 5.81368C17.6795 6.09135 18.051 6.16962 18.3287 5.9889C20.647 4.52451 23.6581 4.79037 25.6836 6.63843C26.2587 7.17014 26.7248 7.80868 27.0557 8.51836C27.1395 8.72187 27.3279 8.86331 27.5471 8.88666C27.766 8.91027 27.9799 8.81195 28.1049 8.63041C28.2298 8.44915 28.2452 8.21406 28.1455 8.01796C28 7.70817 27.8324 7.40935 27.6438 7.124C30.1188 7.91827 31.798 10.2189 31.8005 12.8182C31.8005 12.964 31.7909 13.1079 31.7807 13.2526C31.7746 13.3301 31.7686 13.4073 31.759 13.4927C31.7032 14.0098 31.5797 14.5174 31.3912 15.0021C31.3132 15.2018 31.3476 15.4281 31.4816 15.5956C31.6156 15.7629 31.8288 15.8464 32.0408 15.814C32.2528 15.7816 32.4316 15.6387 32.5096 15.4388C32.6373 15.1051 32.7397 14.7624 32.8161 14.4136C34.3036 15.162 35.0822 16.834 34.6977 18.4541C34.3129 20.0742 32.8655 21.2181 31.2004 21.2178Z" stroke="#006400" stroke-width="0.4" mask="url(#path-1-outside-1_242_1562)"/>
</g>
<defs>
<clipPath id="clip0_242_1562">
<rect width="36" height="36" fill="white" transform="translate(-0.00012207 0.193359)"/>
</clipPath>
</defs>
</svg>
