<svg width="36" height="37" viewBox="0 0 36 37" fill="none" xmlns="http://www.w3.org/2000/svg">
<g clip-path="url(#clip0_242_1547)">
<path d="M34.3405 34.787H32.7984V12.395C32.7984 11.3528 31.9504 10.5049 30.9082 10.5049H27.4612C26.419 10.5049 25.5711 11.3529 25.5711 12.395V34.787H21.6552V22.5403C21.6552 21.4981 20.8073 20.6502 19.7651 20.6502H16.3181C15.2759 20.6502 14.428 21.4982 14.428 22.5403V34.787H10.5121V28.4446C10.5121 27.4023 9.66415 26.5544 8.62198 26.5544H5.17491C4.13267 26.5544 3.28477 27.4024 3.28477 28.4446V34.787H1.65942C1.27109 34.787 0.956299 35.1018 0.956299 35.4901C0.956299 35.8785 1.27109 36.1933 1.65942 36.1933H34.3405C34.7289 36.1933 35.0437 35.8785 35.0437 35.4901C35.0437 35.1018 34.7289 34.787 34.3405 34.787ZM9.10573 34.787H4.69095V28.4446C4.69095 28.1777 4.908 27.9607 5.17484 27.9607H8.62184C8.88867 27.9607 9.10573 28.1777 9.10573 28.4446V34.787ZM20.2489 34.787H15.8341V22.5403C15.8341 22.2735 16.0512 22.0565 16.318 22.0565H19.765C20.0318 22.0565 20.2489 22.2735 20.2489 22.5403V34.787ZM31.3921 34.787H26.9773V12.395C26.9773 12.1282 27.1944 11.9111 27.4612 11.9111H30.9082C31.1751 11.9111 31.3921 12.1282 31.3921 12.395V34.787Z" fill="#006400"/>
<path d="M32.7967 0.932766C32.8066 0.740883 32.7391 0.545766 32.5925 0.399234C32.446 0.252703 32.2509 0.185133 32.059 0.195047C32.0477 0.194555 32.0365 0.193359 32.025 0.193359H27.7711C27.3827 0.193359 27.0679 0.508148 27.0679 0.896484C27.0679 1.28482 27.3827 1.59961 27.7711 1.59961H30.3977L23.4468 8.55056L20.8256 5.92931C20.6937 5.79748 20.5149 5.72337 20.3284 5.72337C20.1419 5.72337 19.9631 5.79748 19.8312 5.92931L7.19122 18.5694C6.91665 18.844 6.91665 19.2892 7.19122 19.5638C7.32854 19.701 7.50847 19.7696 7.6884 19.7696C7.86833 19.7696 8.04833 19.701 8.18558 19.5637L20.3284 7.42078L22.9497 10.042C23.2242 10.3166 23.6694 10.3166 23.9441 10.042L31.3921 2.59404V4.9713C31.3921 5.35964 31.7069 5.67443 32.0953 5.67443C32.4836 5.67443 32.7984 5.35964 32.7984 4.9713V0.966797C32.7984 0.955336 32.7972 0.944156 32.7967 0.932766Z" fill="#006400"/>
<path d="M5.31842 22.2227C5.70675 22.2227 6.02155 21.9079 6.02155 21.5195C6.02155 21.1312 5.70675 20.8164 5.31842 20.8164C4.9301 20.8164 4.6153 21.1312 4.6153 21.5195C4.6153 21.9079 4.9301 22.2227 5.31842 22.2227Z" fill="#006400"/>
</g>
<defs>
<clipPath id="clip0_242_1547">
<rect width="36" height="36" fill="white" transform="translate(0 0.193359)"/>
</clipPath>
</defs>
</svg>
