<svg width="25" height="25" viewBox="0 0 25 25" fill="none" xmlns="http://www.w3.org/2000/svg">
<g clip-path="url(#clip0_464_7129)">
<path d="M6.89571 0.109375C6.76133 0.109375 6.49257 0.109375 6.25069 0.109375C5.71317 0.136251 5.01441 0.163126 4.71877 0.243753C4.23501 0.351256 3.77812 0.485635 3.40186 0.673765C2.97185 0.88877 2.56872 1.1844 2.21933 1.53379C1.86995 1.88317 1.60119 2.25943 1.35931 2.71632C1.17118 3.09258 1.00993 3.54946 0.9293 4.00635C0.875549 4.32886 0.821798 5.02763 0.794922 5.56514V6.21016V18.0086V18.6536C0.821798 19.1911 0.848673 19.8899 0.9293 20.1855C1.0368 20.6693 1.17118 21.1262 1.35931 21.5024C1.57432 21.9324 1.86995 22.3356 2.21933 22.685C2.56872 23.0343 2.94498 23.3031 3.40186 23.545C3.77812 23.7331 4.23501 23.8944 4.6919 23.975C5.01441 24.0287 5.71317 24.0825 6.25069 24.1094H6.89571H18.6941H19.3392C19.8767 24.0825 20.5754 24.0556 20.8711 23.975C21.3548 23.8675 21.8117 23.7331 22.188 23.545C22.618 23.33 23.0211 23.0343 23.3705 22.685C23.7199 22.3356 23.9887 21.9593 24.2305 21.5024C24.4187 21.1262 24.5799 20.6693 24.6605 20.2124C24.7143 19.8899 24.768 19.1911 24.7949 18.6536C24.7949 18.4386 24.7949 18.143 24.7949 18.0086V6.21016C24.7949 6.07578 24.7949 5.80702 24.7949 5.56514C24.768 5.02763 24.7412 4.32886 24.6605 4.03323C24.553 3.54946 24.4187 3.09258 24.2305 2.71632C24.0155 2.28631 23.7199 1.88317 23.3705 1.53379C23.0211 1.1844 22.6449 0.915646 22.188 0.673765C21.8117 0.485635 21.3548 0.324381 20.8979 0.243753C20.5754 0.190002 19.8767 0.136251 19.3392 0.109375C19.1241 0.109375 18.8285 0.109375 18.6941 0.109375H6.89571Z" fill="url(#paint0_linear_464_7129)"/>
<path d="M17.161 13.386C16.9459 13.2785 15.8709 12.7679 15.6828 12.6872C15.4947 12.6066 15.3334 12.5797 15.199 12.7947C15.0647 13.0097 14.6346 13.4935 14.5271 13.6279C14.3928 13.7623 14.2853 13.7891 14.0703 13.6816C13.8552 13.5741 13.1565 13.3591 12.3233 12.6335C11.6783 12.0691 11.2483 11.3703 11.1139 11.1553C10.9795 10.9403 11.1139 10.8328 11.2214 10.7253C11.3289 10.6178 11.4364 10.4834 11.5439 10.3491C11.6514 10.2147 11.6783 10.134 11.7589 9.99967C11.8396 9.86529 11.7858 9.73091 11.7321 9.62341C11.6783 9.5159 11.2483 8.46775 11.0602 8.03774C10.872 7.6346 10.7108 7.68836 10.5764 7.66148C10.442 7.66148 10.3077 7.66148 10.1733 7.66148C10.0389 7.66148 9.79701 7.71523 9.60888 7.93024C9.42075 8.14524 8.85637 8.65588 8.85637 9.70403C8.85637 10.7522 9.63576 11.7466 9.74326 11.9078C9.85077 12.0422 11.2752 14.1923 13.4252 15.106C13.9359 15.3211 14.339 15.4554 14.6615 15.5629C15.1722 15.7242 15.6559 15.6973 16.0322 15.6436C16.4353 15.5898 17.3222 15.1329 17.4835 14.6492C17.6716 14.1654 17.6716 13.7354 17.6178 13.6548C17.5103 13.5473 17.376 13.4935 17.161 13.386ZM13.049 18.9224C11.7589 18.9224 10.5227 18.573 9.42075 17.928L9.152 17.7667L6.46443 18.4655L7.19007 15.8586L7.02882 15.5898C6.33005 14.461 5.95379 13.171 5.95379 11.8272C5.95379 7.93024 9.152 4.7589 13.0759 4.7589C14.9303 4.7589 16.7309 5.48455 18.0747 6.82833C19.4185 8.17212 20.1442 9.94591 20.1442 11.8272C20.1442 15.7242 16.946 18.9224 13.049 18.9224ZM19.096 5.80706C17.4835 4.19452 15.3334 3.30762 13.049 3.30762C8.34573 3.30762 4.5025 7.12397 4.5025 11.8272C4.5025 13.3323 4.90564 14.7835 5.63128 16.0736L4.42188 20.4812L8.93699 19.2987C10.1733 19.9706 11.5977 20.3468 13.0221 20.3468C17.7253 20.3468 21.5686 16.5305 21.5686 11.8272C21.5954 9.56965 20.7085 7.4196 19.096 5.80706Z" fill="white"/>
</g>
<defs>
<linearGradient id="paint0_linear_464_7129" x1="12.803" y1="0.11475" x2="12.803" y2="24.0932" gradientUnits="userSpaceOnUse">
<stop stop-color="#62FA7F"/>
<stop offset="0.6865" stop-color="#22CC40"/>
<stop offset="1" stop-color="#05B723"/>
</linearGradient>
<clipPath id="clip0_464_7129">
<rect width="24" height="24" fill="white" transform="translate(0.710938 0.193359)"/>
</clipPath>
</defs>
</svg>
