<svg width="25" height="25" viewBox="0 0 25 25" fill="none" xmlns="http://www.w3.org/2000/svg">
<g clip-path="url(#clip0_464_7147)">
<path d="M23.6909 5.53336C23.0399 4.37536 22.3334 4.16236 20.8949 4.08136C19.4579 3.98386 15.8444 3.94336 12.7139 3.94336C9.57744 3.94336 5.96244 3.98386 4.52694 4.07986C3.09144 4.16236 2.38344 4.37386 1.72644 5.53336C1.05594 6.68986 0.710938 8.68186 0.710938 12.1889C0.710938 12.1919 0.710938 12.1934 0.710938 12.1934C0.710938 12.1964 0.710938 12.1979 0.710938 12.1979V12.2009C0.710938 15.6929 1.05594 17.6999 1.72644 18.8444C2.38344 20.0024 3.08994 20.2124 4.52544 20.3099C5.96244 20.3939 9.57744 20.4434 12.7139 20.4434C15.8444 20.4434 19.4579 20.3939 20.8964 20.3114C22.3349 20.2139 23.0414 20.0039 23.6924 18.8459C24.3689 17.7014 24.7109 15.6944 24.7109 12.2024C24.7109 12.2024 24.7109 12.1979 24.7109 12.1949C24.7109 12.1949 24.7109 12.1919 24.7109 12.1904C24.7109 8.68186 24.3689 6.68986 23.6909 5.53336Z" fill="#F44336"/>
<path d="M9.71094 16.6934V7.69336L17.2109 12.1934L9.71094 16.6934Z" fill="#FAFAFA"/>
</g>
<defs>
<clipPath id="clip0_464_7147">
<rect width="24" height="24" fill="white" transform="translate(0.710938 0.193359)"/>
</clipPath>
</defs>
</svg>
