<svg width="36" height="36" viewBox="0 0 36 36" fill="none" xmlns="http://www.w3.org/2000/svg">
<g clip-path="url(#clip0_544_13669)">
<mask id="mask0_544_13669" style="mask-type:luminance" maskUnits="userSpaceOnUse" x="0" y="0" width="37" height="36">
<path d="M0.00390625 3.8147e-06H36.0039V36H0.00390625V3.8147e-06Z" fill="white"/>
</mask>
<g mask="url(#mask0_544_13669)">
<path d="M26.4414 16.5234H15.1914C14.4147 16.5234 13.7852 15.8939 13.7852 15.1172V6.67969C13.7852 5.90302 14.4147 5.27344 15.1914 5.27344H26.4414C27.2181 5.27344 27.8477 5.90302 27.8477 6.67969V15.1172C27.8477 15.8939 27.2181 16.5234 26.4414 16.5234Z" stroke="black" stroke-width="1.2" stroke-miterlimit="10" stroke-linecap="round" stroke-linejoin="round"/>
<path d="M22.2227 1.05469H19.4102C18.6335 1.05469 18.0039 1.68427 18.0039 2.46094V5.27344H23.6289V2.46094C23.6289 1.68427 22.9993 1.05469 22.2227 1.05469Z" stroke="black" stroke-width="1.2" stroke-miterlimit="10" stroke-linecap="round" stroke-linejoin="round"/>
<path d="M25.0352 9.49219H16.5977C15.0444 9.49219 13.7852 8.23296 13.7852 6.67969C13.7852 5.90302 14.4147 5.27344 15.1914 5.27344H26.4414C27.2181 5.27344 27.8477 5.90302 27.8477 6.67969C27.8477 8.23296 26.5884 9.49219 25.0352 9.49219Z" stroke="black" stroke-width="1.2" stroke-miterlimit="10" stroke-linecap="round" stroke-linejoin="round"/>
<path d="M23.6289 11.6016V9.49219" stroke="black" stroke-width="1.2" stroke-miterlimit="10" stroke-linecap="round" stroke-linejoin="round"/>
<path d="M18.0039 11.6016V9.49219" stroke="black" stroke-width="1.2" stroke-miterlimit="10" stroke-linecap="round" stroke-linejoin="round"/>
<path d="M7.41119 34.4648H2.53516V21.3752H7.41119V34.4648Z" stroke="black" stroke-width="1.2" stroke-miterlimit="10" stroke-linecap="round" stroke-linejoin="round"/>
<path d="M22.5742 28.187L30.0565 22.9479C31.0383 22.2604 32.3916 22.499 33.079 23.4809C33.7386 24.4228 33.5489 25.7158 32.6465 26.4286L23.0143 34.0371C22.1008 34.7587 20.9297 35.0707 19.7783 34.8993L7.41016 33.0586V22.9648" stroke="black" stroke-width="1.2" stroke-miterlimit="10" stroke-linecap="round" stroke-linejoin="round"/>
<path d="M13.5308 28.3279L20.238 29.5106C21.3853 29.7129 22.4793 28.9468 22.6816 27.7995C22.8839 26.6522 22.1178 25.5582 20.9706 25.3559L15.5868 24.4066C14.7705 24.2627 13.9989 23.9313 13.3325 23.4384C12.1579 22.5697 10.6793 22.2186 9.23962 22.4665L7.41016 22.7815" stroke="black" stroke-width="1.2" stroke-miterlimit="10" stroke-linecap="round" stroke-linejoin="round"/>
</g>
</g>
<defs>
<clipPath id="clip0_544_13669">
<rect width="36" height="36" fill="white"/>
</clipPath>
</defs>
</svg>
