<svg width="36" height="36" viewBox="0 0 36 36" fill="none" xmlns="http://www.w3.org/2000/svg">
<path d="M2.05664 33.8906V2.10938C2.05664 1.52691 2.52886 1.05469 3.11133 1.05469H25.7257C26.3082 1.05469 26.7804 1.52691 26.7804 2.10938V31.3646C26.7804 33.3422 28.3835 34.9453 30.3611 34.9453H3.11133C2.52886 34.9453 2.05664 34.4731 2.05664 33.8906Z" stroke="#121212" stroke-width="1.2" stroke-miterlimit="10" stroke-linecap="round" stroke-linejoin="round"/>
<path d="M30.36 34.9454C32.3376 34.9454 33.9407 33.3423 33.9407 31.3647V20.6289C33.9407 20.0464 33.4685 19.5742 32.886 19.5742H26.7793V31.3647C26.7794 33.3423 28.3825 34.9454 30.36 34.9454Z" stroke="#121212" stroke-width="1.2" stroke-miterlimit="10" stroke-linecap="round" stroke-linejoin="round"/>
<path d="M22.5617 5.27344H6.27539V9.52102H22.5617V5.27344Z" stroke="#121212" stroke-width="1.2" stroke-miterlimit="10" stroke-linecap="round" stroke-linejoin="round"/>
<path d="M22.5617 13.7402H6.27539" stroke="#121212" stroke-width="1.2" stroke-miterlimit="10" stroke-linecap="round" stroke-linejoin="round"/>
<path d="M22.5617 17.959H6.27539" stroke="#121212" stroke-width="1.2" stroke-miterlimit="10" stroke-linecap="round" stroke-linejoin="round"/>
<path d="M22.5617 22.1777H6.27539" stroke="#121212" stroke-width="1.2" stroke-miterlimit="10" stroke-linecap="round" stroke-linejoin="round"/>
<path d="M12.3092 30.6152H6.27539" stroke="#121212" stroke-width="1.2" stroke-miterlimit="10" stroke-linecap="round" stroke-linejoin="round"/>
<path d="M12.3092 26.3965H6.27539" stroke="#121212" stroke-width="1.2" stroke-miterlimit="10" stroke-linecap="round" stroke-linejoin="round"/>
<path d="M22.5611 26.3965H16.5273" stroke="#121212" stroke-width="1.2" stroke-miterlimit="10" stroke-linecap="round" stroke-linejoin="round"/>
</svg>
