<svg width="1440" height="340" viewBox="0 0 1440 340" fill="none" xmlns="http://www.w3.org/2000/svg">
<g clip-path="url(#clip0_364_10906)">
<rect width="1440" height="340" rx="26.1093" fill="url(#paint0_linear_364_10906)"/>
<g opacity="0.3" clip-path="url(#clip1_364_10906)">
<mask id="mask0_364_10906" style="mask-type:luminance" maskUnits="userSpaceOnUse" x="783" y="-6" width="708" height="346">
<path d="M1491 -6H783V340H1491V-6Z" fill="white"/>
</mask>
<g mask="url(#mask0_364_10906)">
<path d="M891 -8V450" stroke="#006400" stroke-miterlimit="10"/>
<path d="M1131 226H1491" stroke="#006400" stroke-miterlimit="10"/>
<path d="M1131 306H1491" stroke="#006400" stroke-miterlimit="10"/>
<path d="M1131 266H1491" stroke="#006400" stroke-miterlimit="10"/>
<path d="M1131 186H1491" stroke="#006400" stroke-miterlimit="10"/>
<path d="M1131 186.059V391.999" stroke="#006400" stroke-miterlimit="10"/>
<path d="M1251 186.059V391.999" stroke="#006400" stroke-miterlimit="10"/>
<path d="M1371 186.059V391.999" stroke="#006400" stroke-miterlimit="10"/>
<path d="M1371 -8V186" stroke="#006400" stroke-miterlimit="10"/>
<path d="M1076 237.5C1076 180.891 1029.88 135 973 135C916.115 135 870 180.891 870 237.5C870 294.109 916.115 340 973 340C1029.88 340 1076 294.109 1076 237.5Z" fill="#006400" stroke="#22C55E" stroke-width="0.8" stroke-miterlimit="10"/>
<path d="M1198 317.916H1045C1031.75 317.916 1021 328.661 1021 341.916V381.916C1021 395.171 1031.75 405.916 1045 405.916H1198C1211.25 405.916 1222 395.171 1222 381.916V341.916C1222 328.661 1211.25 317.916 1198 317.916Z" fill="#006400" stroke="#22C55E" stroke-width="0.8" stroke-miterlimit="10"/>
<path d="M1056.97 23.116L987.267 49.5483C980.752 52.0189 977.473 59.3035 979.943 65.8189L1006.37 135.526C1008.85 142.042 1016.13 145.321 1022.65 142.85L1092.35 116.418C1098.87 113.947 1102.15 106.663 1099.68 100.147L1073.24 30.4399C1070.77 23.9244 1063.49 20.6454 1056.97 23.116Z" fill="#006400" stroke="#22C55E" stroke-width="0.8" stroke-miterlimit="10"/>
<path d="M1429.26 44.3932C1434.06 44.3932 1437.96 40.4996 1437.96 35.6966C1437.96 30.8936 1434.06 27 1429.26 27C1424.46 27 1420.56 30.8936 1420.56 35.6966C1420.56 40.4996 1424.46 44.3932 1429.26 44.3932Z" fill="#006400" stroke="#22C55E" stroke-width="0.8" stroke-miterlimit="10"/>
<path d="M1400.7 44.3932C1405.5 44.3932 1409.39 40.4996 1409.39 35.6966C1409.39 30.8936 1405.5 27 1400.7 27C1395.89 27 1392 30.8936 1392 35.6966C1392 40.4996 1395.89 44.3932 1400.7 44.3932Z" fill="#006400" stroke="#22C55E" stroke-width="0.8" stroke-miterlimit="10"/>
<path d="M1339.64 218.328C1339.66 214.972 1342.96 212.121 1346.62 213.258L1425.43 238.011C1428.21 238.877 1429.29 241.655 1428.62 243.983L1425.72 262.962C1425.32 265.434 1423.64 267.509 1421.31 268.411L1409.22 273.101L1394.2 278.929C1393.19 279.326 1392.39 280.084 1391.94 281.058L1381.73 303.501C1379.15 308.192 1372.4 308.156 1369.86 303.447L1340.25 240.248C1339.35 238.336 1338.94 236.225 1339.01 234.114L1339.64 218.328Z" fill="#006400" stroke="#22C55E" stroke-width="1.8" stroke-miterlimit="10" stroke-linejoin="round"/>
<path d="M1392.72 259.661L1382.76 277.703C1380.18 282.394 1373.43 282.358 1370.89 277.649L1340.29 220.927C1338 216.687 1342.02 211.816 1346.62 213.259L1425.43 238.012C1429.86 239.401 1429.95 245.661 1425.55 247.195L1394.97 257.767C1394.02 258.092 1393.2 258.777 1392.7 259.68L1392.72 259.661Z" fill="#006400" stroke="#22C55E" stroke-width="1.8" stroke-miterlimit="10" stroke-linejoin="round"/>
<path d="M1392.5 280.174L1394.09 258.182" stroke="#22C55E" stroke-miterlimit="10" stroke-linejoin="round"/>
<path d="M1381.75 303.484L1384.87 273.752" stroke="#22C55E" stroke-miterlimit="10" stroke-linejoin="round"/>
<path d="M1369.88 303.429L1369.17 274.689" stroke="#22C55E" stroke-miterlimit="10" stroke-linejoin="round"/>
<path d="M1384.1 137.137L1357.7 178.935C1354.92 183.389 1350.04 186.101 1344.77 186.101H1290.38C1285.11 186.115 1280.23 183.389 1277.45 178.935L1251.33 137.137C1248.23 132.184 1248.23 125.917 1251.31 120.978L1277.71 79.1804C1280.5 74.7123 1285.37 72 1290.62 72H1345.03C1350.29 72 1355.18 74.7123 1357.96 79.1518L1384.08 120.978C1387.18 125.917 1387.18 132.198 1384.1 137.137Z" fill="#006400" stroke="#22C55E" stroke-width="1.8" stroke-miterlimit="10"/>
<path d="M1347.84 87.5166C1348.77 86.0463 1350.31 85.875 1350.92 85.875C1351.55 85.875 1353.08 86.032 1354.01 87.5166L1355.76 90.3431V90.286L1376.52 123.504C1378.63 126.887 1378.63 131.256 1376.52 134.624L1366.77 150.141L1353.73 170.783C1352.81 172.254 1351.38 172.425 1350.81 172.411C1350.22 172.411 1348.78 172.254 1347.85 170.769L1325.34 134.724C1323.23 131.355 1323.21 127.002 1325.28 123.604L1347.84 87.5166Z" fill="#006400" stroke="#22C55E" stroke-miterlimit="10"/>
<path d="M1020.01 244.557C1019.87 240.741 1020.89 236.896 1022.98 233.532L1149.18 31.5623C1152.79 25.7805 1159.11 22.2852 1165.93 22.2852H1236.39C1243.2 22.2852 1249.54 25.795 1253.15 31.5623L1255.8 35.8149L1256.75 37.3295L1270.12 58.7091L1287 85.7103C1288.99 88.9143 1290 92.5406 1290 96.182C1290 99.808 1288.99 103.449 1287 106.653L1180.91 276.408L1163.5 304.283L1163.44 304.385L1160.82 308.608C1157.2 314.376 1150.87 317.885 1144.05 317.885H1073.58C1066.76 317.885 1060.43 314.361 1056.82 308.608L1038.63 279.495L1022.98 254.446C1021.09 251.417 1020.09 248.009 1020.01 244.557Z" fill="#006400" stroke="#22C55E" stroke-width="1.8" stroke-linejoin="round"/>
<path d="M1153.93 297.787C1153.15 297.787 1151.22 297.568 1149.98 295.602L1134.78 271.266L1123.18 253.134L1121.03 249.697C1119.69 247.556 1118.94 245.095 1118.89 242.619C1118.8 239.779 1119.54 237.041 1121.03 234.653L1177.72 143.921L1240.86 42.8047C1242.1 40.824 1244.05 40.6055 1244.82 40.6055C1245.59 40.6055 1247.54 40.824 1248.78 42.8047L1249.7 44.2756L1277.78 88.6805C1280.63 93.2535 1280.63 99.1661 1277.78 103.739L1157.92 295.5L1157.86 295.602C1156.62 297.568 1154.7 297.787 1153.91 297.787H1153.93Z" fill="#006400" stroke="#22C55E" stroke-miterlimit="10" stroke-linejoin="round"/>
</g>
</g>
</g>
<defs>
<linearGradient id="paint0_linear_364_10906" x1="-543" y1="-274.885" x2="836.578" y2="1310.15" gradientUnits="userSpaceOnUse">
<stop stop-color="#FBCCB8"/>
<stop offset="0.474885" stop-color="#006400"/>
<stop offset="0.816472" stop-color="#208220"/>
<stop offset="1" stop-color="white"/>
</linearGradient>
<clipPath id="clip0_364_10906">
<rect width="1440" height="340" rx="26.1093" fill="white"/>
</clipPath>
<clipPath id="clip1_364_10906">
<rect width="708" height="346" fill="white" transform="translate(783 -6)"/>
</clipPath>
</defs>
</svg>
