<svg width="32" height="32" viewBox="0 0 32 32" fill="none" xmlns="http://www.w3.org/2000/svg">
<g clip-path="url(#clip0_436_2737)">
<path d="M29.7951 30.2218L28.9746 26.8301C28.6286 25.4002 27.5317 24.2724 26.1119 23.8868C26.0861 23.8798 26.0598 23.8739 26.0334 23.8691L21.1573 22.9816C20.4973 22.7902 19.9677 22.2926 19.7363 21.644L19.2113 20.1723C20.6397 19.3788 21.7806 18.084 22.4227 16.5107H23.8825C25.3071 16.5107 26.4662 15.3517 26.4662 13.9271V10.6337C26.4662 9.20908 25.3071 8.05002 23.8825 8.05002H23.7672C23.8214 7.51382 23.8572 6.79776 23.828 5.89146C23.7539 3.59464 22.0254 0.596704 21.9519 0.47023C21.7582 0.137126 21.3824 -0.04518 21.0004 0.00964421L14.0036 1.01362C11.6451 1.35195 9.59337 2.81671 8.51516 4.93185C8.16951 5.6099 7.93711 6.28216 7.8049 6.987C7.72978 7.38709 7.67395 7.73708 7.64547 8.07302C6.38086 8.23989 5.40139 9.32421 5.40139 10.6337V13.9271C5.40139 15.3517 6.56045 16.5107 7.98506 16.5107H9.44446C10.0534 18.0029 11.1112 19.2449 12.4372 20.046L11.9025 21.6778C11.6916 22.3211 11.1857 22.8289 10.5448 23.0427L5.71774 24.0955C5.71584 24.0959 5.71402 24.0963 5.71213 24.0967L5.70475 24.0984C5.6931 24.1009 5.68169 24.1046 5.67009 24.1076C5.65258 24.1121 5.63493 24.1163 5.61779 24.1218C4.24605 24.5544 3.20206 25.695 2.89246 27.0999L2.19821 30.2506C2.10381 30.6789 2.20728 31.1205 2.48191 31.4623C2.7566 31.8041 3.1657 32.0002 3.60423 32.0002H28.3958C28.8401 32.0002 29.2524 31.7999 29.5272 31.4508C29.8019 31.1017 29.8996 30.6537 29.7951 30.2218ZM24.5757 10.6337V13.9271C24.5757 14.3092 24.2647 14.6202 23.8825 14.6202H22.9254C22.9714 14.2771 22.9957 13.9268 22.9957 13.5705V9.94051H23.8825C24.2647 9.94051 24.5757 10.2514 24.5757 10.6337ZM7.98513 14.6202C7.60293 14.6202 7.29195 14.3092 7.29195 13.9271V10.6337C7.29195 10.2515 7.60293 9.94051 7.98513 9.94051H8.59033C8.59078 9.94051 8.59122 9.94057 8.59166 9.94057C8.59204 9.94057 8.59248 9.94051 8.59285 9.94051H8.87202V13.5705C8.87202 13.9267 8.89577 14.2772 8.94178 14.6202H7.98513ZM9.72746 8.05002H9.54831C9.57238 7.84875 9.61 7.61735 9.66287 7.33573C9.76137 6.81081 9.93693 6.30529 10.1995 5.79045C10.9988 4.22229 12.5213 3.13614 14.2721 2.88495L20.6175 1.97449C21.1337 2.98049 21.8987 4.72125 21.9385 5.95246C21.9692 6.90621 21.9187 7.60872 21.8618 8.06899C21.6589 8.11008 21.4804 8.21676 21.3474 8.36504C20.5455 7.25747 20.1788 6.10074 20.0169 5.38487C19.8095 4.46817 18.9226 3.88515 17.9985 4.05819C16.6697 4.30616 14.143 4.86423 12.1524 5.81559C10.9773 6.37713 10.2165 7.23289 9.72746 8.05002ZM15.9701 14.6202H10.8548C10.7941 14.2802 10.7624 13.9293 10.7624 13.5705V10.5402C10.8239 10.1946 11.2279 8.35269 12.9674 7.52138C14.6978 6.69442 16.9376 6.18562 18.2059 5.94295C18.5009 7.16256 19.2515 9.25282 21.1051 10.904V13.5705C21.1051 16.6388 18.7853 19.1351 15.9338 19.1351C15.2459 19.1351 14.589 18.9896 13.9881 18.726C13.9761 18.7203 13.9639 18.7148 13.9516 18.7097C12.9533 18.2621 12.1121 17.4876 11.5449 16.5107H15.9702C16.4922 16.5107 16.9154 16.0875 16.9154 15.5655C16.9154 15.0434 16.4922 14.6202 15.9701 14.6202ZM15.9338 21.0255C16.4531 21.0255 16.9592 20.9655 17.4468 20.8527L17.9558 22.2791C18.0653 22.5864 18.2108 22.8755 18.3864 23.1421C18.0172 24.106 17.0863 24.7504 15.9999 24.7504C14.7807 24.7504 13.7495 23.912 13.4983 22.7607C13.5752 22.6014 13.643 22.4367 13.6989 22.2664L14.182 20.7921C14.7426 20.9439 15.3292 21.0255 15.9338 21.0255ZM10.9928 24.8799C11.0203 24.8739 11.0475 24.8666 11.0744 24.8582C11.4437 24.7423 11.7894 24.5738 12.1044 24.3632C12.8662 25.7318 14.3319 26.641 16 26.641C17.6331 26.641 19.0653 25.7947 19.8394 24.4719C20.1086 24.6173 20.3956 24.734 20.697 24.8159C20.7229 24.8229 20.7491 24.8289 20.7755 24.8337L23.5583 25.3401C22.9252 26.0315 22.5381 26.9518 22.5381 27.961V30.1096H9.79067V27.961C9.79067 26.9617 9.41118 26.0496 8.78902 25.3605L10.9928 24.8799ZM4.73865 27.5065C4.89279 26.8071 5.38999 26.2317 6.05166 25.9729C7.08342 26.0478 7.90012 26.9105 7.90012 27.961V30.1096H4.16508L4.73865 27.5065ZM24.4286 30.1095V27.961C24.4286 26.932 25.2121 26.0827 26.2139 25.978C26.6699 26.2716 27.0057 26.7317 27.1371 27.2747L27.823 30.1096H24.4286V30.1095Z" fill="black"/>
</g>
<defs>
<clipPath id="clip0_436_2737">
<rect width="32" height="32" fill="white"/>
</clipPath>
</defs>
</svg>
