<svg width="32" height="32" viewBox="0 0 32 32" fill="none" xmlns="http://www.w3.org/2000/svg">
<path d="M31.0625 29.125H30.0625V26.3125C30.0625 25.7947 29.6427 25.375 29.125 25.375H19.75C18.2183 25.375 16.8559 26.1136 16 27.2533C15.1441 26.1136 13.7817 25.375 12.25 25.375H2.875C2.35725 25.375 1.9375 25.7947 1.9375 26.3125V29.125H0.9375C0.41975 29.125 0 29.5448 0 30.0625C0 30.5802 0.41975 31 0.9375 31H31.0625C31.5802 31 32 30.5802 32 30.0625C32 29.5448 31.5802 29.125 31.0625 29.125ZM19.75 27.25H28.1875V29.125H17.0987C17.4857 28.0339 18.5278 27.25 19.75 27.25ZM3.8125 27.25H12.25C13.4722 27.25 14.5142 28.0339 14.9012 29.125H3.8125V27.25Z" fill="black"/>
<path d="M11.3125 16.4463V17.875H10.375C9.85725 17.875 9.4375 18.2948 9.4375 18.8125C9.4375 19.3302 9.85725 19.75 10.375 19.75H11.3125V20.6875C11.3125 22.2383 12.5742 23.5 14.125 23.5H17.875C19.4258 23.5 20.6875 22.2383 20.6875 20.6875V19.75H21.625C22.1427 19.75 22.5625 19.3302 22.5625 18.8125C22.5625 18.2948 22.1427 17.875 21.625 17.875H20.6875V16.4463C22.9916 14.9113 24.4375 12.3174 24.4375 9.4375C24.4375 4.78506 20.6524 1 16 1C11.3476 1 7.5625 4.78506 7.5625 9.4375C7.5625 12.3181 9.00887 14.9117 11.3125 16.4463ZM18.8125 20.6875C18.8125 21.2044 18.3919 21.625 17.875 21.625H14.125C13.6081 21.625 13.1875 21.2044 13.1875 20.6875V19.75H18.8125V20.6875ZM16 2.875C19.6186 2.875 22.5625 5.81894 22.5625 9.4375C22.5625 11.7745 21.3057 13.9489 19.2826 15.1122C18.9918 15.2794 18.8125 15.5894 18.8125 15.9249V17.875H13.1875V15.9249C13.1875 15.5894 13.0082 15.2794 12.7173 15.1123C10.6943 13.9489 9.4375 11.7746 9.4375 9.4375C9.4375 5.81894 12.3814 2.875 16 2.875Z" fill="black"/>
<path d="M15.0625 11.7008V13.1875C15.0625 13.7052 15.4823 14.125 16 14.125C16.5178 14.125 16.9375 13.7052 16.9375 13.1875V11.7008L18.5379 10.1004C18.904 9.73428 18.904 9.14072 18.5379 8.77459C18.1718 8.40847 17.5782 8.40847 17.2121 8.77459L16 9.98666L14.7879 8.77459C14.4218 8.40847 13.8282 8.40847 13.4621 8.77459C13.096 9.14072 13.096 9.73428 13.4621 10.1004L15.0625 11.7008Z" fill="black"/>
<path d="M26.3125 9.4375C26.3125 9.95525 26.7322 10.375 27.25 10.375H29.125C29.6428 10.375 30.0625 9.95525 30.0625 9.4375C30.0625 8.91975 29.6428 8.5 29.125 8.5H27.25C26.7322 8.5 26.3125 8.91975 26.3125 9.4375Z" fill="black"/>
<path d="M2.875 10.375H4.75C5.26775 10.375 5.6875 9.95525 5.6875 9.4375C5.6875 8.91975 5.26775 8.5 4.75 8.5H2.875C2.35725 8.5 1.9375 8.91975 1.9375 9.4375C1.9375 9.95525 2.35725 10.375 2.875 10.375Z" fill="black"/>
<path d="M26.2111 4.62452L27.8349 3.68702C28.2833 3.42814 28.4369 2.85477 28.178 2.40639C27.919 1.95796 27.3458 1.80439 26.8974 2.06327L25.2736 3.00077C24.8252 3.25964 24.6715 3.83302 24.9305 4.28139C25.1901 4.73121 25.764 4.88264 26.2111 4.62452Z" fill="black"/>
<path d="M5.78794 14.2508L4.16419 15.1883C3.71582 15.4472 3.56219 16.0205 3.82107 16.4689C4.08125 16.9195 4.65544 17.0697 5.10169 16.812L6.72544 15.8745C7.17382 15.6157 7.32744 15.0423 7.06857 14.5939C6.80975 14.1455 6.23632 13.9918 5.78794 14.2508Z" fill="black"/>
<path d="M25.2736 15.8746L26.8974 16.8121C27.3438 17.0699 27.918 16.9193 28.178 16.4689C28.4369 16.0206 28.2833 15.4472 27.8349 15.1883L26.2111 14.2508C25.7627 13.9918 25.1893 14.1455 24.9305 14.5939C24.6715 15.0423 24.8252 15.6157 25.2736 15.8746Z" fill="black"/>
<path d="M4.16423 3.68707L5.78798 4.62457C6.2343 4.88232 6.80861 4.73182 7.06861 4.28145C7.32748 3.83307 7.17386 3.2597 6.72548 3.00082L5.10173 2.06332C4.6533 1.80432 4.07998 1.95801 3.82111 2.40645C3.56217 2.85482 3.7158 3.4282 4.16423 3.68707Z" fill="black"/>
</svg>
